<svg fill="#fff" xmlns="http://www.w3.org/2000/svg" viewBox="0 0 512 512"><path d="M445.2 66H117.9C86.5 66 61 91.2 61 122.6v40.7c-29 2.9-51 27.3-51 56.7v72c0 29.4 22 53.8 51 56.7v40.7c0 31.4 25.5 56.6 56.9 56.6h327.3c31.4 0 56.8-25.2 56.8-56.6V122.6c0-31.4-25.4-56.6-56.8-56.6zM184 292c0 12.7-10.3 23-23 23H67c-12.7 0-23-10.3-23-23v-72c0-12.7 10.3-23 23-23h94c12.7 0 23 10.3 23 23v72zm284 97.4c0 12.7-10.1 22.6-22.8 22.6H117.9c-12.7 0-22.9-9.9-22.9-22.6V349h65.6c31.4 0 57.4-25.6 57.4-57v-72c0-31.4-26-57-57.4-57H95v-40.4c0-12.7 10.2-22.6 22.9-22.6h327.3c12.7 0 22.8 9.9 22.8 22.6v266.8z"/><path d="M96 282v-52c0-9.4-7.6-17-17-17s-17 7.6-17 17v52c0 9.4 7.6 17 17 17s17-7.6 17-17z"/></svg>