<svg fill="#fff" xmlns="http://www.w3.org/2000/svg" viewBox="0 0 512 512"><path d="M29.1 252.9c3.8 0 7.5-1.3 10.6-3.9L68 225.7V442c0 21.6 17.9 39 39.5 39h297.1c21.6 0 39.3-17.4 39.3-39V225.4L472 249c7.2 6 17.9 5.1 23.9-2.1 6-7.2 5.1-17.9-2.1-23.9L269 34.7c-6.3-5.2-15.4-5.3-21.7-.1l-172.8 142-56.3 46.2c-7.3 6-8.3 16.7-2.3 23.9 3.4 4.1 8.2 6.2 13.2 6.2zM297 447h-82v-86h82v86zM257.9 69.9l152.1 127V442c0 2.9-2.5 5-5.3 5H331V344.4c0-9.4-7.5-17.4-16.8-17.4H198c-9.4 0-17 8-17 17.4V447h-73.5c-2.9 0-5.5-2.1-5.5-5V197.7L257.9 69.9z"/></svg>