<svg fill="#fff" xmlns="http://www.w3.org/2000/svg" viewBox="0 0 512 512"><path d="M468.6 72H329.9c-25.4 0-49.8 7.7-70.5 22.5l-1.3.9c-1.3.9-3.1.9-4.4 0l-1.3-.8c-20.7-14.8-45-22.5-70.5-22.5H43.4C34 72 26 79.4 26 88.8V399c0 9.4 8 17 17.4 17h138.7c18.3 0 35.8 5.6 50.7 16.3l1.3.9c6.6 4.7 14.3 7 22 7 7.7 0 15.4-2.3 22-7l1.3-.9c14.9-10.6 32.4-16.3 50.7-16.3h138.7c9.4 0 17.4-7.6 17.4-17V88.8C486 79.4 478 72 468.6 72zM60 382V106h122.1c11.1 0 21.9 1.9 31.9 5.8v274.4c-10-2.8-21-4.3-31.9-4.3H60zm198.2 23.5c-1.3.9-3.1.9-4.4 0l-1.3-.9c-1.5-1.1-2.5-2.1-4.5-3V129.1c5 1.1 11 1.1 16 0v272.4c-2 1-3 2-4.5 3l-1.3 1zM452 382H329.9c-10.9 0-21.9 1.5-31.9 4.3V111.8c10-4 20.9-5.8 31.9-5.8H452v276z"/></svg>