<svg fill="#fff" xmlns="http://www.w3.org/2000/svg" viewBox="0 0 512 512"><path d="M459 80c0-31.5-25.5-57-57-57H110c-31.5 0-57 25.5-57 57v352c0 31.5 25.5 57 57 57h292c31.5 0 57-25.5 57-57V80zM87 432.2V79.8C87 67.2 97.2 57 109.9 57H133v398h-23.1C97.2 455 87 444.8 87 432.2zm338 0c0 12.7-10.2 22.8-22.9 22.8H167V57h235.1c12.7 0 22.9 10.2 22.9 22.8v352.4z"/><path d="M398 136c0-9.4-7.6-17-17-17H204c-9.4 0-17 7.6-17 17v125c0 9.4 7.6 17 17 17h177c9.4 0 17-7.6 17-17V136zm-34 108H221v-91h143v91zM380.6 314h-177c-9.4 0-17 7.6-17 17s7.6 17 17 17h176.9c9.4 0 17-7.6 17-17s-7.6-17-16.9-17z"/></svg>