<svg fill="#fff" xmlns="http://www.w3.org/2000/svg" viewBox="0 0 512 512"><path d="M200.3 479.4c14.6 0 29.2-5.6 40.3-16.7l220.2-220.2c10.7-10.7 16.6-24.9 16.7-40.1l.4-110.4c.1-15-5.7-29.3-16.2-40-10.5-10.8-24.6-16.9-39.6-17.2l-105.9-2.2c-15.5-.3-30.6 5.8-41.5 16.7L50.8 273c-22.2 22.2-22.2 58.4 0 80.6L160 462.8c11.1 11.1 25.7 16.6 40.3 16.6zm98.4-406.1c4.3-4.3 10.2-6.7 16.3-6.7h.5l105.9 2.2c12.5.3 22.6 10.6 22.5 23.1l-.4 110.6c0 6.1-2.4 11.9-6.7 16.2L282 373.2 140.4 231.6 298.7 73.3zM74.9 297.1l41.4-41.4L258 397.3l-41.4 41.4c-9 9-23.6 9-32.5 0L74.9 329.6c-9-9-9-23.6 0-32.5z"/><path d="M355.8 204.3c11.9 0 23.8-4.5 32.9-13.6 18.1-18.1 18.1-47.7 0-65.8-18.1-18.1-47.7-18.1-65.8 0-18.1 18.1-18.1 47.7 0 65.8 9.1 9.1 21 13.6 32.9 13.6zm-8.9-55.4c2.4-2.4 5.7-3.7 8.9-3.7s6.4 1.2 8.9 3.7c4.9 4.9 4.9 12.8 0 17.7-4.9 4.9-12.8 4.9-17.7 0-4.9-4.8-4.9-12.8-.1-17.7z"/></svg>