<svg xmlns="http://www.w3.org/2000/svg" xmlns:xlink="http://www.w3.org/1999/xlink" width="68px" height="68px">
    <path fill-rule="evenodd" fill="rgb(74, 99, 239)" d="M33.703,0.000 C52.317,0.000 67.406,15.089 67.406,33.703 C67.406,52.317 52.317,67.406 33.703,67.406 C15.089,67.406 -0.000,52.317 -0.000,33.703 C-0.000,15.089 15.089,0.000 33.703,0.000 Z" />
    <path fill-rule="evenodd" fill="rgb(250, 250, 250)" d="M24.441,46.473 L30.711,46.473 L30.711,37.838 L33.650,37.838 L38.200,46.473 L45.187,46.473 L40.206,37.516 C39.597,36.441 39.239,35.975 39.239,35.975 L39.239,35.903 C41.783,34.613 43.073,31.640 43.073,28.916 C43.073,25.190 41.246,22.574 38.343,21.464 C37.233,21.034 35.978,20.855 33.363,20.855 L24.441,20.855 L24.441,46.473 ZM30.711,32.464 L30.711,26.229 L32.825,26.229 C35.978,26.229 36.695,27.376 36.695,29.311 C36.695,31.353 35.441,32.464 33.435,32.464 L30.711,32.464 Z" />
</svg>
