<svg
 xmlns="http://www.w3.org/2000/svg"
 xmlns:xlink="http://www.w3.org/1999/xlink"
 width="71px" height="71px">
<path fill-rule="evenodd"  fill="rgb(251, 189, 19)"
 d="M35.500,-0.000 C55.106,-0.000 71.000,15.894 71.000,35.500 C71.000,55.106 55.106,71.000 35.500,71.000 C15.894,71.000 0.000,55.106 0.000,35.500 C0.000,15.894 15.894,-0.000 35.500,-0.000 Z"/>
<path fill-rule="evenodd"  fill="rgb(250, 250, 250)"
 d="M27.546,46.703 L35.166,46.703 C41.917,46.703 46.238,42.683 46.238,35.932 C46.238,29.181 41.917,25.250 35.166,25.250 L27.546,25.250 L27.546,46.703 ZM32.796,42.202 L32.796,29.751 L34.956,29.751 C38.497,29.751 40.807,31.851 40.807,35.932 C40.807,40.042 38.587,42.202 34.956,42.202 L32.796,42.202 Z"/>
</svg>
