<svg
 xmlns="http://www.w3.org/2000/svg"
 xmlns:xlink="http://www.w3.org/1999/xlink"
 width="296px" height="296px">
<path fill-rule="evenodd"  fill="rgb(251, 189, 19)"
 d="M148.000,0.000 C229.738,0.000 296.000,66.262 296.000,148.000 C296.000,229.738 229.738,296.000 148.000,296.000 C66.262,296.000 0.000,229.738 0.000,148.000 C0.000,66.262 66.262,0.000 148.000,0.000 Z"/>
<path fill-rule="evenodd"  fill="rgb(250, 250, 250)"
 d="M170.429,194.501 L193.048,194.501 L162.512,104.650 L139.389,104.650 L108.852,194.501 L131.472,194.501 L136.876,175.651 L164.899,175.651 L170.429,194.501 ZM151.076,125.133 C151.076,125.133 153.087,134.935 154.720,140.590 L159.747,158.058 L142.028,158.058 L147.180,140.590 C148.814,134.935 150.825,125.133 150.825,125.133 L151.076,125.133 Z"/>
</svg>
