<svg
 xmlns="http://www.w3.org/2000/svg"
 xmlns:xlink="http://www.w3.org/1999/xlink"
 width="296px" height="296px">
<path fill-rule="evenodd"  fill="rgb(251, 189, 19)"
 d="M148.000,0.000 C229.738,0.000 296.000,66.262 296.000,148.000 C296.000,229.738 229.738,296.000 148.000,296.000 C66.262,296.000 0.000,229.738 0.000,148.000 C0.000,66.262 66.262,0.000 148.000,0.000 Z"/>
<path fill-rule="evenodd"  fill="rgb(250, 250, 250)"
 d="M120.099,194.501 L153.149,194.501 C170.994,194.501 187.330,187.338 187.330,167.734 C187.330,159.817 183.560,150.643 173.255,147.502 L173.255,147.250 C180.041,143.355 183.686,135.689 183.686,128.149 C183.686,112.692 171.119,104.650 153.149,104.650 L120.099,104.650 L120.099,194.501 ZM142.090,139.459 L142.090,123.499 L153.023,123.499 C158.930,123.499 161.317,127.018 161.317,131.165 C161.317,135.438 158.930,139.459 153.400,139.459 L142.090,139.459 ZM142.090,175.651 L142.090,157.052 L155.411,157.052 C161.820,157.052 164.836,161.199 164.836,166.226 C164.836,171.252 161.694,175.651 155.285,175.651 L142.090,175.651 Z"/>
</svg>
