<svg
 xmlns="http://www.w3.org/2000/svg"
 xmlns:xlink="http://www.w3.org/1999/xlink"
 width="296px" height="296px">
<path fill-rule="evenodd"  fill="rgb(251, 189, 19)"
 d="M148.000,0.000 C229.738,0.000 296.000,66.262 296.000,148.000 C296.000,229.738 229.738,296.000 148.000,296.000 C66.262,296.000 0.000,229.738 0.000,148.000 C0.000,66.262 66.262,0.000 148.000,0.000 Z"/>
<path fill-rule="evenodd"  fill="rgb(250, 250, 250)"
 d="M108.110,149.387 C108.110,176.028 127.085,196.009 155.234,196.009 C178.734,196.009 191.426,180.929 191.426,180.929 L180.116,164.843 C180.116,164.843 169.811,175.902 156.240,175.902 C139.652,175.902 130.855,162.204 130.855,148.884 C130.855,135.940 139.023,123.248 156.240,123.248 C168.681,123.248 178.734,132.422 178.734,132.422 L188.913,115.834 C188.913,115.834 177.477,103.142 155.234,103.142 C128.216,103.142 108.110,123.248 108.110,149.387 Z"/>
</svg>
