<svg xmlns="http://www.w3.org/2000/svg" xmlns:xlink="http://www.w3.org/1999/xlink" version="1.1" id="Layer_1" x="0px" y="0px" viewBox="0 0 48 48" width="48px" height="48px" style="enable-background:new 0 0 48 48;" xml:space="preserve">
    <g>
        <rect x="3" y="6" style="fill:#546E7A;" width="3" height="36"></rect>
        <rect x="42" y="6" style="fill:#546E7A;" width="2" height="36"></rect>
        <rect x="8" y="6" style="fill:#546E7A;" width="3" height="23"></rect>
        <rect x="13" y="6" style="fill:#546E7A;" width="2" height="23"></rect>
        <rect x="17" y="6" style="fill:#546E7A;" width="2" height="23"></rect>
        <rect x="22" y="6" style="fill:#546E7A;" width="3" height="23"></rect>
        <rect x="28" y="6" style="fill:#546E7A;" width="2" height="23"></rect>
        <rect x="32" y="6" style="fill:#546E7A;" width="2" height="23"></rect>
        <rect x="36" y="6" style="fill:#546E7A;" width="4" height="23"></rect>
        <g>
            <path style="fill:#546E7A;" d="M8.01,39.995v-7.258h2.057c0.758,0,1.334,0.168,1.727,0.506c0.394,0.337,0.591,0.831,0.591,1.482    c0,0.369-0.081,0.686-0.244,0.952s-0.385,0.46-0.668,0.583c0.325,0.093,0.576,0.28,0.753,0.561    c0.176,0.281,0.264,0.626,0.264,1.039c0,0.704-0.194,1.236-0.58,1.595c-0.387,0.358-0.948,0.537-1.682,0.537H8.01V39.995z     M9.469,35.773h0.584c0.575,0,0.863-0.298,0.863-0.893c0-0.329-0.066-0.564-0.199-0.708s-0.349-0.214-0.648-0.214h-0.6V35.773z     M9.469,36.84v1.939h0.758c0.263,0,0.462-0.081,0.598-0.244s0.204-0.394,0.204-0.693c0-0.652-0.236-0.986-0.708-1.002H9.469z"></path>
        </g>
        <path style="fill:#546E7A;" d="M18.105,36.986c0,0.95-0.225,1.687-0.674,2.212c-0.448,0.526-1.071,0.788-1.869,0.788   c-0.795,0-1.418-0.26-1.872-0.78c-0.454-0.521-0.684-1.248-0.691-2.185V35.81c0-0.972,0.225-1.73,0.675-2.277   c0.451-0.546,1.076-0.819,1.877-0.819c0.788,0,1.409,0.267,1.862,0.805c0.454,0.535,0.683,1.289,0.69,2.258L18.105,36.986   L18.105,36.986z M16.671,35.799c0-0.637-0.09-1.112-0.272-1.424c-0.182-0.311-0.464-0.466-0.846-0.466   c-0.379,0-0.659,0.149-0.84,0.448c-0.182,0.3-0.276,0.756-0.283,1.369v1.259c0,0.619,0.092,1.075,0.277,1.368s0.47,0.44,0.856,0.44   c0.372,0,0.65-0.142,0.831-0.432c0.182-0.285,0.275-0.731,0.278-1.333L16.671,35.799L16.671,35.799z"></path>
        <path style="fill:#546E7A;" d="M40,37.005c0,0.95-0.225,1.687-0.674,2.212c-0.448,0.526-1.071,0.788-1.869,0.788   c-0.795,0-1.418-0.26-1.872-0.78c-0.454-0.521-0.684-1.248-0.691-2.185v-1.211c0-0.972,0.225-1.73,0.675-2.277   c0.451-0.546,1.076-0.819,1.877-0.819c0.788,0,1.409,0.267,1.862,0.805c0.454,0.535,0.683,1.289,0.69,2.258L40,37.005L40,37.005z    M38.566,35.819c0-0.637-0.09-1.112-0.272-1.424c-0.182-0.311-0.464-0.466-0.846-0.466c-0.379,0-0.659,0.149-0.84,0.448   c-0.182,0.3-0.276,0.756-0.283,1.369v1.259c0,0.619,0.092,1.075,0.277,1.368s0.47,0.44,0.856,0.44c0.372,0,0.65-0.142,0.831-0.432   c0.182-0.285,0.275-0.731,0.278-1.333L38.566,35.819L38.566,35.819z"></path>
        <path style="fill:#546E7A;" d="M20.465,38.781h2.572v1.216H19V32.74h1.466L20.465,38.781L20.465,38.781z"></path>
        <path style="fill:#546E7A;" d="M27.749,36.857h-2.283v1.924h2.702v1.216H24V32.74h4.157v1.221h-2.691v1.715h2.283V36.857z"></path>
        <path style="fill:#546E7A;" d="M34.265,33.964H32.47V40H31v-6.036h-1.765v-1.222h5.029L34.265,33.964L34.265,33.964z"></path>
    </g>
</svg>