<svg version="1.1" id="Camada_1" xmlns="http://www.w3.org/2000/svg" xmlns:xlink="http://www.w3.org/1999/xlink" x="0px" y="0px"
width="24" height="30" viewBox="0 0 24 30" fill="#fff">
<path d="M19.3,3.6h-1.7V1.9h-1.1v1.7h-9V1.9H6.4v1.7H4.7c-1.6,0-2.8,1.3-2.8,2.8v12.9c0,1.6,1.3,2.8,2.8,2.8h14.6
	c1.6,0,2.8-1.3,2.8-2.8V9.2V8.1V6.4C22.1,4.8,20.9,3.6,19.3,3.6z M21,19.3c0,0.9-0.8,1.7-1.7,1.7H4.7C3.8,21,3,20.2,3,19.3V9.2h18
	V19.3z M21,8.1H3V6.4c0-0.9,0.8-1.7,1.7-1.7h1.7v1.1h1.1V4.7h9v1.1h1.1V4.7h1.7c0.9,0,1.7,0.8,1.7,1.7V8.1z"/>
</svg>