<svg xmlns="http://www.w3.org/2000/svg" viewBox="0 0 100 100"><path d="M40.29573 62.39359c-2.3052-2.4305-3.95212-5.63553-4.43624-9.00453-.65563-1.07104-1.16203-2.5172-1.49304-4.00008-.55994-2.50847-.47746-4.72529.83218-6.18016a3.21073 3.21073 0 0 1-.03316-.04796c-1.38986-2.04974-1.81715-4.0972-1.42656-6.62302.00907-.05884.00907-.05884.01832-.11954.05236-.34802.08228-.5446.11446-.74363.05114-.31631.1015-.59565.15875-.87083.7998-3.84383 3.11318-6.27308 7.56735-6.4081 1.62197-2.72584 4.28165-4.60877 7.25633-4.37698 7.41561.57785 13.0023 3.73194 15.99997 7.90088 1.46803 2.04163 1.76676 4.83688 1.40339 8.11315-.12089 1.08997-.31817 2.17685-.54769 3.09958-.10402.4182-.21192.79022-.3177 1.08963-.04483.12686-.0903.24503-.14082.36055.04.10041.07705.20318.11103.30824.62459 1.9312.1625 4.4093-1.39162 7.73288-.26373 3.8205-2.542 7.71385-5.65799 10.44964a3.13482 3.13482 0 0 1 .01768.07521c-.01114-.05017.26175 1.27885.35851 1.6738.11744.47935.2329.81447.2394.82482.68747 1.09699.5937 2.51124-.23258 3.50787-1.66306 2.00588-6.32562 6.42036-8.38842 6.95206a3 3 0 0 1-1.36362.03128c-2.47348-.5179-7.58687-5.68174-8.95892-7.6506-.56811-.81522-.6957-1.85884-.34074-2.78692.06194-.16196.16454-.58525.26877-1.1463.0516-.27772.10188-.57627.15562-.918.03047-.19378.11616-.75757.1202-.78361.02469-.15929.06077-.31254.10714-.45933zm9.28495 1.39636c5.26833 0 11.41557-6.32677 11.41557-11.90144 3.35351-6.82857.50811-7.02764.50811-7.02764-2.35171-4.2844-3.3708-5.51833-10.7545-5.14483-7.38372.3735-7.96335-1.72672-7.96335-1.72672-3.88732 1.50977-4.66182 6.7929-4.66182 6.7929-2.42284.93841 0 7.1063.62617 7.4914.4841 5.83196 5.5615 11.51633 10.82982 11.51633zm-5.11472-26.30122c1.10937.57996 3.18972.89503 6.48031.72858 7.00545-.35436 8.78836.50726 11.47211 5.28488.20838.08475 2.07797-6.94127 0-9.83117-1.79986-2.50312-6.10494-6.06191-13.79733-6.66132-2.76701-.21562-5.3621 3.20109-5.6459 6.66132-.28378 3.46024 1.23613 3.68456 1.4908 3.8177zm-6.81748 3.9885c.17581-.43355.37702-.8608.60584-1.27567.87183-1.58071 2.04366-2.80182 3.56337-3.49535-.32293-.7809-.44219-1.80974-.33478-3.11903.06163-.75123.21582-1.49126.44709-2.19718-4.57461.02813-4.86162 3.24783-5.22633 5.6063-.2751 1.77898-.01687 3.06264.94481 4.48092zm5.5047 21.83522c-.1213.78257-.372 2.58381-.70714 3.46008.03694.053 5.21119 6.0314 7.11244 6.4295 1.54442-.3981 6.60095-5.68825 6.82774-5.96179-.5089-.81203-.81064-2.65844-.9845-3.44133-1.83936 1.23444-3.86942 1.99104-5.82104 1.99104-2.27094 0-4.51355-.94141-6.4275-2.4775z" fill-rule="nonzero" fill="#000"/></svg>