<svg xmlns="http://www.w3.org/2000/svg" viewBox="0 0 847 847" fill-rule="evenodd" clip-rule="evenodd" shape-rendering="geometricPrecision" text-rendering="geometricPrecision" image-rendering="optimizeQuality"><path d="M622 498c-28 0-52 24-52 52 0 29 24 52 52 52 29 0 52-23 52-52 0-28-23-52-52-52zm93-370c29 0 52-24 52-52 0-29-23-52-52-52-28 0-52 23-52 52 0 28 24 52 52 52zm0-79c15 0 27 12 27 27 0 14-12 26-27 26-14 0-26-12-26-26 0-15 12-27 26-27zM517 367c-28 0-51 24-51 52 0 29 23 52 51 52 29 0 52-23 52-52 0-28-23-52-52-52zm0 79c-14 0-26-12-26-27 0-14 12-26 26-26 15 0 27 12 27 26 0 15-12 27-27 27zM407 126c28 0 52-24 52-52 0-29-24-52-52-52-29 0-52 23-52 52 0 28 23 52 52 52zm0-79c14 0 26 12 26 27 0 14-12 26-26 26-15 0-27-12-27-26 0-15 12-27 27-27zM274 327c-6-6-17-4-20 4L37 807c-5 11 7 22 17 17l474-221c8-4 10-15 4-21L274 327zm-57 146c7 22-4 45-25 54l25-54zm-20 124c25 0 45 20 45 45s-20 45-45 45-45-20-45-45 20-45 45-45zM79 784l-4 2 6-14c-1 4-2 8-2 12zm30-14c10-17 29-26 48-22l-48 22zm225-105c6-28 37-43 63-29l-63 29zm90-42c-46-41-119-6-117 55l-120 55c-32-22-77-12-98 21l41-90c10 29 37 48 67 48 39 0 70-31 70-70s-31-70-70-70c-10 0-19 2-28 5l10-21c55-4 85-67 51-112l12-25 50 49c-38 24-45 78-12 109 32 33 85 26 109-13l51 51-16 8zM311 487l59 59c-13 28-50 36-72 13-23-22-16-59 13-72zm154 117L253 394l16-36 232 229-36 17zm24-411c0 29 24 52 52 52 29 0 52-23 52-52s-23-52-52-52c-28 0-52 23-52 52zm79 0c0 15-12 26-27 26-14 0-26-11-26-26s12-27 26-27c15 0 27 12 27 27zm-248 77c28 0 52-23 52-52 0-28-24-52-52-52-29 0-52 24-52 52 0 29 23 52 52 52zm0-78c14 0 26 12 26 26 0 15-12 27-26 27-15 0-27-12-27-27 0-14 12-26 27-26zm95 19c0 56-45 100-100 100-17 0-17 26 0 26 69 0 125-56 125-126 0-131 200-131 200 0 0 7 6 13 13 13s13-6 13-13c0-165-251-165-251 0zm344 71c28 0 52-24 52-52 0-29-24-52-52-52-29 0-52 23-52 52 0 28 23 52 52 52zm0-79c14 0 26 12 26 27 0 14-12 26-26 26-15 0-27-12-27-26 0-15 12-27 27-27zm-54 208c29 0 52-23 52-52s-23-52-52-52-52 23-52 52 23 52 52 52zm0-78c15 0 26 12 26 26 0 15-11 27-26 27s-26-12-26-27c0-14 11-26 26-26zm64 47c0 96-146 96-146 0 0-130-198-130-198 0 0 17 26 17 26 0 0-97 146-97 146 0 0 130 197 130 197 0 0-17-25-17-25 0zM622 577c-14 0-26-12-26-27 0-14 12-26 26-26 15 0 27 12 27 26 0 15-12 27-27 27z"/></svg>