<svg xmlns="http://www.w3.org/2000/svg" viewBox="0 0 100 100"><path style="text-indent:0;text-transform:none;block-progression:tb" d="M85.3776 16.0502a3.0003 3.0003 0 0 0-2.375 1.5l-29.5 51.09372a3.0003 3.0003 0 0 0-.375 1.6875l.6875 10.8125a3.0003 3.0003 0 0 0 4.3125 2.5l9.7188-4.8125a3.0003 3.0003 0 0 0 1.25-1.1875l29.5-51.09372a3.0003 3.0003 0 0 0-1.0938-4.09375l-10.4062-6a3.0003 3.0003 0 0 0-1.7188-.40625zm1.3438 7.09375l5.1874 3-27.5312 47.71867-4.875 2.4063-.3438-5.375 27.5626-47.74997zM4.0026 77.95642c-1.6568 0-3 1.3431-3 3 0 1.6568 1.3432 3 3 3h44c1.6568 0 3-1.3432 3-3 0-1.6569-1.3432-3-3-3h-44z" overflow="visible" fill="#fff"/></svg>
