<svg 
 xmlns="http://www.w3.org/2000/svg"
 xmlns:xlink="http://www.w3.org/1999/xlink"
 width="750px" height="952px">
<path fill-rule="evenodd"  fill="rgb(251, 189, 19)"
 d="M338.280,0.085 C445.071,-1.334 521.860,13.930 585.800,54.480 C589.426,55.387 593.054,56.293 596.680,57.200 C597.587,59.013 598.493,60.826 599.400,62.639 C601.213,62.639 603.027,62.639 604.840,62.639 C606.653,65.359 608.467,68.079 610.280,70.799 C612.093,70.799 613.907,70.799 615.720,70.799 C617.533,73.518 619.347,76.238 621.160,78.958 C622.973,78.958 624.787,78.958 626.600,78.958 C629.320,82.584 632.040,86.211 634.760,89.837 C636.573,89.837 638.387,89.837 640.200,89.837 C645.639,96.182 651.081,102.530 656.520,108.875 C659.240,110.688 661.960,112.502 664.680,114.315 C664.680,116.128 664.680,117.941 664.680,119.754 C669.213,123.380 673.747,127.007 678.280,130.633 C678.280,132.446 678.280,134.260 678.280,136.073 C681.000,137.886 683.720,139.699 686.440,141.512 C686.440,143.325 686.440,145.139 686.440,146.952 C688.253,147.858 690.067,148.765 691.880,149.672 C691.880,151.485 691.880,153.298 691.880,155.111 C693.693,156.018 695.507,156.924 697.320,157.831 C698.227,161.457 699.133,165.084 700.040,168.710 C701.853,169.616 703.667,170.523 705.480,171.430 C706.387,175.056 707.293,178.683 708.200,182.309 C709.107,182.309 710.013,182.309 710.920,182.309 C712.733,187.748 714.547,193.188 716.360,198.627 C717.267,198.627 718.173,198.627 719.080,198.627 C719.080,201.347 719.080,204.067 719.080,206.787 C719.987,206.787 720.893,206.787 721.800,206.787 C721.800,208.600 721.800,210.413 721.800,212.226 C722.707,212.226 723.613,212.226 724.520,212.226 C725.427,216.759 726.333,221.292 727.240,225.825 C728.147,225.825 729.053,225.825 729.960,225.825 C729.960,229.451 729.960,233.078 729.960,236.704 C751.075,296.290 757.161,386.793 735.400,451.565 C734.493,458.817 733.587,466.071 732.680,473.323 C731.773,473.323 730.867,473.323 729.960,473.323 C729.053,478.762 728.147,484.202 727.240,489.641 C726.333,489.641 725.427,489.641 724.520,489.641 C724.520,491.454 724.520,493.268 724.520,495.081 C723.613,495.081 722.707,495.081 721.800,495.081 C720.893,500.520 719.987,505.960 719.080,511.399 C718.173,511.399 717.267,511.399 716.360,511.399 C715.453,515.025 714.547,518.652 713.640,522.278 C712.733,522.278 711.827,522.278 710.920,522.278 C710.920,524.091 710.920,525.905 710.920,527.718 C710.013,527.718 709.107,527.718 708.200,527.718 C708.200,530.437 708.200,533.158 708.200,535.877 C707.293,535.877 706.387,535.877 705.480,535.877 C705.480,537.690 705.480,539.504 705.480,541.317 C704.573,541.317 703.667,541.317 702.760,541.317 C702.760,543.130 702.760,544.943 702.760,546.756 C700.947,547.663 699.133,548.569 697.320,549.476 C697.320,551.289 697.320,553.102 697.320,554.915 C696.413,554.915 695.507,554.915 694.600,554.915 C694.600,556.728 694.600,558.542 694.600,560.355 C693.693,560.355 692.787,560.355 691.880,560.355 C691.880,562.168 691.880,563.981 691.880,565.794 C690.973,565.794 690.067,565.794 689.160,565.794 C689.160,567.607 689.160,569.421 689.160,571.234 C688.253,571.234 687.347,571.234 686.440,571.234 C685.533,573.953 684.627,576.674 683.720,579.393 C681.907,580.300 680.093,581.207 678.280,582.113 C677.373,585.739 676.467,589.366 675.560,592.992 C673.747,593.899 671.933,594.805 670.120,595.712 C670.120,597.525 670.120,599.338 670.120,601.151 C667.400,602.964 664.680,604.778 661.960,606.591 C661.960,608.404 661.960,610.217 661.960,612.030 C659.240,613.843 656.520,615.657 653.800,617.470 C653.800,619.283 653.800,621.096 653.800,622.909 C651.080,624.722 648.360,626.536 645.640,628.349 C645.640,630.162 645.640,631.975 645.640,633.788 C641.107,637.414 636.573,641.041 632.040,644.667 C632.040,646.480 632.040,648.294 632.040,650.107 C616.628,664.611 601.212,679.119 585.800,693.623 C581.267,699.062 576.733,704.503 572.200,709.942 C570.387,709.942 568.573,709.942 566.760,709.942 C562.227,715.381 557.693,720.821 553.160,726.260 C551.347,726.260 549.533,726.260 547.720,726.260 C545.907,728.980 544.093,731.700 542.280,734.419 C540.467,734.419 538.653,734.419 536.840,734.419 C535.027,737.139 533.213,739.859 531.400,742.579 C529.587,742.579 527.773,742.579 525.960,742.579 C524.147,745.298 522.333,748.018 520.520,750.738 C518.707,750.738 516.893,750.738 515.080,750.738 C514.173,752.551 513.267,754.364 512.360,756.177 C510.547,756.177 508.733,756.177 506.920,756.177 C506.013,757.990 505.107,759.804 504.200,761.617 C502.387,761.617 500.573,761.617 498.760,761.617 C497.853,763.430 496.947,765.244 496.040,767.057 C492.414,767.963 488.786,768.870 485.160,769.776 C484.253,771.589 483.347,773.403 482.440,775.216 C469.748,781.561 457.052,787.909 444.360,794.254 C445.920,799.720 444.034,796.607 447.080,799.694 C447.987,802.413 448.893,805.133 449.800,807.853 C450.707,807.853 451.613,807.853 452.520,807.853 C452.520,809.666 452.520,811.479 452.520,813.292 C453.427,813.292 454.333,813.292 455.240,813.292 C455.240,815.105 455.240,816.919 455.240,818.732 C457.053,819.638 458.867,820.545 460.680,821.452 C460.680,823.265 460.680,825.078 460.680,826.891 C461.587,826.891 462.493,826.891 463.400,826.891 C463.400,828.704 463.400,830.518 463.400,832.331 C465.213,833.237 467.027,834.144 468.840,835.050 C469.747,838.676 470.653,842.303 471.560,845.929 C473.373,846.836 475.187,847.743 477.000,848.649 C477.907,852.275 478.813,855.902 479.720,859.528 C481.533,860.435 483.347,861.342 485.160,862.248 C486.067,865.874 486.973,869.501 487.880,873.127 C489.693,874.034 491.507,874.940 493.320,875.847 C494.227,879.473 495.133,883.100 496.040,886.726 C497.853,887.632 499.667,888.539 501.480,889.446 C501.480,891.259 501.480,893.072 501.480,894.885 C502.387,894.885 503.293,894.885 504.200,894.885 C504.200,896.698 504.200,898.512 504.200,900.325 C505.107,900.325 506.013,900.325 506.920,900.325 C509.785,905.946 513.062,924.439 509.640,930.242 C508.733,930.242 507.827,930.242 506.920,930.242 C503.507,946.573 496.093,942.725 487.880,952.000 C412.634,952.000 337.366,952.000 262.120,952.000 C262.120,951.094 262.120,950.187 262.120,949.280 C258.494,948.374 254.866,947.467 251.240,946.560 C248.779,941.731 244.489,933.721 240.360,930.242 C240.360,926.616 240.360,922.989 240.360,919.363 C239.453,919.363 238.547,919.363 237.640,919.363 C237.640,918.456 237.640,917.550 237.640,916.643 C238.547,916.643 239.453,916.643 240.360,916.643 C240.360,913.017 240.360,909.390 240.360,905.764 C241.267,905.764 242.173,905.764 243.080,905.764 C243.987,902.138 244.893,898.511 245.800,894.885 C246.707,894.885 247.613,894.885 248.520,894.885 C248.520,893.072 248.520,891.259 248.520,889.446 C250.333,888.539 252.147,887.632 253.960,886.726 C254.867,883.100 255.773,879.473 256.680,875.847 C258.493,874.940 260.307,874.034 262.120,873.127 C263.027,869.501 263.933,865.874 264.840,862.248 C266.653,861.342 268.467,860.435 270.280,859.528 C271.187,855.902 272.093,852.275 273.000,848.649 C274.813,847.743 276.627,846.836 278.440,845.929 C279.347,842.303 280.253,838.676 281.160,835.050 C282.973,834.144 284.787,833.237 286.600,832.331 C287.507,828.705 288.413,825.078 289.320,821.452 C291.133,820.545 292.947,819.638 294.760,818.732 C294.760,816.919 294.760,815.105 294.760,813.292 C298.687,806.506 303.400,803.829 305.640,794.254 C292.948,787.909 280.252,781.561 267.560,775.216 C266.653,773.403 265.747,771.589 264.840,769.776 C261.214,768.870 257.586,767.963 253.960,767.057 C253.053,765.244 252.147,763.430 251.240,761.617 C249.427,761.617 247.613,761.617 245.800,761.617 C244.893,759.804 243.987,757.990 243.080,756.177 C241.267,756.177 239.453,756.177 237.640,756.177 C236.733,754.364 235.827,752.551 234.920,750.738 C233.107,750.738 231.293,750.738 229.480,750.738 C227.667,748.018 225.853,745.298 224.040,742.579 C222.227,742.579 220.413,742.579 218.600,742.579 C217.693,740.766 216.787,738.952 215.880,737.139 C213.160,736.233 210.440,735.326 207.720,734.419 C205.907,731.700 204.093,728.980 202.280,726.260 C200.467,726.260 198.653,726.260 196.840,726.260 C192.307,720.821 187.773,715.381 183.240,709.942 C181.427,709.942 179.613,709.942 177.800,709.942 C173.267,704.503 168.733,699.062 164.200,693.623 C148.788,679.119 133.372,664.611 117.960,650.107 C117.960,648.294 117.960,646.480 117.960,644.667 C113.427,641.041 108.893,637.414 104.360,633.788 C104.360,631.975 104.360,630.162 104.360,628.349 C101.640,626.536 98.920,624.722 96.200,622.909 C96.200,621.096 96.200,619.283 96.200,617.470 C93.480,615.657 90.760,613.843 88.040,612.030 C88.040,610.217 88.040,608.404 88.040,606.591 C85.320,604.778 82.600,602.964 79.880,601.151 C79.880,599.338 79.880,597.525 79.880,595.712 C78.067,594.805 76.253,593.899 74.440,592.992 C73.533,589.366 72.627,585.739 71.720,582.113 C69.907,581.207 68.093,580.300 66.280,579.393 C65.373,576.674 64.467,573.953 63.560,571.234 C62.653,571.234 61.747,571.234 60.840,571.234 C60.840,569.421 60.840,567.607 60.840,565.794 C59.933,565.794 59.027,565.794 58.120,565.794 C58.120,563.981 58.120,562.168 58.120,560.355 C57.213,560.355 56.307,560.355 55.400,560.355 C55.400,558.542 55.400,556.728 55.400,554.915 C54.493,554.915 53.587,554.915 52.680,554.915 C52.680,553.102 52.680,551.289 52.680,549.476 C50.867,548.569 49.053,547.663 47.240,546.756 C47.240,544.943 47.240,543.130 47.240,541.317 C46.333,541.317 45.427,541.317 44.520,541.317 C44.520,539.504 44.520,537.690 44.520,535.877 C43.613,535.877 42.707,535.877 41.800,535.877 C41.800,533.158 41.800,530.437 41.800,527.718 C40.893,527.718 39.987,527.718 39.080,527.718 C39.080,525.905 39.080,524.091 39.080,522.278 C38.173,522.278 37.267,522.278 36.360,522.278 C35.453,518.652 34.547,515.025 33.640,511.399 C32.733,511.399 31.827,511.399 30.920,511.399 C30.013,505.960 29.107,500.520 28.200,495.081 C27.293,495.081 26.387,495.081 25.480,495.081 C25.480,493.268 25.480,491.454 25.480,489.641 C24.573,489.641 23.667,489.641 22.760,489.641 C21.853,484.202 20.947,478.762 20.040,473.323 C19.133,473.323 18.227,473.323 17.320,473.323 C16.413,466.071 15.507,458.817 14.600,451.565 C-7.009,386.819 -1.238,296.260 20.040,236.704 C20.040,233.078 20.040,229.451 20.040,225.825 C20.947,225.825 21.853,225.825 22.760,225.825 C22.760,224.012 22.760,222.198 22.760,220.385 C23.667,220.385 24.573,220.385 25.480,220.385 C25.480,217.666 25.480,214.946 25.480,212.226 C26.387,212.226 27.293,212.226 28.200,212.226 C28.200,210.413 28.200,208.600 28.200,206.787 C29.107,206.787 30.013,206.787 30.920,206.787 C30.920,204.067 30.920,201.347 30.920,198.627 C31.827,198.627 32.733,198.627 33.640,198.627 C35.453,193.188 37.267,187.748 39.080,182.309 C39.987,182.309 40.893,182.309 41.800,182.309 C42.707,178.683 43.613,175.056 44.520,171.430 C46.333,170.523 48.147,169.616 49.960,168.710 C50.867,165.084 51.773,161.457 52.680,157.831 C53.587,157.831 54.493,157.831 55.400,157.831 C56.307,155.111 57.213,152.391 58.120,149.672 C59.933,148.765 61.747,147.858 63.560,146.952 C63.560,145.139 63.560,143.325 63.560,141.512 C66.280,139.699 69.000,137.886 71.720,136.073 C71.720,134.260 71.720,132.446 71.720,130.633 C76.253,127.007 80.787,123.380 85.320,119.754 C85.320,117.941 85.320,116.128 85.320,114.315 C91.666,108.876 98.014,103.435 104.360,97.996 C106.173,95.277 107.987,92.556 109.800,89.837 C111.613,89.837 113.427,89.837 115.240,89.837 C117.960,86.211 120.680,82.584 123.400,78.958 C125.213,78.958 127.027,78.958 128.840,78.958 C130.653,76.238 132.467,73.518 134.280,70.799 C136.093,70.799 137.907,70.799 139.720,70.799 C141.533,68.079 143.347,65.359 145.160,62.639 C146.973,62.639 148.787,62.639 150.600,62.639 C151.507,60.826 152.413,59.013 153.320,57.200 C156.946,56.293 160.574,55.387 164.200,54.480 C165.107,52.667 166.013,50.854 166.920,49.041 C170.546,48.134 174.174,47.227 177.800,46.321 C177.800,45.414 177.800,44.508 177.800,43.601 C183.239,41.788 188.681,39.975 194.120,38.162 C194.120,37.255 194.120,36.348 194.120,35.442 C198.653,34.535 203.187,33.629 207.720,32.722 C207.720,31.816 207.720,30.909 207.720,30.002 C209.533,30.002 211.347,30.002 213.160,30.002 C213.160,29.096 213.160,28.189 213.160,27.283 C215.880,27.283 218.600,27.283 221.320,27.283 C221.320,26.376 221.320,25.469 221.320,24.563 C224.040,24.563 226.760,24.563 229.480,24.563 C229.480,23.656 229.480,22.750 229.480,21.843 C232.200,21.843 234.920,21.843 237.640,21.843 C237.640,20.937 237.640,20.030 237.640,19.123 C240.360,19.123 243.080,19.123 245.800,19.123 C245.800,18.217 245.800,17.310 245.800,16.404 C249.426,16.404 253.054,16.404 256.680,16.404 C256.680,15.497 256.680,14.590 256.680,13.684 C260.306,13.684 263.934,13.684 267.560,13.684 C267.560,12.777 267.560,11.871 267.560,10.964 C271.186,10.964 274.814,10.964 278.440,10.964 C278.440,10.058 278.440,9.151 278.440,8.244 C282.973,8.244 287.507,8.244 292.040,8.244 C292.040,7.338 292.040,6.431 292.040,5.525 C298.386,5.525 304.734,5.525 311.080,5.525 C311.080,4.618 311.080,3.711 311.080,2.805 C320.672,0.080 332.118,5.447 338.280,0.085 ZM194.120,206.787 C189.454,212.126 187.565,209.136 183.240,212.226 C182.333,214.039 181.427,215.853 180.520,217.666 C179.613,217.666 178.707,217.666 177.800,217.666 C177.800,219.479 177.800,221.292 177.800,223.105 C175.987,224.012 174.173,224.918 172.360,225.825 C171.453,228.544 170.547,231.265 169.640,233.984 C168.733,233.984 167.827,233.984 166.920,233.984 C166.013,237.610 165.107,241.237 164.200,244.863 C162.387,245.770 160.573,246.676 158.760,247.583 C158.760,250.302 158.760,253.023 158.760,255.742 C157.853,255.742 156.947,255.742 156.040,255.742 C155.133,259.368 154.227,262.995 153.320,266.621 C152.413,266.621 151.507,266.621 150.600,266.621 C150.600,269.341 150.600,272.061 150.600,274.780 C141.270,298.243 130.431,348.311 139.720,380.851 C139.720,387.196 139.720,393.544 139.720,399.889 C140.627,399.889 141.533,399.889 142.440,399.889 C142.440,404.422 142.440,408.956 142.440,413.488 C143.347,413.488 144.253,413.488 145.160,413.488 C145.160,417.114 145.160,420.741 145.160,424.367 C146.067,424.367 146.973,424.367 147.880,424.367 C147.880,427.993 147.880,431.620 147.880,435.246 C150.984,443.908 156.594,451.689 158.760,462.444 C161.480,464.257 164.200,466.070 166.920,467.883 C166.920,468.790 166.920,469.696 166.920,470.603 C174.758,475.724 183.942,476.031 196.840,476.042 C202.804,469.300 211.011,468.052 215.880,459.724 C219.324,456.239 224.233,441.813 221.320,432.526 C220.413,432.526 219.507,432.526 218.600,432.526 C218.600,429.807 218.600,427.087 218.600,424.367 C217.693,424.367 216.787,424.367 215.880,424.367 C215.880,421.648 215.880,418.927 215.880,416.208 C214.973,416.208 214.067,416.208 213.160,416.208 C208.687,403.600 199.699,348.041 205.000,329.176 C205.907,329.176 206.813,329.176 207.720,329.176 C207.720,323.737 207.720,318.296 207.720,312.857 C208.627,312.857 209.533,312.857 210.440,312.857 C210.440,309.231 210.440,305.604 210.440,301.978 C211.347,301.978 212.253,301.978 213.160,301.978 C213.160,299.259 213.160,296.538 213.160,293.819 C214.067,293.819 214.973,293.819 215.880,293.819 C215.880,291.099 215.880,288.379 215.880,285.659 C216.787,285.659 217.693,285.659 218.600,285.659 C218.600,283.847 218.600,282.033 218.600,280.220 C219.507,280.220 220.413,280.220 221.320,280.220 C221.320,278.407 221.320,276.593 221.320,274.780 C223.133,273.874 224.947,272.967 226.760,272.061 C226.760,270.248 226.760,268.434 226.760,266.621 C228.573,265.715 230.387,264.808 232.200,263.901 C233.107,260.275 234.013,256.648 234.920,253.022 C235.827,253.022 236.733,253.022 237.640,253.022 C241.784,241.480 233.663,218.315 229.480,214.946 C227.667,214.946 225.853,214.946 224.040,214.946 C224.040,214.039 224.040,213.133 224.040,212.226 C220.726,209.605 218.782,210.239 215.880,206.787 C208.627,206.787 201.373,206.787 194.120,206.787 Z"/>
</svg>