<svg 
 xmlns="http://www.w3.org/2000/svg"
 xmlns:xlink="http://www.w3.org/1999/xlink"
 width="1128px" height="990px">
<path fill-rule="evenodd"  fill="#fbbd13"
 d="M683.347,8.208 C689.668,75.574 688.180,160.186 688.180,235.246 C688.180,347.949 688.180,460.686 688.180,573.389 C688.181,644.031 699.008,773.548 678.514,824.580 C659.934,831.406 627.169,829.410 601.183,829.411 C552.856,829.411 504.515,829.411 456.188,829.411 C454.577,826.190 452.965,822.969 451.355,819.749 C439.219,807.387 441.701,781.559 441.688,756.951 C441.688,708.650 441.688,660.335 441.688,612.033 C441.688,491.280 441.688,370.491 441.688,249.738 C441.688,169.985 439.712,80.217 446.521,8.208 C506.171,-2.760 623.684,-2.680 683.347,8.208 ZM1002.337,206.263 C1013.436,268.567 1007.170,353.169 1007.170,423.640 C1007.170,555.663 1007.170,687.726 1007.170,819.749 C1002.338,821.359 997.504,822.970 992.671,824.580 C982.852,833.373 952.508,829.407 934.673,829.411 C880.974,829.422 816.191,833.307 770.345,824.580 C759.246,762.276 765.511,677.673 765.511,607.203 C765.511,476.789 765.511,346.337 765.511,215.924 C804.116,196.018 942.190,205.948 1002.337,206.263 ZM127.531,447.793 C204.855,447.793 282.201,447.793 359.524,447.793 C369.228,501.118 364.357,574.870 364.357,636.186 C364.357,697.519 369.183,771.233 359.524,824.580 C300.948,835.357 186.121,835.277 127.531,824.580 C116.781,795.216 122.698,741.528 122.698,703.815 C122.698,621.703 122.698,539.566 122.698,457.454 C128.201,451.951 124.624,457.437 127.531,447.793 ZM1118.334,979.159 C1115.112,979.159 1111.889,979.159 1108.667,979.159 C1107.056,982.379 1105.445,985.600 1103.834,988.820 C971.740,988.820 839.607,988.820 707.513,988.820 C557.700,988.820 407.841,988.820 258.027,988.820 C177.432,988.821 76.538,995.008 11.535,979.159 C11.535,975.939 11.535,972.718 11.535,969.498 C8.313,967.888 5.090,966.277 1.869,964.667 C-3.736,950.936 4.980,935.168 6.702,926.023 C11.535,922.803 16.369,919.581 21.201,916.361 C34.734,903.079 67.061,906.704 93.699,906.700 C156.524,906.700 219.368,906.700 282.193,906.700 C472.279,906.700 662.423,906.700 852.509,906.700 C924.912,906.700 1061.257,895.344 1113.500,916.361 C1124.089,935.602 1127.851,932.330 1128.000,964.667 C1119.693,970.110 1121.450,967.723 1118.334,979.159 Z"/>
</svg>