<svg xmlns="http://www.w3.org/2000/svg" width="23.46933" height="23.47067">
  <defs>
    <linearGradient id="b" x1="0%" y1="0%" y2="50%">
      <stop offset="0%" stop-color="#00a8e5"/>
      <stop offset="100%" stop-color="#00dbc5"/>
    </linearGradient>
  </defs>
  <defs>
    <clipPath id="a">
      <path d="M0 17.603h17.602V0H0z"/>
    </clipPath>
  </defs>
  <g clip-path="url(#a)" transform="matrix(1.33333 0 0 -1.33333 0 23.47067)">
    <path fill="url(#b)" d="M0 0c1.308 0 2.373-1.064 2.373-2.372C2.373-3.68 1.309-4.745 0-4.745c-1.308 0-2.373 1.065-2.373 2.373C-2.373-1.064-1.308 0 0 0m0-5.587c1.772 0 3.214 1.442 3.214 3.215C3.214-.6 1.772.842 0 .842S-3.214-.6-3.214-2.372c0-1.773 1.442-3.215 3.214-3.215" transform="translate(8.801 11.174)"/>
    <path fill="url(#b)" d="M0 0h1.113c.043 0 .084.008.124.021.007.002.014.004.02.006.038.014.073.033.105.056.006.004.01.009.016.013.032.026.062.056.085.091.001.001.001.002.002.003.024.036.04.076.052.118.001.003.003.006.004.009.157.623.404 1.22.735 1.774.01.017.017.035.025.053.001.004.003.007.004.01.019.048.028.098.029.148v.011c0 .05-.01.099-.028.145-.002.005-.003.009-.005.014-.02.047-.048.09-.085.127-.002.002-.002.005-.004.007l-.787.794 1.849 1.842.787-.787c.001-.001.002-.001.002-.002.036-.036.079-.062.124-.082.01-.004.019-.008.029-.012.046-.016.094-.027.143-.027.048 0 .095.011.142.028.011.004.021.008.031.013.014.007.029.01.042.018.554.331 1.151.578 1.774.735.01.002.018.007.027.01.015.005.03.009.044.016.012.005.023.012.034.019.012.007.024.014.036.022.011.008.021.017.031.026.01.009.02.017.029.027.009.01.017.02.025.031s.017.021.024.033c.007.011.013.023.019.035.006.012.013.024.018.037.005.013.009.027.012.04.003.012.007.025.01.038.003.016.004.032.005.048.001.009.003.018.003.027l.005 1.118 2.61-.005V5.535c0-.01.002-.019.003-.029.001-.016.002-.031.006-.046.002-.013.005-.026.009-.039.004-.013.007-.026.012-.039.005-.013.012-.026.018-.038.006-.012.011-.023.018-.034.008-.012.016-.023.026-.034.007-.01.015-.021.024-.03.009-.01.02-.019.03-.028.01-.009.02-.018.032-.025.011-.008.023-.015.036-.022.011-.006.022-.013.034-.018.014-.007.029-.011.045-.016.01-.003.017-.007.026-.01.624-.157 1.221-.405 1.775-.736.014-.008.029-.012.043-.018.01-.004.019-.009.028-.012.047-.017.096-.029.144-.029.05 0 .099.012.146.029.008.003.015.006.022.009.048.021.092.048.13.086l.795.787 1.841-1.85-.787-.787c-.003-.003-.003-.006-.006-.009-.035-.037-.063-.079-.083-.124-.002-.006-.004-.011-.006-.017-.017-.045-.027-.092-.027-.141 0-.005 0-.01.001-.015.001-.049.01-.097.028-.144l.006-.012c.007-.017.015-.035.024-.051.331-.554.578-1.151.735-1.773.001-.003.003-.006.005-.009.011-.043.028-.084.052-.12 0 0 0-.001.001-.001.024-.036.054-.066.087-.093.004-.003.008-.007.012-.01.033-.025.069-.044.109-.058.005-.002.01-.003.015-.005.041-.013.083-.022.128-.022l1.118-.006-.005-2.609h-1.113c-.011 0-.021-.002-.032-.003-.014-.001-.028-.002-.042-.004-.014-.003-.028-.007-.042-.011-.012-.004-.025-.007-.035-.011-.014-.005-.027-.012-.04-.018-.011-.006-.023-.011-.034-.018a.66673.66673 0 0 1-.032-.024c-.011-.008-.021-.017-.032-.026-.009-.009-.018-.019-.026-.028-.009-.011-.019-.021-.027-.032s-.015-.024-.022-.036c-.006-.011-.013-.022-.018-.034-.007-.015-.012-.031-.017-.046-.002-.008-.007-.016-.009-.025-.157-.624-.404-1.22-.735-1.774a.48961.48961 0 0 1-.024-.052c-.002-.004-.004-.007-.005-.011-.019-.047-.028-.097-.028-.146 0-.005-.001-.009-.001-.013.001-.049.011-.097.028-.143.002-.005.003-.01.005-.015.02-.046.048-.088.083-.126.002-.002.003-.006.005-.008l.787-.795-1.85-1.844-.787.787c-.002.002-.004.002-.006.004-.038.037-.082.065-.13.086-.002.001-.007.002-.01.004-.047.017-.097.028-.148.029h-.009c-.05-.001-.1-.011-.149-.029-.003-.001-.006-.003-.01-.005-.018-.007-.035-.014-.051-.025a6.6088 6.6088 0 0 0-1.775-.736c-.005-.001-.01-.005-.015-.006-.02-.005-.04-.012-.059-.02-.008-.004-.015-.008-.022-.012-.017-.01-.033-.018-.047-.029-.009-.006-.016-.012-.023-.018a.62988.62988 0 0 1-.038-.035c-.007-.007-.012-.015-.019-.023-.011-.013-.021-.027-.03-.041-.005-.008-.009-.017-.013-.026-.009-.015-.016-.03-.023-.047-.004-.009-.007-.02-.01-.031-.004-.015-.009-.03-.011-.045-.003-.013-.004-.027-.005-.04-.001-.011-.003-.021-.003-.032l-.005-1.118-2.61.006v1.113c0 .01-.002.02-.003.03-.001.015-.002.029-.004.044-.003.015-.007.029-.011.043-.003.012-.006.023-.011.035-.006.015-.013.029-.02.043-.005.01-.01.019-.015.028-.009.014-.019.027-.029.039-.007.008-.013.017-.02.024-.011.012-.024.023-.037.034-.008.007-.015.013-.024.02-.015.011-.03.019-.046.028-.008.004-.015.009-.024.013-.018.009-.038.014-.058.021-.005.002-.01.004-.016.006-.625.157-1.222.405-1.774.736-.016.01-.033.016-.05.023-.005.002-.009.004-.013.006-.046.017-.094.027-.142.028-.006 0-.011.001-.017.001-.048-.001-.094-.012-.139-.027-.007-.002-.013-.004-.019-.007-.045-.02-.086-.047-.123-.081-.003-.003-.007-.004-.01-.007l-.795-.787-1.841 1.845.787.787c.002.002.003.005.005.007.036.038.065.08.085.127.002.004.003.009.005.013.017.047.027.096.027.146v.01c-.001.05-.01.1-.029.148-.001.003-.003.006-.004.009-.008.018-.015.036-.025.053-.331.554-.579 1.151-.736 1.774-.002.008-.006.014-.008.022-.005.017-.011.034-.018.051-.005.01-.01.019-.016.029a.3376.3376 0 0 1-.024.041c-.007.01-.015.018-.023.027-.01.012-.02.023-.031.033-.008.008-.018.015-.027.022a.3732.3732 0 0 1-.038.028c-.009.006-.019.011-.029.016-.014.007-.028.015-.043.021-.011.004-.022.007-.033.01-.015.004-.03.009-.045.012-.013.002-.027.003-.041.004-.01 0-.02.002-.031.002l-1.119.006zm-.847-.005v-2.604c0-.467.38-.847.847-.847h.797c.145-.482.338-.948.577-1.392L.81-5.413c-.16-.159-.249-.372-.249-.598 0-.227.088-.44.248-.599L2.65-8.451c.16-.16.372-.248.599-.248.226 0 .439.088.599.248l.564.564c.443-.239.909-.432 1.392-.577v-.797c0-.467.38-.847.847-.847h2.604c.467 0 .848.38.848.847v.797c.483.145.948.338 1.391.577l.564-.564c.16-.16.373-.248.599-.248.226 0 .439.088.599.248l1.841 1.841c.16.16.249.373.249.599 0 .226-.088.439-.248.598l-.564.565c.239.444.432.91.577 1.392h.797c.467 0 .847.38.847.847v2.604c0 .467-.38.847-.847.847h-.797c-.145.482-.338.948-.577 1.392l.564.564c.16.16.249.373.249.6 0 .226-.089.439-.248.598l-1.841 1.842c-.32.32-.878.32-1.196 0l-.567-.565c-.444.239-.91.432-1.391.577v.798c0 .467-.381.847-.848.847H6.652c-.467 0-.847-.38-.847-.847V5.85c-.482-.145-.948-.338-1.392-.577l-.564.564c-.32.32-.878.32-1.198 0L.811 3.996c-.16-.16-.249-.372-.249-.599 0-.227.088-.44.248-.6l.564-.563C1.134 1.79.941 1.324.797.842H0c-.467 0-.847-.38-.847-.847" transform="translate(.8469 10.1081)"/>
  </g>
</svg>
