<svg
 xmlns="http://www.w3.org/2000/svg"
 xmlns:xlink="http://www.w3.org/1999/xlink"
 width="486px" height="485px">
<defs>
<linearGradient id="PSgrad_0" x1="0%" x2="100%" y1="0%" y2="1.745%">
  <stop offset="0%" stop-color="rgb(0,168,229)" stop-opacity="1" />
  <stop offset="97%" stop-color="rgb(0,220,197)" stop-opacity="1" />
</linearGradient>

</defs>
<path fill="url(#PSgrad_0)" d="M467.775,378.912 L424.833,335.977 C417.826,328.971 406.415,328.971 399.308,335.977 C392.301,342.983 392.301,354.392 399.308,361.498 L442.250,404.433 C452.460,414.642 452.460,431.155 442.250,441.364 C437.345,446.268 430.739,448.970 423.732,448.970 C416.725,448.970 410.219,446.268 405.214,441.364 L322.933,359.096 L372.582,309.455 C379.589,302.449 379.589,291.040 372.582,283.934 C365.575,276.928 354.164,276.928 347.057,283.934 L328.539,302.449 L302.513,276.428 C356.366,209.773 352.362,111.593 290.401,49.742 C258.370,17.716 215.728,0.001 170.284,0.001 C124.939,0.001 82.297,17.616 50.166,49.742 C-15.999,115.896 -15.999,223.685 50.166,289.839 C82.197,321.865 124.839,339.580 170.284,339.580 C209.622,339.580 246.859,326.269 276.988,301.949 L303.014,327.970 L284.496,346.486 C281.092,349.888 279.190,354.492 279.190,359.196 C279.190,363.900 281.092,368.604 284.496,371.906 L379.589,466.985 C392.001,478.894 407.917,484.999 423.832,484.999 C439.748,484.999 455.663,478.894 467.775,466.784 C491.999,442.564 491.999,403.132 467.775,378.912 ZM265.177,264.218 C239.952,289.439 206.319,303.350 170.584,303.350 C134.849,303.350 101.216,289.439 75.991,264.218 C23.840,212.075 23.840,127.206 75.991,75.063 C101.216,49.842 134.849,35.931 170.584,35.931 C206.319,35.931 239.952,49.842 265.177,75.063 C317.328,127.206 317.328,212.075 265.177,264.218 Z"/>
</svg>
