<?xml version="1.0" encoding="utf-8"?>
<!-- Generator: Adobe Illustrator 22.0.0, SVG Export Plug-In . SVG Version: 6.00 Build 0)  -->
<svg version="1.1" id="Camada_1" xmlns="http://www.w3.org/2000/svg" xmlns:xlink="http://www.w3.org/1999/xlink" x="0px" y="0px" viewBox="0 0 100 125" style="enable-background:new 0 0 100 125;" xml:space="preserve" fill-opacity="0.6" fill="#e1e1e1" width="14px" height="14px">
    <path d="M65.1,49.9l26.6-26.6c4.2-4.2,4.2-11,0-15.2l0,0c-4.2-4.2-11-4.2-15.2,0L49.9,34.7L23.4,8.2C19.2,4,12.4,4,8.2,8.2l0,0
	c-4.2,4.2-4.2,11,0,15.2L34.8,50L8.2,76.5c-4.2,4.2-4.2,11,0,15.2s11,4.2,15.2,0L50,65.1l26.6,26.6c4.2,4.2,11,4.2,15.2,0
	s4.2-11,0-15.2L65.1,49.9z" />
</svg>
