<svg
 xmlns="http://www.w3.org/2000/svg"
 xmlns:xlink="http://www.w3.org/1999/xlink"
 width="491px" height="297px">
<path fill-rule="evenodd"  fill="rgb(255, 255, 255)"
 d="M487.196,159.147 C486.195,160.546 461.375,194.135 419.241,227.824 C394.320,247.717 368.400,263.612 342.278,275.108 C309.052,289.603 275.424,297.000 242.198,297.000 C158.330,297.000 78.265,250.916 4.305,159.846 C-0.799,153.448 -0.999,144.451 3.805,137.854 C4.806,136.454 29.626,102.865 71.760,69.177 C96.680,49.283 122.601,33.389 148.722,21.892 C181.949,7.397 215.576,-0.000 248.803,-0.000 C332.671,-0.000 412.635,46.184 486.695,137.154 C491.799,143.552 491.999,152.549 487.196,159.147 ZM248.703,36.088 C184.651,36.088 129.807,69.077 94.979,96.767 C70.159,116.561 51.644,136.454 41.535,148.350 C105.587,223.125 173.042,261.013 242.198,261.013 C306.249,261.013 361.094,228.024 395.922,200.333 C420.742,180.639 439.257,160.646 449.365,148.750 C385.313,73.975 317.859,36.088 248.703,36.088 ZM245.400,232.922 C198.762,232.922 160.932,195.035 160.932,148.550 C160.932,102.066 198.762,64.178 245.400,64.178 C255.308,64.178 263.415,72.276 263.415,82.172 C263.415,92.069 255.308,100.166 245.400,100.166 C218.679,100.166 196.961,121.859 196.961,148.550 C196.961,175.241 218.679,196.934 245.400,196.934 C272.122,196.934 293.839,175.241 293.839,148.550 C293.839,138.653 301.946,130.556 311.854,130.556 C321.762,130.556 329.868,138.653 329.868,148.550 C329.868,195.035 292.038,232.922 245.400,232.922 Z"/>
</svg>
