<svg xmlns="http://www.w3.org/2000/svg" height="133.43333" width="98.850403">
  <defs>
    <clipPath id="a">
      <path d="M0 100.075h74.138V0H0z"/>
    </clipPath>
  </defs>
  <g clip-path="url(#a)" transform="matrix(1.33333 0 0 -1.33333 0 133.43333)">
    <path d="M72.8751 39.1751l-6.1 5.9c-1.7 1.7-4.3 1.7-6.1 0l-10.2-10c-1.7-1.7-4.8-.7-4.8 2v58.7c0 2.2-2 4.3-4.3 4.3h-8.7c-2.4 0-4.3-2.4-4.3-4.3v-58.7c0-2.6-3-3.7-4.8-2l-10.3 10c-1.7 1.7-4.3 1.7-6.1 0l-5.9-5.9c-1.7-1.7-1.7-4.1 0-5.9l32.6-32c1.7-1.7 4.3-1.7 6.1 0l32.8 32c1.8 1.8 1.8 4.2.1 5.9" fill="#ffe473"/>
  </g>
</svg>
