<svg
 xmlns="http://www.w3.org/2000/svg"
 xmlns:xlink="http://www.w3.org/1999/xlink"
 width="978px" height="976px">
<path fill-rule="evenodd"  fill="#fbbd13"
 d="M236.885,0.415 C306.821,-0.897 329.777,38.435 367.360,68.654 C384.449,84.071 401.544,99.493 418.634,114.910 C419.092,114.605 419.550,114.300 420.007,113.994 C421.698,110.460 425.310,108.525 428.248,106.209 C448.679,90.095 480.797,76.286 517.062,87.431 C535.058,92.962 547.448,103.243 559.638,114.452 C559.943,114.452 560.248,114.452 560.553,114.452 C576.575,99.951 592.601,85.445 608.623,70.944 C642.092,44.034 663.033,12.474 713.918,1.789 C736.163,-2.882 762.023,2.327 778.011,8.659 C826.374,27.814 878.284,83.309 857.211,157.960 C853.914,169.639 848.756,180.251 843.019,189.561 C856.599,189.561 870.184,189.561 883.764,189.561 C898.207,189.561 914.765,188.021 927.255,190.935 C953.873,197.145 972.009,216.311 977.156,244.061 C977.309,263.294 977.461,282.533 977.614,301.766 C977.614,327.024 980.726,357.017 969.373,370.922 C957.997,384.854 926.188,380.998 901.160,380.997 C840.431,380.997 779.683,380.997 718.954,380.997 C555.839,380.997 392.675,380.997 229.561,380.997 C181.801,380.997 134.027,380.997 86.268,380.997 C68.214,380.998 35.731,384.496 21.717,379.165 C-7.239,368.150 1.117,320.838 1.116,282.073 C1.116,265.563 -0.214,246.702 3.863,233.985 C20.112,183.298 69.592,189.286 135.253,189.561 C135.253,189.408 135.253,189.256 135.253,189.103 C134.948,188.798 134.642,188.492 134.337,188.187 C129.849,175.431 122.615,164.294 119.230,148.801 C104.734,82.459 153.148,28.338 193.394,10.949 C202.091,8.201 210.791,5.453 219.489,2.705 C225.287,1.942 231.087,1.178 236.885,0.415 ZM393.912,189.561 C393.912,185.745 393.912,181.928 393.912,178.112 C365.226,152.315 336.531,126.510 307.845,100.713 C294.661,90.096 284.689,75.825 268.016,68.654 C230.058,52.329 194.927,78.833 184.696,105.751 C176.874,126.327 184.065,150.655 193.394,163.456 C201.023,173.925 210.711,182.149 224.067,186.813 C238.502,191.854 262.193,189.562 280.835,189.561 C318.524,189.561 356.224,189.561 393.912,189.561 ZM584.817,189.561 C621.285,189.561 657.764,189.561 694.233,189.561 C711.816,189.562 734.605,192.089 749.169,187.729 C764.157,183.243 776.073,175.132 784.420,163.914 C794.426,150.466 801.914,126.319 793.576,104.835 C782.622,76.608 747.120,53.251 709.340,69.570 C688.352,78.636 674.899,98.577 658.066,112.162 C633.652,134.296 609.231,156.436 584.817,178.570 C584.817,182.233 584.817,185.898 584.817,189.561 ZM64.751,444.656 C184.989,444.656 305.263,444.656 425.501,444.656 C425.501,621.572 425.501,798.541 425.501,975.456 C348.292,975.456 271.060,975.456 193.852,975.456 C148.708,975.458 112.038,980.470 86.268,959.885 C56.290,935.939 64.750,871.886 64.751,818.827 C64.751,694.116 64.751,569.367 64.751,444.656 ZM553.229,444.656 C673.467,444.656 793.741,444.656 913.979,444.656 C913.979,569.367 913.979,694.116 913.979,818.827 C913.981,871.872 922.437,935.956 892.462,959.885 C866.677,980.469 830.034,975.458 784.878,975.456 C707.669,975.456 630.437,975.456 553.229,975.456 C553.229,798.541 553.229,621.572 553.229,444.656 Z"/>
</svg>
