<svg 
 xmlns="http://www.w3.org/2000/svg"
 xmlns:xlink="http://www.w3.org/1999/xlink"
 width="241px" height="167px">
<path fill-rule="evenodd"  fill="rgb(170, 171, 177)"
 d="M16.532,0.000 C68.548,0.000 120.580,0.000 172.597,0.000 C184.867,0.000 197.141,0.000 209.412,0.000 C219.852,-0.000 227.356,-0.303 233.422,4.003 C234.222,5.070 235.023,6.138 235.823,7.205 C236.090,7.205 236.356,7.205 236.623,7.205 C236.623,7.739 236.623,8.273 236.623,8.807 C237.157,9.073 237.690,9.340 238.224,9.607 C238.491,10.675 238.757,11.742 239.024,12.810 C239.291,12.810 239.558,12.810 239.825,12.810 C241.877,17.974 240.625,27.121 240.625,33.625 C240.625,53.638 240.625,73.657 240.625,93.670 C240.625,107.279 240.625,120.892 240.625,134.501 C240.625,145.176 241.029,153.109 236.623,159.319 C235.556,160.120 234.489,160.921 233.422,161.721 C233.422,161.988 233.422,162.255 233.422,162.522 C232.888,162.522 232.355,162.522 231.821,162.522 C231.554,163.055 231.288,163.589 231.021,164.123 C229.954,164.390 228.887,164.657 227.820,164.923 C227.820,165.190 227.820,165.457 227.820,165.724 C222.110,167.995 211.732,166.525 204.610,166.525 C180.069,166.525 155.520,166.525 130.979,166.525 C102.437,166.525 73.886,166.525 45.344,166.525 C31.902,166.525 15.631,168.132 7.728,162.522 C6.928,161.454 6.127,160.387 5.327,159.319 C5.060,159.319 4.794,159.319 4.527,159.319 C4.527,158.786 4.527,158.252 4.527,157.718 C3.993,157.451 3.460,157.184 2.926,156.917 C2.659,155.850 2.393,154.782 2.126,153.715 C1.859,153.715 1.592,153.715 1.326,153.715 C1.326,152.648 1.326,151.580 1.326,150.513 C-1.081,143.000 0.525,127.747 0.525,118.489 C0.525,93.939 0.525,69.383 0.525,44.834 C0.525,36.906 -0.970,18.532 1.326,12.810 C1.592,12.810 1.859,12.810 2.126,12.810 C2.126,12.276 2.126,11.742 2.126,11.208 C2.393,11.208 2.659,11.208 2.926,11.208 C2.926,10.675 2.926,10.141 2.926,9.607 C3.460,9.340 3.993,9.073 4.527,8.807 C4.527,8.273 4.527,7.739 4.527,7.205 C5.594,6.405 6.661,5.604 7.728,4.804 C7.728,4.537 7.728,4.270 7.728,4.003 C9.632,2.653 11.840,2.503 13.331,0.801 C14.398,0.801 15.465,0.801 16.532,0.801 C16.532,0.534 16.532,0.267 16.532,0.000 ZM17.332,13.610 C15.833,16.129 14.372,15.882 14.131,20.015 C15.152,20.555 15.212,21.265 15.732,21.616 C16.265,21.616 16.799,21.616 17.332,21.616 C17.866,22.417 18.399,23.217 18.933,24.018 C19.466,24.018 20.000,24.018 20.534,24.018 C20.800,24.552 21.067,25.085 21.334,25.619 C21.867,25.619 22.401,25.619 22.935,25.619 C23.468,26.420 24.002,27.220 24.535,28.021 C25.069,28.021 25.602,28.021 26.136,28.021 C26.136,28.288 26.136,28.555 26.136,28.822 C26.936,29.088 27.737,29.355 28.537,29.622 C28.804,30.156 29.070,30.690 29.337,31.223 C29.871,31.223 30.404,31.223 30.938,31.223 C31.471,32.024 32.005,32.825 32.539,33.625 C33.072,33.625 33.606,33.625 34.139,33.625 C34.139,33.892 34.139,34.159 34.139,34.426 C34.939,34.693 35.740,34.960 36.540,35.226 C36.807,35.760 37.074,36.294 37.340,36.828 C37.874,36.828 38.408,36.828 38.941,36.828 C39.475,37.628 40.008,38.429 40.542,39.229 C41.075,39.229 41.609,39.229 42.142,39.229 C42.409,39.763 42.676,40.297 42.943,40.831 C43.476,40.831 44.010,40.831 44.543,40.831 C45.077,41.631 45.611,42.432 46.144,43.232 C46.678,43.232 47.211,43.232 47.745,43.232 C47.745,43.499 47.745,43.766 47.745,44.033 C48.545,44.300 49.346,44.567 50.146,44.834 C50.413,45.367 50.679,45.901 50.946,46.435 C51.480,46.435 52.013,46.435 52.547,46.435 C53.080,47.235 53.614,48.036 54.147,48.837 C54.681,48.837 55.215,48.837 55.748,48.837 C55.748,49.103 55.748,49.370 55.748,49.637 C56.548,49.904 57.349,50.171 58.149,50.438 C58.416,50.971 58.683,51.505 58.949,52.039 C59.483,52.039 60.017,52.039 60.550,52.039 C61.084,52.839 61.617,53.640 62.151,54.441 C62.684,54.441 63.218,54.441 63.751,54.441 C64.018,54.974 64.285,55.508 64.552,56.042 C65.085,56.042 65.619,56.042 66.152,56.042 C66.686,56.842 67.220,57.643 67.753,58.444 C68.287,58.444 68.820,58.444 69.354,58.444 C69.354,58.711 69.354,58.978 69.354,59.244 C70.154,59.511 70.955,59.778 71.755,60.045 C72.022,60.579 72.288,61.112 72.555,61.646 C73.089,61.646 73.622,61.646 74.156,61.646 C74.689,62.447 75.223,63.247 75.756,64.048 C76.290,64.048 76.824,64.048 77.357,64.048 C77.357,64.315 77.357,64.582 77.357,64.849 C78.157,65.115 78.958,65.382 79.758,65.649 C80.025,66.183 80.292,66.717 80.558,67.250 C81.092,67.250 81.626,67.250 82.159,67.250 C82.693,68.051 83.226,68.852 83.760,69.652 C84.293,69.652 84.827,69.652 85.360,69.652 C85.627,70.186 85.894,70.720 86.161,71.253 C86.694,71.253 87.228,71.253 87.761,71.253 C88.295,72.054 88.829,72.855 89.362,73.655 C89.896,73.655 90.429,73.655 90.963,73.655 C91.229,74.189 91.496,74.723 91.763,75.256 C92.297,75.256 92.830,75.256 93.364,75.256 C93.630,75.790 93.897,76.324 94.164,76.858 C94.698,76.858 95.231,76.858 95.765,76.858 C96.298,77.658 96.832,78.459 97.365,79.259 C97.899,79.259 98.433,79.259 98.966,79.259 C98.966,79.526 98.966,79.793 98.966,80.060 C99.766,80.327 100.567,80.594 101.367,80.861 C101.634,81.394 101.901,81.928 102.167,82.462 C102.701,82.462 103.235,82.462 103.768,82.462 C104.302,83.262 104.835,84.063 105.369,84.864 C105.902,84.864 106.436,84.864 106.969,84.864 C107.236,85.397 107.503,85.931 107.770,86.465 C108.303,86.465 108.837,86.465 109.370,86.465 C109.904,87.265 110.438,88.066 110.971,88.867 C111.505,88.867 112.038,88.867 112.572,88.867 C112.838,89.400 113.105,89.934 113.372,90.468 C113.906,90.468 114.439,90.468 114.973,90.468 C115.239,91.001 115.506,91.535 115.773,92.069 C116.307,92.069 116.840,92.069 117.374,92.069 C117.374,92.336 117.374,92.603 117.374,92.870 C118.957,94.105 119.326,94.238 122.176,94.471 C124.090,91.426 127.241,90.913 130.179,88.867 C130.713,88.066 131.246,87.265 131.780,86.465 C132.313,86.465 132.847,86.465 133.380,86.465 C133.647,85.931 133.914,85.397 134.181,84.864 C134.714,84.864 135.248,84.864 135.781,84.864 C136.315,84.063 136.849,83.262 137.382,82.462 C137.916,82.462 138.449,82.462 138.983,82.462 C138.983,82.195 138.983,81.928 138.983,81.661 C139.783,81.394 140.583,81.127 141.384,80.861 C141.650,80.327 141.917,79.793 142.184,79.259 C142.717,79.259 143.251,79.259 143.785,79.259 C144.318,78.459 144.852,77.658 145.385,76.858 C145.919,76.858 146.452,76.858 146.986,76.858 C146.986,76.591 146.986,76.324 146.986,76.057 C147.786,75.790 148.587,75.523 149.387,75.256 C149.654,74.723 149.921,74.189 150.187,73.655 C150.721,73.655 151.254,73.655 151.788,73.655 C152.321,72.855 152.855,72.054 153.389,71.253 C153.922,71.253 154.456,71.253 154.989,71.253 C155.256,70.720 155.523,70.186 155.790,69.652 C156.323,69.652 156.857,69.652 157.390,69.652 C157.924,68.852 158.457,68.051 158.991,67.250 C159.524,67.250 160.058,67.250 160.592,67.250 C160.592,66.983 160.592,66.717 160.592,66.450 C161.392,66.183 162.192,65.916 162.993,65.649 C163.259,65.115 163.526,64.582 163.793,64.048 C164.326,64.048 164.860,64.048 165.394,64.048 C165.927,63.247 166.461,62.447 166.994,61.646 C167.528,61.646 168.061,61.646 168.595,61.646 C168.595,61.379 168.595,61.112 168.595,60.846 C169.395,60.579 170.196,60.312 170.996,60.045 C171.263,59.511 171.530,58.977 171.796,58.444 C172.330,58.444 172.863,58.444 173.397,58.444 C173.930,57.643 174.464,56.842 174.998,56.042 C175.531,56.042 176.065,56.042 176.598,56.042 C176.865,55.508 177.132,54.974 177.399,54.441 C177.932,54.441 178.466,54.441 178.999,54.441 C179.533,53.640 180.066,52.839 180.600,52.039 C181.133,52.039 181.667,52.039 182.201,52.039 C182.201,51.772 182.201,51.505 182.201,51.238 C183.001,50.972 183.801,50.705 184.602,50.438 C184.868,49.904 185.135,49.370 185.402,48.837 C185.935,48.837 186.469,48.837 187.003,48.837 C187.536,48.036 188.070,47.235 188.603,46.435 C189.137,46.435 189.670,46.435 190.204,46.435 C190.204,46.168 190.204,45.901 190.204,45.634 C191.004,45.367 191.805,45.100 192.605,44.834 C192.872,44.300 193.139,43.766 193.405,43.232 C193.939,43.232 194.472,43.232 195.006,43.232 C195.539,42.432 196.073,41.631 196.607,40.831 C197.140,40.831 197.674,40.831 198.207,40.831 C198.474,40.297 198.741,39.763 199.008,39.229 C199.541,39.229 200.075,39.229 200.608,39.229 C201.142,38.429 201.675,37.628 202.209,36.828 C202.742,36.828 203.276,36.828 203.810,36.828 C203.810,36.561 203.810,36.294 203.810,36.027 C204.610,35.760 205.410,35.493 206.211,35.226 C206.477,34.693 206.744,34.159 207.011,33.625 C207.544,33.625 208.078,33.625 208.612,33.625 C209.145,32.825 209.679,32.024 210.212,31.223 C210.746,31.223 211.279,31.223 211.813,31.223 C211.813,30.957 211.813,30.690 211.813,30.423 C212.613,30.156 213.414,29.889 214.214,29.622 C214.481,29.088 214.747,28.555 215.014,28.021 C215.548,28.021 216.081,28.021 216.615,28.021 C217.148,27.220 217.682,26.420 218.216,25.619 C218.749,25.619 219.283,25.619 219.816,25.619 C220.083,25.085 220.350,24.552 220.617,24.018 C221.150,24.018 221.684,24.018 222.217,24.018 C222.751,23.217 223.284,22.417 223.818,21.616 C226.524,19.648 226.732,21.664 227.019,16.813 C225.952,16.012 224.885,15.211 223.818,14.411 C223.818,14.144 223.818,13.877 223.818,13.610 C204.612,13.610 185.400,13.610 166.194,13.610 C116.578,13.610 66.948,13.610 17.332,13.610 ZM14.131,36.828 C14.131,74.452 14.131,112.088 14.131,149.712 C15.198,150.513 16.265,151.313 17.332,152.114 C17.332,152.381 17.332,152.648 17.332,152.914 C36.538,152.914 55.750,152.914 74.956,152.914 C124.572,152.914 174.202,152.914 223.818,152.914 C224.627,151.465 225.586,150.538 227.019,149.712 C227.019,112.088 227.019,74.452 227.019,36.828 C226.486,36.828 225.952,36.828 225.419,36.828 C223.746,39.520 222.252,39.133 219.816,40.831 C219.283,41.631 218.749,42.432 218.216,43.232 C217.682,43.232 217.148,43.232 216.615,43.232 C216.615,43.499 216.615,43.766 216.615,44.033 C215.815,44.300 215.014,44.567 214.214,44.834 C213.947,45.367 213.680,45.901 213.414,46.435 C212.880,46.435 212.346,46.435 211.813,46.435 C211.279,47.235 210.746,48.036 210.212,48.837 C209.679,48.837 209.145,48.837 208.612,48.837 C208.612,49.103 208.612,49.370 208.612,49.637 C207.811,49.904 207.011,50.171 206.211,50.438 C205.944,50.971 205.677,51.505 205.410,52.039 C204.877,52.039 204.343,52.039 203.810,52.039 C203.276,52.839 202.742,53.640 202.209,54.441 C201.675,54.441 201.142,54.441 200.608,54.441 C200.341,54.974 200.075,55.508 199.808,56.042 C199.274,56.042 198.741,56.042 198.207,56.042 C197.674,56.842 197.140,57.643 196.607,58.444 C196.073,58.444 195.539,58.444 195.006,58.444 C195.006,58.711 195.006,58.978 195.006,59.244 C194.206,59.511 193.405,59.778 192.605,60.045 C192.338,60.579 192.071,61.112 191.805,61.646 C191.271,61.646 190.737,61.646 190.204,61.646 C189.670,62.447 189.137,63.247 188.603,64.048 C188.070,64.048 187.536,64.048 187.003,64.048 C186.736,64.582 186.469,65.115 186.202,65.649 C185.669,65.649 185.135,65.649 184.602,65.649 C184.068,66.450 183.534,67.250 183.001,68.051 C182.467,68.051 181.934,68.051 181.400,68.051 C181.400,68.318 181.400,68.585 181.400,68.852 C180.600,69.118 179.800,69.385 178.999,69.652 C178.733,70.186 178.466,70.720 178.199,71.253 C177.665,71.253 177.132,71.253 176.598,71.253 C176.065,72.054 175.531,72.855 174.998,73.655 C174.464,73.655 173.930,73.655 173.397,73.655 C173.130,74.189 172.863,74.723 172.597,75.256 C172.063,75.256 171.529,75.256 170.996,75.256 C170.462,76.057 169.929,76.858 169.395,77.658 C168.862,77.658 168.328,77.658 167.795,77.658 C167.795,77.925 167.795,78.192 167.795,78.459 C166.994,78.726 166.194,78.992 165.394,79.259 C165.127,79.793 164.860,80.327 164.593,80.861 C164.060,80.861 163.526,80.861 162.993,80.861 C162.459,81.661 161.925,82.462 161.392,83.262 C160.858,83.262 160.325,83.262 159.791,83.262 C159.525,83.796 159.258,84.330 158.991,84.864 C158.457,84.864 157.924,84.864 157.390,84.864 C156.857,85.664 156.323,86.465 155.790,87.265 C155.256,87.265 154.722,87.265 154.189,87.265 C154.189,87.532 154.189,87.799 154.189,88.066 C153.389,88.333 152.588,88.600 151.788,88.867 C151.521,89.400 151.254,89.934 150.988,90.468 C150.454,90.468 149.920,90.468 149.387,90.468 C148.853,91.268 148.320,92.069 147.786,92.870 C147.253,92.870 146.719,92.870 146.186,92.870 C145.919,93.403 145.652,93.937 145.385,94.471 C144.852,94.471 144.318,94.471 143.785,94.471 C143.518,95.004 143.251,95.538 142.984,96.072 C142.451,96.072 141.917,96.072 141.384,96.072 C140.850,96.872 140.317,97.673 139.783,98.474 C139.249,98.474 138.716,98.474 138.182,98.474 C137.916,99.007 137.649,99.541 137.382,100.075 C136.849,100.075 136.315,100.075 135.781,100.075 C135.248,100.875 134.714,101.676 134.181,102.477 C133.647,102.477 133.114,102.477 132.580,102.477 C132.580,102.744 132.580,103.010 132.580,103.277 C131.780,103.544 130.979,103.811 130.179,104.078 C129.912,104.612 129.645,105.145 129.379,105.679 C128.845,105.679 128.312,105.679 127.778,105.679 C127.245,106.480 126.711,107.280 126.177,108.081 C125.644,108.081 125.110,108.081 124.577,108.081 C124.310,108.615 124.043,109.148 123.776,109.682 C121.642,109.682 119.508,109.682 117.374,109.682 C115.934,107.538 113.937,107.145 111.771,105.679 C111.505,105.145 111.238,104.612 110.971,104.078 C110.438,104.078 109.904,104.078 109.370,104.078 C109.104,103.544 108.837,103.010 108.570,102.477 C108.037,102.477 107.503,102.477 106.969,102.477 C106.436,101.676 105.902,100.875 105.369,100.075 C104.835,100.075 104.302,100.075 103.768,100.075 C103.501,99.541 103.234,99.007 102.968,98.474 C102.434,98.474 101.901,98.474 101.367,98.474 C100.834,97.673 100.300,96.872 99.766,96.072 C99.233,96.072 98.699,96.072 98.166,96.072 C98.166,95.805 98.166,95.538 98.166,95.271 C97.365,95.004 96.565,94.738 95.765,94.471 C95.498,93.937 95.231,93.403 94.964,92.870 C94.431,92.870 93.897,92.870 93.364,92.870 C92.830,92.069 92.297,91.268 91.763,90.468 C91.230,90.468 90.696,90.468 90.162,90.468 C89.896,89.934 89.629,89.400 89.362,88.867 C88.829,88.867 88.295,88.867 87.761,88.867 C87.495,88.333 87.228,87.799 86.961,87.265 C86.428,87.265 85.894,87.265 85.360,87.265 C84.827,86.465 84.293,85.664 83.760,84.864 C83.226,84.864 82.693,84.864 82.159,84.864 C81.892,84.330 81.626,83.796 81.359,83.262 C80.825,83.262 80.292,83.262 79.758,83.262 C79.225,82.462 78.691,81.661 78.157,80.861 C77.624,80.861 77.090,80.861 76.557,80.861 C76.557,80.594 76.557,80.327 76.557,80.060 C75.757,79.793 74.956,79.526 74.156,79.259 C73.889,78.726 73.622,78.192 73.355,77.658 C72.822,77.658 72.288,77.658 71.755,77.658 C71.221,76.858 70.688,76.057 70.154,75.256 C69.621,75.256 69.087,75.256 68.553,75.256 C68.287,74.723 68.020,74.189 67.753,73.655 C67.220,73.655 66.686,73.655 66.152,73.655 C65.619,72.855 65.085,72.054 64.552,71.253 C64.018,71.253 63.485,71.253 62.951,71.253 C62.684,70.720 62.418,70.186 62.151,69.652 C61.617,69.652 61.084,69.652 60.550,69.652 C60.283,69.118 60.017,68.585 59.750,68.051 C59.216,68.051 58.683,68.051 58.149,68.051 C57.616,67.250 57.082,66.450 56.548,65.649 C56.015,65.649 55.481,65.649 54.948,65.649 C54.681,65.115 54.414,64.582 54.147,64.048 C53.614,64.048 53.080,64.048 52.547,64.048 C52.013,63.247 51.480,62.447 50.946,61.646 C50.413,61.646 49.879,61.646 49.345,61.646 C49.345,61.379 49.345,61.112 49.345,60.846 C48.545,60.579 47.745,60.312 46.944,60.045 C46.678,59.511 46.411,58.977 46.144,58.444 C45.611,58.444 45.077,58.444 44.543,58.444 C44.010,57.643 43.476,56.842 42.943,56.042 C42.409,56.042 41.876,56.042 41.342,56.042 C41.075,55.508 40.809,54.974 40.542,54.441 C40.008,54.441 39.475,54.441 38.941,54.441 C38.408,53.640 37.874,52.839 37.340,52.039 C36.807,52.039 36.273,52.039 35.740,52.039 C35.740,51.772 35.740,51.505 35.740,51.238 C34.940,50.972 34.139,50.705 33.339,50.438 C33.072,49.904 32.805,49.370 32.539,48.837 C32.005,48.837 31.471,48.837 30.938,48.837 C30.404,48.036 29.871,47.235 29.337,46.435 C28.804,46.435 28.270,46.435 27.737,46.435 C27.737,46.168 27.737,45.901 27.737,45.634 C26.936,45.367 26.136,45.100 25.336,44.834 C25.069,44.300 24.802,43.766 24.535,43.232 C24.002,43.232 23.468,43.232 22.935,43.232 C22.401,42.432 21.867,41.631 21.334,40.831 C20.800,40.831 20.267,40.831 19.733,40.831 C19.466,40.297 19.200,39.763 18.933,39.229 C18.399,39.229 17.866,39.229 17.332,39.229 C17.332,38.963 17.332,38.696 17.332,38.429 C16.139,37.489 15.911,37.321 14.131,36.828 Z"/>
</svg>