<svg xmlns="http://www.w3.org/2000/svg" height="116.544" width="133.33333">
  <defs>
    <clipPath id="a">
      <path d="M0 87.408h100V0H0z"/>
    </clipPath>
  </defs>
  <g clip-path="url(#a)" transform="matrix(1.33333 0 0 -1.33333 0 116.544)">
    <path d="M70.6172 87.4081c-10.321 0-16.836-5.023-20.617-9.565-3.781 4.542-10.295 9.565-20.62 9.565-17.575 0-29.38-16.281-29.38-31.486 0-22.135 42.518-51.801 47.366-55.11.794-.541 1.714-.812 2.634-.812.92 0 1.84.271 2.634.812 4.848 3.309 47.366 32.975 47.366 55.11 0 15.205-11.807 31.486-29.383 31.486" fill="#2dd581"/>
  </g>
</svg>
