<svg fill="#fff" xmlns="http://www.w3.org/2000/svg" data-name="Layer 1" viewBox="0 0 100 100"><g data-name="Group"><path data-name="Compound Path" d="M34.8 8.6H24.4a2 2 0 0 0-2 2v6.9h-1.3a10 10 0 0 0-10 10v53.9a10 10 0 0 0 10 10h57.8a10 10 0 0 0 10-10V27.5a10 10 0 0 0-10-10h-1.3v-6.9a2 2 0 0 0-2-2H65.2a2 2 0 0 0-2 2v6.9H36.8v-6.9a2 2 0 0 0-2-2zm-8.5 4h6.5v11.1h-6.4zm52.6 74.8H21.1a6 6 0 0 1-6-6V41.9h69.8v39.5a6 6 0 0 1-6 6zM67.2 12.6h6.5v11.1h-6.5zm-4 8.9v4.2a2 2 0 0 0 2 2h10.4a2 2 0 0 0 2-2v-4.2h1.3a6 6 0 0 1 6 6v10.4H15.1V27.5a6 6 0 0 1 6-6h1.3v4.2a2 2 0 0 0 2 2h10.4a2 2 0 0 0 2-2v-4.2z"/><path data-name="Path" d="M45.9 68.4l-9.3-9-2.8 2.9 10.7 10.3a2 2 0 0 0 2.8 0l18.9-17.9-2.7-2.9z"/></g></svg>