<svg 
 xmlns="http://www.w3.org/2000/svg"
 xmlns:xlink="http://www.w3.org/1999/xlink"
 width="1000px" height="952px">
<path fill-rule="evenodd"  fill="rgb(251, 189, 19)"
 d="M698.818,201.823 C771.824,201.823 844.853,201.823 917.859,201.823 C917.859,203.150 917.859,204.477 917.859,205.804 C925.824,207.131 933.790,208.459 941.755,209.786 C941.755,211.113 941.755,212.441 941.755,213.768 C944.410,213.768 947.065,213.768 949.720,213.768 C951.047,216.422 952.375,219.077 953.703,221.731 C956.357,221.731 959.013,221.731 961.668,221.731 C965.650,227.039 969.633,232.349 973.615,237.658 C974.943,237.658 976.271,237.658 977.598,237.658 C977.598,240.312 977.598,242.967 977.598,245.621 C980.253,246.948 982.908,248.276 985.563,249.603 C985.563,252.257 985.563,254.912 985.563,257.566 C986.891,257.566 988.218,257.566 989.546,257.566 C1006.778,295.731 997.512,387.657 997.511,440.725 C997.511,544.239 997.511,647.783 997.511,751.297 C997.510,788.690 1005.014,858.056 993.528,886.675 C992.201,886.675 990.873,886.675 989.546,886.675 C989.546,889.329 989.546,891.984 989.546,894.639 C988.218,894.639 986.891,894.639 985.563,894.639 C985.563,897.293 985.563,899.948 985.563,902.602 C982.908,903.929 980.253,905.257 977.598,906.584 C977.598,909.238 977.598,911.893 977.598,914.547 C972.288,918.528 966.977,922.511 961.668,926.492 C961.668,927.819 961.668,929.147 961.668,930.474 C959.013,930.474 956.357,930.474 953.703,930.474 C952.375,933.128 951.047,935.783 949.720,938.437 C947.065,938.437 944.410,938.437 941.755,938.437 C941.755,939.764 941.755,941.092 941.755,942.419 C939.100,942.419 936.444,942.419 933.790,942.419 C933.790,943.746 933.790,945.074 933.790,946.401 C928.480,946.401 923.169,946.401 917.859,946.401 C917.859,947.728 917.859,949.055 917.859,950.382 C690.875,950.382 463.823,950.382 236.839,950.382 C138.241,950.383 53.342,965.489 13.815,902.602 C-7.006,869.478 1.867,794.738 1.867,743.334 C1.867,622.568 1.867,501.765 1.867,380.999 C1.867,336.563 -3.279,277.289 13.815,249.603 C16.469,248.276 19.125,246.948 21.780,245.621 C21.780,242.967 21.780,240.312 21.780,237.658 C27.089,233.677 32.400,229.694 37.710,225.713 C37.710,224.386 37.710,223.058 37.710,221.731 C84.507,188.652 220.970,201.236 300.560,201.823 C299.742,140.584 295.459,73.793 320.473,38.573 C325.783,34.591 331.094,30.609 336.403,26.628 C336.403,25.301 336.403,23.973 336.403,22.646 C339.058,22.646 341.714,22.646 344.368,22.646 C345.696,19.992 347.024,17.337 348.351,14.683 C353.661,13.355 358.972,12.028 364.281,10.701 C364.281,9.374 364.281,8.046 364.281,6.719 C369.591,6.719 374.902,6.719 380.212,6.719 C418.613,-5.493 496.331,2.737 543.497,2.737 C595.439,2.738 632.803,1.226 662.974,22.646 C666.957,27.954 670.940,33.264 674.922,38.573 C676.250,38.573 677.577,38.573 678.905,38.573 C678.905,41.227 678.905,43.882 678.905,46.536 C681.560,47.863 684.215,49.191 686.870,50.518 C688.197,55.826 689.525,61.136 690.853,66.445 C692.180,66.445 693.508,66.445 694.835,66.445 C706.041,94.745 699.311,164.813 698.818,201.823 ZM400.124,102.280 C400.124,135.457 400.124,168.645 400.124,201.823 C466.494,201.823 532.884,201.823 599.253,201.823 C599.253,168.645 599.253,135.457 599.253,102.280 C532.884,102.280 466.494,102.280 400.124,102.280 Z"/>
</svg>