<svg fill="#fff" xmlns="http://www.w3.org/2000/svg" viewBox="0 0 100 100"><path d="M53.8 68.6c.8.7 1.7 1 2.6 1 1.1 0 2.2-.5 3-1.4L72 53.6c1.3-1.5 1.3-3.7 0-5.2L59.4 33.8c-1.4-1.7-4-1.9-5.6-.4-1.7 1.4-1.9 4-.4 5.6l6.9 8H35c-2.2 0-4 1.8-4 4s1.8 4 4 4h25.3l-6.9 8c-1.5 1.7-1.3 4.2.4 5.6z"/><path d="M82.9 38.1c.8 2 3.2 3 5.2 2.2 2-.8 3-3.2 2.2-5.2C83.8 19.2 68.5 9 51.4 9c-23.2 0-42 18.8-42 42s18.8 42 42 42c17.1 0 32.4-10.2 38.9-26.1.8-2-.1-4.4-2.2-5.2-2-.8-4.4.1-5.2 2.2C77.6 76.7 65.3 85 51.4 85c-18.7 0-34-15.3-34-34s15.3-34 34-34c13.9 0 26.2 8.3 31.5 21.1z"/></svg>