<svg xmlns="http://www.w3.org/2000/svg" xmlns:xlink="http://www.w3.org/1999/xlink" width="30" height="30" viewBox="0 0 100 75"><defs><path id="a" d="M0 0h96v73.98H0z"/></defs><path fill="#aaa" d="M32.062.16l-30 10C.874 10.551.002 11.753 0 13.004v57.984c0 1.886 2.146 3.433 3.937 2.844L33 64.144l29.063 9.688c.603.198 1.271.198 1.875 0l30-10c1.188-.392 2.059-1.594 2.062-2.844V3.004C96 1.117 93.854-.429 92.063.16L63 9.848 33.937.16c-.686-.263-1.384-.157-1.875 0M30 7.16v51.672l-24 8V15.16l24-8zm6 0l24 8v51.672l-24-8V7.16zm54 0v51.672l-24 8V15.16l24-8z" /></svg>