<svg height='300px' width='300px'  fill="#fff" xmlns="http://www.w3.org/2000/svg" xmlns:xlink="http://www.w3.org/1999/xlink" xml:space="preserve" version="1.1" style="shape-rendering:geometricPrecision;text-rendering:geometricPrecision;image-rendering:optimizeQuality;" viewBox="0 0 4.207 4.712" x="0px" y="0px" fill-rule="evenodd" clip-rule="evenodd"><defs><style type="text/css">.fil0 {fill:#fff;fill-rule:nonzero}</style></defs><g><path class="fil0" d="M2.77 4.179c-0.029,0.128 -0.094,0.243 -0.183,0.332 -0.124,0.124 -0.295,0.201 -0.483,0.201 -0.189,0 -0.36,-0.077 -0.483,-0.201 -0.09,-0.089 -0.155,-0.204 -0.184,-0.332l-0.985 0c-0.125,0 -0.238,-0.051 -0.319,-0.132 -0.082,-0.082 -0.133,-0.195 -0.133,-0.32 0,-0.124 0.051,-0.237 0.133,-0.319 0.052,-0.052 0.116,-0.091 0.188,-0.113l0.214 -1.314c0.071,-0.434 0.257,-0.834 0.541,-1.118 0.104,-0.104 0.221,-0.192 0.349,-0.261 0.019,-0.156 0.09,-0.296 0.196,-0.401 0.123,-0.124 0.294,-0.201 0.483,-0.201 0.188,0 0.359,0.077 0.483,0.201 0.105,0.105 0.176,0.245 0.195,0.401 0.129,0.069 0.245,0.157 0.349,0.261 0.284,0.284 0.471,0.684 0.541,1.118l0.214 1.314c0.072,0.022 0.137,0.061 0.189,0.113 0.081,0.082 0.132,0.195 0.132,0.319 0,0.125 -0.051,0.238 -0.132,0.32 -0.082,0.081 -0.195,0.132 -0.32,0.132l-0.985 0zm-1.35 -0.301l1.367 0 0.968 0c0.042,0 0.079,-0.017 0.107,-0.044 0.027,-0.028 0.044,-0.065 0.044,-0.107 0,-0.041 -0.017,-0.079 -0.044,-0.106 -0.028,-0.027 -0.065,-0.044 -0.107,-0.044l-3.303 0c-0.041,0 -0.079,0.017 -0.106,0.044 -0.028,0.027 -0.045,0.065 -0.045,0.106 0,0.042 0.017,0.079 0.045,0.107 0.027,0.027 0.065,0.044 0.106,0.044l0.968 0zm-0.791 -0.603l2.95 0 -0.203 -1.246c-0.061,-0.373 -0.219,-0.714 -0.458,-0.953 -0.21,-0.21 -0.485,-0.341 -0.814,-0.341 -0.329,0 -0.605,0.131 -0.815,0.341 -0.239,0.239 -0.397,0.58 -0.457,0.953l-0.203 1.246zm1.79 -2.808c-0.013,-0.019 -0.028,-0.038 -0.045,-0.054 -0.069,-0.069 -0.164,-0.112 -0.27,-0.112 -0.106,0 -0.202,0.043 -0.271,0.112 -0.016,0.016 -0.032,0.035 -0.045,0.054 0.1,-0.022 0.206,-0.033 0.316,-0.033 0.11,0 0.215,0.011 0.315,0.033zm-0.045 3.832c0.034,-0.034 0.062,-0.074 0.081,-0.12l-0.703 0c0.02,0.046 0.047,0.086 0.081,0.12 0.069,0.069 0.165,0.112 0.271,0.112 0.106,0 0.201,-0.043 0.27,-0.112z"></path></g></svg>
