<svg height='300px' width='300px'  fill="#fff" xmlns="http://www.w3.org/2000/svg" xmlns:xlink="http://www.w3.org/1999/xlink" viewBox="15 15 70 70" version="1.1" x="0px" y="0px"><g stroke="none" stroke-width="1" fill="none" fill-rule="evenodd"><g fill="#fff"><path d="M42.7712764,30 C44.4305722,30 44.8349009,30.9597069 43.6728099,32.1451565 L31.9298426,44.1241641 C29.1098647,46.952362 33.3408287,51.1956588 36.1608066,48.367461 L45.5907417,38.9100386 C46.3739946,38.1245026 47.0089466,38.381857 47.0089466,39.481363 L47.0089466,72.2471315 C47.0089466,73.9042475 48.3481369,75.2473414 50.0004366,75.2473414 C51.6527362,75.2473414 52.9919266,73.9042475 52.9919266,72.2471315 L52.9919266,39.481363 C52.9919266,38.3802933 53.6220001,38.1196681 54.4100011,38.9100386 L63.8390694,48.367461 C66.6600445,51.1956588 70.8900113,46.952362 68.0700334,44.1241641 L56.241766,32.1298227 C55.081784,30.9535541 55.4935254,30 57.1429519,30 L70,30 C71.6568542,30 73,28.6568542 73,27 C73,25.3431458 71.6568542,24 70,24 L30,24 C28.3431458,24 27,25.3431458 27,27 C27,28.6568542 28.3431458,30 30,30 L42.7712764,30 Z" transform="translate(50.000000, 49.623671) rotate(-270.000000) translate(-50.000000, -49.623671) "></path></g></g></svg>
