<svg height='300px' width='300px'  fill="#fff" xmlns="http://www.w3.org/2000/svg" xmlns:xlink="http://www.w3.org/1999/xlink" version="1.1" x="0px" y="0px" viewBox="0 0 32 32" enable-background="new 0 0 32 32" xml:space="preserve"><g><g><path d="M8,17c1.0396,0,2.0469-0.2827,2.9402-0.7888C12.006,17.8846,13.8731,19,16,19s3.9941-1.1155,5.0598-2.7888    C21.9531,16.7172,22.9604,17,24,17c3.3086,0,6-2.6914,6-6s-2.6914-6-6-6c-2.0631,0-3.9547,1.0869-5.0452,2.7843    C18.0815,7.2876,17.0745,7,16,7s-2.0815,0.2876-2.9548,0.7843C11.9547,6.0869,10.0631,5,8,5c-3.3086,0-6,2.6914-6,6    S4.6914,17,8,17z M24,7c2.2061,0,4,1.7944,4,4s-1.7939,4-4,4c-0.7839,0-1.5174-0.2278-2.1594-0.6475    C21.9414,13.9171,22,13.4657,22,13c0-1.5127-0.567-2.8924-1.4939-3.9488C21.2084,7.8038,22.545,7,24,7z M20,13    c0,2.2056-1.7939,4-4,4s-4-1.7944-4-4s1.7939-4,4-4S20,10.7944,20,13z M8,7c1.455,0,2.7916,0.8038,3.4939,2.0512    C10.567,10.1076,10,11.4873,10,13c0,0.4657,0.0586,0.9171,0.1594,1.3525C9.5174,14.7722,8.7839,15,8,15c-2.2061,0-4-1.7944-4-4    S5.7939,7,8,7z"></path><path d="M24,18c-1.874,0-3.6289,0.709-4.9365,1.9927c-0.1718,0.1666-0.3196,0.3338-0.4624,0.5019    C17.7959,20.1785,16.9195,20,16,20c-0.9186,0-1.7943,0.1783-2.5988,0.4938C12.082,18.9187,10.1203,18,8,18    c-1.874,0-3.6289,0.709-4.9336,1.9897C1.7334,21.2729,1,22.9922,1,24.8301V26c0,0.5522,0.4473,1,1,1s1-0.4478,1-1v-1.1699    c0-1.2896,0.5166-2.4971,1.46-3.4063C5.3955,20.5054,6.6523,20,8,20c1.3945,0,2.6849,0.5571,3.617,1.5135    C10.0236,22.7672,9,24.6848,9,26.8335V28c0,0.5522,0.4473,1,1,1s1-0.4478,1-1v-1.1665C11,24.1685,13.2432,22,16,22    s5,2.1685,5,4.8335V28c0,0.5522,0.4473,1,1,1s1-0.4478,1-1v-1.1665c0-2.1504-1.0251-4.0691-2.6207-5.3226    c0.0289-0.0293,0.0502-0.0575,0.0806-0.087C21.3955,20.5054,22.6523,20,24,20c2.7568,0,5,2.167,5,4.8301V26c0,0.5522,0.4473,1,1,1    s1-0.4478,1-1v-1.1699C31,21.064,27.8594,18,24,18z"></path></g></g></svg>
