<svg height='300px' width='300px'  fill="#FFF" xmlns="http://www.w3.org/2000/svg" xmlns:xlink="http://www.w3.org/1999/xlink" version="1.1" x="0px" y="0px" viewBox="0 0 100 100" enable-background="new 0 0 100 100" xml:space="preserve"><path d="M50,8C30.261,8,17,20.573,17,39.286c0,19.96,16.882,34.018,27.02,38.851l-5.592,9.319  c-0.557,0.927-0.571,2.082-0.038,3.022C38.921,91.418,39.919,92,41,92h18c1.081,0,2.079-0.582,2.61-1.522  c0.533-0.94,0.519-2.095-0.038-3.022l-5.592-9.319C66.118,73.304,83,59.246,83,39.286C83,20.573,69.739,8,50,8z M46.298,86  l3.602-6.001c0.03,0.001,0.059,0,0.088,0C49.992,79.999,49.997,80,50,80s0.008-0.001,0.012-0.001c0.029,0,0.058,0.001,0.088,0  L53.702,86H46.298z M50.009,74C45.928,73.843,23,60.406,23,39.286C23,23.926,33.598,14,50,14s27,9.926,27,25.286  C77,61.59,52.994,73.862,50.009,74z"></path><path d="M36.819,26.836c1.317,1.005,1.57,2.887,0.565,4.204C35.803,33.115,35,35.889,35,39.286  c0,2.209,0.429,4.436,1.276,6.618c0.599,1.545-0.167,3.283-1.711,3.882c-1.548,0.603-3.284-0.168-3.882-1.711  C29.565,45.197,29,42.241,29,39.286c0-4.742,1.216-8.741,3.615-11.884C33.619,26.083,35.501,25.829,36.819,26.836z"></path></svg>
