<svg height='300px' width='300px'  fill="#FFF" xmlns="http://www.w3.org/2000/svg" xmlns:xlink="http://www.w3.org/1999/xlink" version="1.1" x="0px" y="0px" viewBox="0 0 54.691 54.691" enable-background="new 0 0 54.691 54.691" xml:space="preserve"><g><path d="M-4318.56-68.404c-43.25,0-78.438,35.186-78.438,78.435c0,43.252,35.188,78.438,78.438,78.438s78.436-35.188,78.436-78.438   C-4240.124-33.218-4275.31-68.404-4318.56-68.404z M-4318.867-35.187c13.682,0,24.771,11.092,24.771,24.771   c0,13.682-11.092,24.771-24.771,24.771c-13.683,0-24.771-11.092-24.771-24.771C-4343.639-24.095-4332.55-35.187-4318.867-35.187z    M-4274.686,65.074c-12.042,9.627-27.292,15.396-43.874,15.396c-16.562,0-31.797-5.75-43.834-15.354   c1.116-19.851,14.187-39.903,30.178-39.903h27.332c16.024,0,29.128,19.324,30.197,39.206c0.001,0.002,0.001,0.004,0.001,0.006   S-4274.686,64.786-4274.686,65.074z"></path></g><g><path fill="#FFF" d="M27.484,29.368c-7.031,0-12.751-5.72-12.751-12.751c0-7.03,5.72-12.75,12.751-12.75   c7.031,0,12.751,5.72,12.751,12.75C40.235,23.648,34.515,29.368,27.484,29.368z M27.484,7.332c-5.12,0-9.286,4.166-9.286,9.285   c0,5.12,4.166,9.286,9.286,9.286s9.286-4.166,9.286-9.286C36.77,11.497,32.604,7.332,27.484,7.332z"></path></g><g><path fill="#FFF" d="M7.058,48.581c-0.195,0-0.393-0.033-0.586-0.104c-0.9-0.323-1.368-1.315-1.044-2.216   c3.335-9.274,12.199-15.506,22.057-15.506c9.857,0,18.72,6.231,22.056,15.506c0.323,0.9-0.145,1.893-1.044,2.216   c-0.9,0.324-1.894-0.144-2.218-1.044C43.437,39.531,35.885,34.22,27.485,34.22c-8.4,0-15.954,5.311-18.796,13.213   C8.434,48.14,7.768,48.581,7.058,48.581z"></path></g></svg>
