
<svg height='300px' width='300px'  fill="#000000" xmlns="http://www.w3.org/2000/svg" xmlns:xlink="http://www.w3.org/1999/xlink" version="1.1" x="0px" y="0px" viewBox="0 0 100 100" enable-background="new 0 0 100 100" xml:space="preserve"><path d="M79.854,62.591c-9.243-2.277-16.91-5.748-16.91-5.748c-0.959-1.28-1.419-3.445-1.628-4.863  c2.087-2.818,3.146-6.126,3.664-9.073c0.883,0.607,2.35,0.289,3.962-5.475c1.311-4.684,0.513-6.254-0.618-6.65  c3.68-17.823-4.727-18.421-4.727-18.421s-1.268-2.467-4.609-4.332c-2.238-1.341-5.354-2.383-9.467-2.023  c-1.332,0.063-2.589,0.323-3.77,0.727l-0.002,0.001c-1.511,0.517-2.896,1.27-4.147,2.149c-1.538,0.986-2.988,2.191-4.268,3.568  c-2.026,2.095-3.832,4.802-4.615,8.182c-0.745,2.871-0.722,5.974,0.389,9.128c-1.51-0.144-3.295,0.743-1.615,6.748  c1.228,4.388,2.371,5.62,3.236,5.69c0.485,3.174,1.577,6.87,3.927,9.951c-0.198,1.278-0.592,3.071-1.345,4.313  c-0.056,0.027-7.956,3.858-17.166,6.128c-0.903,0.222-1.691,0.55-2.382,0.956c3.715,5.527,8.813,10.045,14.798,13.061  C34.426,68.703,41.525,62.82,50,62.82s15.574,5.883,17.439,13.788c5.985-3.015,11.084-7.534,14.798-13.061  C81.546,63.14,80.757,62.812,79.854,62.591z"></path><path d="M50,67.41c-7.361,0-13.328,5.967-13.328,13.328c0,7.361,5.967,13.328,13.328,13.328s13.328-5.967,13.328-13.328  C63.328,73.377,57.361,67.41,50,67.41z M57.188,82.238H51.5v5.688c0,0.828-0.672,1.5-1.5,1.5c-0.829,0-1.5-0.672-1.5-1.5v-5.688  h-5.688c-0.828,0-1.5-0.671-1.5-1.5c0-0.828,0.672-1.5,1.5-1.5H48.5v-5.688c0-0.828,0.671-1.5,1.5-1.5c0.828,0,1.5,0.672,1.5,1.5  v5.688h5.688c0.828,0,1.5,0.672,1.5,1.5C58.688,81.567,58.016,82.238,57.188,82.238z"></path></svg>
