
<svg height='300px' width='300px'  fill="#000000" xmlns="http://www.w3.org/2000/svg" xmlns:xlink="http://www.w3.org/1999/xlink" version="1.1" x="0px" y="0px" viewBox="0 0 100 100" enable-background="new 0 0 100 100" xml:space="preserve"><path d="M65.557,75.288c0,0.046,0,0.096,0,0.152c0.001,0.253,0.001,0.855-0.027,1.603c-9.359,4.33-19.878,6.762-30.997,6.762  c-11.086,0-21.575-2.417-30.912-6.723c-0.029-0.772-0.03-1.394-0.029-1.648c-0.001-0.277,0.001-0.441,0.001-0.441l0.006,0.001  c-0.022-0.384-0.035-0.807-0.032-1.256c-0.039-3.41,0.78-8.606,5.896-9.865c7.751-1.91,14.399-5.134,14.446-5.157  c0.634-1.046,0.965-2.554,1.132-3.63c-1.978-2.593-2.897-5.704-3.305-8.374c-0.728-0.059-1.69-1.095-2.723-4.788  c-1.326-4.74-0.087-5.691,1.121-5.691c0.08,0,0.16,0.004,0.239,0.012c-0.935-2.654-0.954-5.266-0.328-7.682  c0.659-2.845,2.179-5.123,3.884-6.885c1.077-1.159,2.297-2.173,3.592-3.003c1.053-0.74,2.218-1.374,3.49-1.809l0.001-0.001l0,0  c0.994-0.34,2.052-0.559,3.173-0.612c0.47-0.041,0.924-0.061,1.363-0.061c2.796,0,4.976,0.787,6.604,1.763  c2.812,1.569,3.879,3.646,3.879,3.646s7.075,0.503,3.978,15.503l0,0c0.952,0.333,1.623,1.654,0.52,5.596  c-1.065,3.808-2.054,4.791-2.79,4.791c-0.202,0-0.384-0.074-0.544-0.184c-0.436,2.48-1.327,5.264-3.084,7.636  c0.176,1.193,0.563,3.015,1.37,4.092c0,0,6.452,2.921,14.231,4.837c5.104,1.258,5.931,6.431,5.897,9.841  C65.612,74.29,65.59,74.823,65.557,75.288z M96.434,64.922c0.029-2.889-0.672-7.271-4.995-8.337  c-6.589-1.623-12.055-4.097-12.055-4.097c-0.683-0.912-1.012-2.456-1.161-3.467c1.488-2.01,2.243-4.368,2.612-6.468  c0.629,0.433,1.675,0.206,2.824-3.903c0.934-3.339,0.366-4.459-0.441-4.741h0c2.624-12.707-3.37-13.133-3.37-13.133  s-0.904-1.759-3.286-3.089c-1.596-0.956-3.817-1.699-6.749-1.442c-0.949,0.045-1.846,0.231-2.688,0.519l0,0l-0.001,0  c-1.077,0.369-2.064,0.905-2.956,1.532c-1.096,0.703-2.13,1.562-3.043,2.544c-1.445,1.493-2.732,3.423-3.29,5.833  c-0.531,2.047-0.514,4.259,0.278,6.508c-1.077-0.102-2.349,0.53-1.152,4.811c0.875,3.128,1.69,4.006,2.307,4.056  c0.346,2.263,1.124,4.898,2.8,7.094c-0.141,0.911-0.422,2.189-0.959,3.075c-0.04,0.019-5.672,2.751-12.238,4.369  c-0.267,0.066-0.52,0.145-0.761,0.235c2.236,0.922,6.971,2.75,12.335,4.071c5.225,1.287,8.213,5.859,8.233,12.561  c0.476,0.011,0.952,0.017,1.431,0.017c9.42,0,18.33-2.06,26.259-5.729c0.023-0.634,0.024-1.144,0.023-1.358c0-0.047,0-0.09,0-0.129  C96.419,65.86,96.438,65.409,96.434,64.922z"></path></svg>
