<svg xmlns="http://www.w3.org/2000/svg" xmlns:xlink="http://www.w3.org/1999/xlink" width="30" height="30" viewBox="0 0 71 98"><defs><path id="a" d="M0 0h78v94H0z"/></defs><clipPath id="b"><use overflow="visible" xlink:href="#a"/></clipPath><path d="M78 19c0-6.065-4.935-11-11-11h-5V3c0-1.654-1.346-3-3-3s-3 1.346-3 3v5H42V3c0-1.654-1.346-3-3-3s-3 1.346-3 3v5H22V3c0-1.654-1.346-3-3-3s-3 1.346-3 3v5h-5C4.935 8 0 12.935 0 19v64c0 6.065 4.935 11 11 11h56c6.065 0 11-4.935 11-11V19zm-6 64c0 2.757-2.243 5-5 5H11c-2.757 0-5-2.243-5-5V19c0-2.757 2.243-5 5-5h5v5c0 1.654 1.346 3 3 3s3-1.346 3-3v-5h14v5c0 1.654 1.346 3 3 3s3-1.346 3-3v-5h14v5c0 1.654 1.346 3 3 3s3-1.346 3-3v-5h5c2.757 0 5 2.243 5 5v64z" fill="#7e7e7e"/><path d="M59 52.5H19c-1.378 0-2.5 1.122-2.5 2.5s1.122 2.5 2.5 2.5h40c1.379 0 2.5-1.122 2.5-2.5s-1.121-2.5-2.5-2.5M59 68.5H19c-1.378 0-2.5 1.121-2.5 2.5s1.122 2.5 2.5 2.5h40c1.379 0 2.5-1.121 2.5-2.5s-1.121-2.5-2.5-2.5M59 36.5H19c-1.378 0-2.5 1.122-2.5 2.5s1.122 2.5 2.5 2.5h40c1.379 0 2.5-1.122 2.5-2.5s-1.121-2.5-2.5-2.5" fill="#aaa"/></svg>