<svg height='300px' width='300px'  fill="#fff" xmlns="http://www.w3.org/2000/svg" viewBox="0 0 64 64" x="0px" y="0px"><g data-name="Layer 3"><path d="M22.273,33.01,20.133,48H20a3,3,0,0,0,0,6H31v2.184a3,3,0,1,0,2,0V54H44a3,3,0,0,0,0-6h-.133l-2.14-14.99a7.034,7.034,0,0,0-6.727-6V25H54a1,1,0,0,0,1-1V12a1,1,0,0,0-1-1H42.236L35,7.382V5a3,3,0,0,0-6,0V7.382l-5.447,2.723a1,1,0,0,0-.5.579l-3,9a1,1,0,0,0,.241,1.023l4,4a1,1,0,0,0,1.414,0L28,22.414l1,1v3.595A7.034,7.034,0,0,0,22.273,33.01ZM32,60a1,1,0,1,1,1-1A1,1,0,0,1,32,60Zm7.746-26.707L42.01,49.142A1,1,0,0,0,43,50h1a1,1,0,0,1,0,2H20a1,1,0,0,1,0-2H35V48H22.153l2.1-14.707A5.026,5.026,0,0,1,29.2,29H34.8A5.026,5.026,0,0,1,39.746,33.293ZM33,27H31V25h2ZM43,13H53V23H43ZM32,4a1,1,0,0,1,1,1V15H31V5A1,1,0,0,1,32,4ZM25.293,19.707,26.586,21,25,22.586,22.145,19.73l2.672-8.021L29,9.618V15H28a1,1,0,0,0-.832.445l-2,3a1,1,0,0,0,.125,1.262Zm1.994-.834L28.535,17H35a1,1,0,0,0,0-2V9.618l6,3V23H31.414Z"></path><rect x="37" y="48" width="3" height="2"></rect><path d="M25.825,33.7l-.82,8.2,1.99.2.82-8.2a1,1,0,0,1,.995-.9H32V31H28.81A2.991,2.991,0,0,0,25.825,33.7Z"></path><rect x="25" y="44" width="2" height="2"></rect><path d="M52.362,28.635,50.948,30.05a11.238,11.238,0,0,1,0,15.9l1.414,1.415a13.24,13.24,0,0,0,0-18.73Z"></path><path d="M52.243,38a9.181,9.181,0,0,0-2.708-6.536l-1.414,1.415a7.24,7.24,0,0,1,0,10.242l1.414,1.415A9.181,9.181,0,0,0,52.243,38Z"></path><path d="M46.707,41.707a5.241,5.241,0,0,0,0-7.414l-1.414,1.414a3.242,3.242,0,0,1,0,4.586Z"></path><path d="M7.757,38a13.15,13.15,0,0,0,3.881,9.365l1.414-1.415a11.238,11.238,0,0,1,0-15.9l-1.414-1.415A13.15,13.15,0,0,0,7.757,38Z"></path><path d="M11.757,38a9.181,9.181,0,0,0,2.708,6.536l1.414-1.415a7.24,7.24,0,0,1,0-10.242l-1.414-1.415A9.181,9.181,0,0,0,11.757,38Z"></path><path d="M17.293,34.293a5.241,5.241,0,0,0,0,7.414l1.414-1.414a3.242,3.242,0,0,1,0-4.586Z"></path></g></svg>