<svg height='300px' width='300px'  fill="#fff" xmlns="http://www.w3.org/2000/svg" xmlns:xlink="http://www.w3.org/1999/xlink" version="1.1" x="0px" y="0px" viewBox="0 0 64 64" style="enable-background:new 0 0 64 64;" xml:space="preserve"><g><path d="M58,24h-1V1H27v23h-1c-2.757,0-5,2.243-5,5v10H4.733C2.675,39,1,40.675,1,42.733v16.533C1,61.325,2.675,63,4.733,63H31   h0.267H58c2.757,0,5-2.243,5-5v-5V43v-6v-8C63,26.243,60.757,24,58,24z M29,3h26v25h-2V8h-1c-1.103,0-2-0.897-2-2V5H34v1   c0,1.103-0.897,2-2,2h-1v20h-2V3z M42,22c-3.519,0-6.432,2.613-6.92,6H33V9.874c1.404-0.363,2.511-1.47,2.874-2.874h12.253   c0.363,1.404,1.47,2.511,2.874,2.874V28h-2.08C48.432,24.613,45.519,22,42,22z M46.899,28h-9.799c0.464-2.279,2.485-4,4.899-4   S46.435,25.721,46.899,28z M33,59.267C33,60.222,32.222,61,31.267,61H31H4.733C3.778,61,3,60.222,3,59.267V59h30V59.267z M33,57H3   v-2h30V57z M33,53H3V42.733C3,41.778,3.778,41,4.733,41h26.533C32.222,41,33,41.778,33,42.733V53z M61,51H47c-1.654,0-3-1.346-3-3   s1.346-3,3-3h14V51z M61,43H47c-2.757,0-5,2.243-5,5s2.243,5,5,5h14v5c0,1.654-1.346,3-3,3H34.553   C34.829,60.48,35,59.896,35,59.267V42.733C35,40.675,33.325,39,31.267,39H23v-6.026C23.838,33.609,24.87,34,26,34h32   c1.654,0,3,1.346,3,3V43z M61,33.026C60.162,32.391,59.13,32,58,32H26c-1.654,0-3-1.346-3-3s1.346-3,3-3h1v2h-1v2h1h4h4h14h4h4h1   v-2h-1v-2h1c1.654,0,3,1.346,3,3V33.026z"></path><circle cx="47" cy="48" r="1"></circle><rect x="5" y="43" width="7" height="2"></rect><rect x="7" y="47" width="5" height="2"></rect><path d="M11,15H9c-0.551,0-1-0.449-1-1H6c0,1.654,1.346,3,3,3v1h2v-1c1.654,0,3-1.346,3-3s-1.346-3-3-3H9c-0.551,0-1-0.449-1-1   s0.449-1,1-1h2c0.551,0,1,0.449,1,1h2c0-1.654-1.346-3-3-3V6H9v1c-1.654,0-3,1.346-3,3s1.346,3,3,3h2c0.551,0,1,0.449,1,1   S11.551,15,11,15z"></path><path d="M10,37c4.962,0,9-4.038,9-9c0-1.382-0.341-2.742-0.958-3.983C18.65,22.806,19,21.444,19,20   c0-1.382-0.341-2.742-0.958-3.983C18.65,14.806,19,13.444,19,12c0-4.962-4.038-9-9-9s-9,4.038-9,9c0,1.444,0.35,2.806,0.958,4.017   C1.341,17.258,1,18.618,1,20c0,1.444,0.35,2.806,0.958,4.017C1.341,25.258,1,26.618,1,28C1,32.962,5.038,37,10,37z M10,5   c3.86,0,7,3.14,7,7c0,1.194-0.302,2.319-0.832,3.304l-0.076,0.131c-0.018,0.032-0.038,0.062-0.057,0.093   c-0.143,0.245-0.301,0.478-0.471,0.701c-0.016,0.021-0.031,0.043-0.047,0.063c-0.367,0.47-0.789,0.889-1.254,1.247   c-0.016,0.012-0.031,0.023-0.047,0.035c-0.231,0.175-0.472,0.337-0.722,0.482c-0.002,0.001-0.004,0.003-0.006,0.004   c-0.507,0.293-1.051,0.519-1.617,0.678c-0.045,0.012-0.09,0.023-0.135,0.035c-0.227,0.059-0.459,0.104-0.692,0.14   c-0.064,0.01-0.128,0.022-0.192,0.029C10.571,18.978,10.287,19,10,19s-0.571-0.022-0.852-0.057   c-0.065-0.008-0.128-0.02-0.192-0.029c-0.234-0.036-0.465-0.081-0.692-0.14c-0.045-0.012-0.09-0.022-0.135-0.035   c-0.566-0.159-1.11-0.385-1.617-0.678c-0.002-0.001-0.004-0.003-0.006-0.004c-0.25-0.145-0.491-0.307-0.722-0.482   c-0.016-0.012-0.031-0.023-0.047-0.035c-0.466-0.359-0.888-0.777-1.254-1.247c-0.016-0.021-0.031-0.042-0.047-0.063   c-0.17-0.223-0.327-0.456-0.471-0.701c-0.018-0.031-0.039-0.061-0.057-0.093l-0.076-0.131C3.302,14.319,3,13.194,3,12   C3,8.14,6.14,5,10,5z M3.297,17.994c0.029,0.032,0.062,0.06,0.091,0.092c0.16,0.174,0.326,0.341,0.499,0.501   c0.052,0.048,0.103,0.095,0.156,0.142c0.185,0.164,0.376,0.319,0.573,0.467c0.045,0.034,0.089,0.068,0.135,0.101   c0.215,0.155,0.438,0.3,0.667,0.437c0.032,0.019,0.063,0.039,0.096,0.058c0.247,0.143,0.502,0.274,0.763,0.393   c0.018,0.008,0.036,0.018,0.055,0.026c0.272,0.122,0.551,0.231,0.837,0.326c0.011,0.004,0.021,0.008,0.031,0.011   c0.284,0.093,0.574,0.173,0.87,0.238c0.014,0.003,0.027,0.007,0.04,0.01c0.279,0.06,0.563,0.105,0.85,0.138   c0.03,0.004,0.06,0.01,0.09,0.014C9.362,20.982,9.679,21,10,21h1c0.551,0,1,0.449,1,1s-0.449,1-1,1H9c-0.551,0-1-0.449-1-1H6   c0,1.654,1.346,3,3,3v1h2v-1c1.654,0,3-1.346,3-3c0-0.63-0.197-1.214-0.53-1.697c0.068-0.028,0.132-0.062,0.199-0.093   c0.018-0.008,0.036-0.018,0.055-0.026c0.261-0.119,0.516-0.25,0.763-0.393c0.032-0.019,0.063-0.039,0.096-0.058   c0.229-0.136,0.452-0.281,0.667-0.437c0.045-0.033,0.09-0.067,0.135-0.101c0.198-0.148,0.389-0.303,0.573-0.467   c0.053-0.047,0.104-0.094,0.156-0.142c0.173-0.161,0.339-0.328,0.499-0.501c0.029-0.032,0.062-0.06,0.091-0.092   C16.899,18.644,17,19.32,17,20c0,1.194-0.302,2.319-0.832,3.304l-0.076,0.131c-0.018,0.032-0.038,0.062-0.057,0.093   c-0.143,0.245-0.301,0.478-0.471,0.701c-0.016,0.021-0.031,0.043-0.047,0.063c-0.367,0.47-0.789,0.889-1.254,1.247   c-0.016,0.012-0.031,0.023-0.047,0.035c-0.231,0.175-0.472,0.337-0.722,0.482c-0.002,0.001-0.004,0.003-0.006,0.004   c-0.507,0.293-1.051,0.519-1.617,0.678c-0.045,0.012-0.09,0.023-0.135,0.035c-0.227,0.059-0.459,0.104-0.692,0.14   c-0.064,0.01-0.128,0.022-0.192,0.029C10.571,26.978,10.287,27,10,27s-0.571-0.022-0.852-0.057   c-0.065-0.008-0.128-0.02-0.192-0.029c-0.234-0.036-0.465-0.081-0.692-0.14c-0.045-0.012-0.09-0.022-0.135-0.035   c-0.566-0.159-1.11-0.385-1.617-0.678c-0.002-0.001-0.004-0.003-0.006-0.004c-0.25-0.145-0.491-0.307-0.722-0.482   c-0.016-0.012-0.031-0.023-0.047-0.035c-0.466-0.359-0.888-0.777-1.254-1.247c-0.016-0.021-0.031-0.042-0.047-0.063   c-0.17-0.223-0.327-0.456-0.471-0.701c-0.018-0.031-0.039-0.061-0.057-0.093l-0.076-0.131C3.302,22.319,3,21.194,3,20   C3,19.32,3.101,18.644,3.297,17.994z M3.297,25.994c0.029,0.032,0.062,0.06,0.091,0.092c0.16,0.174,0.326,0.341,0.499,0.501   c0.052,0.048,0.103,0.095,0.156,0.142c0.185,0.164,0.376,0.319,0.573,0.467c0.045,0.034,0.089,0.068,0.135,0.101   c0.215,0.155,0.438,0.3,0.667,0.437c0.032,0.019,0.063,0.039,0.096,0.058c0.247,0.143,0.502,0.274,0.763,0.393   c0.018,0.008,0.036,0.018,0.055,0.026c0.272,0.122,0.551,0.231,0.837,0.326c0.011,0.004,0.021,0.008,0.031,0.011   c0.284,0.093,0.574,0.173,0.87,0.238c0.014,0.003,0.027,0.007,0.04,0.01c0.279,0.06,0.563,0.105,0.85,0.138   c0.03,0.004,0.06,0.01,0.09,0.014C9.362,28.982,9.679,29,10,29h1c0.551,0,1,0.449,1,1s-0.449,1-1,1H9c-0.551,0-1-0.449-1-1H6   c0,1.654,1.346,3,3,3v1h2v-1c1.654,0,3-1.346,3-3c0-0.63-0.197-1.214-0.53-1.697c0.068-0.028,0.132-0.062,0.199-0.093   c0.018-0.008,0.036-0.018,0.055-0.026c0.261-0.119,0.516-0.25,0.763-0.393c0.032-0.019,0.063-0.039,0.096-0.058   c0.229-0.136,0.452-0.281,0.667-0.437c0.045-0.033,0.09-0.067,0.135-0.101c0.198-0.148,0.389-0.303,0.573-0.467   c0.053-0.047,0.104-0.094,0.156-0.142c0.173-0.161,0.339-0.328,0.499-0.501c0.029-0.032,0.062-0.06,0.091-0.092   C16.899,26.644,17,27.32,17,28c0,3.86-3.14,7-7,7s-7-3.14-7-7C3,27.32,3.101,26.644,3.297,25.994z"></path></g></svg>