<svg xmlns="http://www.w3.org/2000/svg" xmlns:xlink="http://www.w3.org/1999/xlink" height="43px" width="43px" fill="#000000" xml:space="preserve" style="shape-rendering:geometricPrecision;text-rendering:geometricPrecision;image-rendering:optimizeQuality;" viewBox="0 0 6.4964 6.4043" x="0px" y="0px" fill-rule="evenodd" clip-rule="evenodd"><defs><style type="text/css">.fil1 {fill:#d3d3d3}.fil0 {fill:#d3d3d3;fill-rule:nonzero}</style></defs><g><path class="fil0" d="M4.4488 4.7319l0.0152 0 0 -2.0173 -0.0152 0c-0.0864,0 -0.1568,-0.0704 -0.1568,-0.1568l0 -0.3179 -0.2089 0 0 0.3179c0,0.0865 -0.0703,0.1568 -0.1568,0.1568l-0.0153 0 0 2.0173 0.0153 0c0.0865,0 0.1568,0.0703 0.1568,0.1568l0 0.3165 0.2089 0 0 -0.3165c0,-0.0864 0.0704,-0.1568 0.1568,-0.1568zm-2.6409 0.8966c1.3987,0 2.7975,0 4.1962,0l0 -0.1693c-1.8373,0 -3.6745,0 -5.5118,0l0 0.1693 0.4729 0c0.0699,0 0.127,0.0571 0.127,0.127 0,0.0699 -0.0571,0.127 -0.127,0.127 -0.2371,0 -0.4741,0 -0.7112,0l0 0.2678 5.9884 0 0 -0.2678c-1.4782,0 -2.9563,0 -4.4345,0 -0.0699,0 -0.127,-0.0571 -0.127,-0.127 0,-0.0699 0.0571,-0.127 0.127,-0.127zm-1.667 0l0.0974 0 0 -0.2804c0,-0.0788 0.064,-0.1429 0.1428,-0.1429l0.1537 0 0 -0.3165c0,-0.0865 0.0703,-0.1568 0.1568,-0.1568l0.0153 0 0 -2.0173 -0.0153 0c-0.0865,0 -0.1568,-0.0703 -0.1568,-0.1568l0 -0.3179 -0.3478 0c-0.0894,0 -0.1651,-0.0722 -0.1651,-0.1625l0 -0.8015c-0.0045,-0.1137 0.0441,-0.1483 0.1455,-0.1782l2.9792 -1.0711c0.0973,-0.0351 0.0999,-0.0343 0.1911,-0.004l2.9915 1.075c0.0975,0.0292 0.1498,0.0662 0.1454,0.1782l-0.0001 0.8016c0,0.0903 -0.0757,0.1625 -0.1651,0.1625l-0.3477 0 0 0.3179c0,0.0865 -0.0703,0.1568 -0.1568,0.1568l-0.0153 0 0 2.0173 0.0153 0c0.0865,0 0.1568,0.0703 0.1568,0.1568l0 0.3165 0.1536 0c0.0788,0 0.1428,0.0641 0.1428,0.1429l0 0.2804 0.0974 0c0.0776,0 0.1409,0.0633 0.1409,0.1409l0 0.494c0,0.0776 -0.0633,0.1409 -0.1409,0.1409l-6.2146 0c-0.0776,0 -0.1409,-0.0633 -0.1409,-0.1409l0 -0.494c0,-0.0776 0.0633,-0.1409 0.1409,-0.1409zm2.2725 -0.4233l0 -0.3165c0,-0.0865 0.0703,-0.1568 0.1568,-0.1568l0.0152 0 0 -2.0173 -0.0152 0c-0.0865,0 -0.1568,-0.0703 -0.1568,-0.1568l0 -0.3179 -0.2089 0 0 0.3179c0,0.0864 -0.0704,0.1568 -0.1568,0.1568l-0.0152 0 0 2.0173 0.0152 0c0.0864,0 0.1568,0.0704 0.1568,0.1568l0 0.3165 0.2089 0zm2.3046 -0.4733l0.8176 0 0 -2.0173 -0.8176 0 0 2.0173zm-1.061 -2.0173l-0.8176 0 0 2.0173 0.8176 0 0 -2.0173zm-1.8785 0l-0.8176 0 0 2.0173 0.8176 0 0 -2.0173zm3.9292 -0.4747l-1.1617 0 0 0.2207 1.1617 0 0 -0.2207zm-3.7572 0l-1.1617 0 0 0.2207 1.1617 0 0 -0.2207zm1.8786 0l-1.1617 0 0 0.2207 1.1617 0 0 -0.2207zm2.3914 -0.9107l-2.9722 -1.0687 -2.9724 1.0687 0 0.6567 5.9446 0 0 -0.6567zm-4.27 3.6567c-0.3872,0 -0.7745,0 -1.1617,0l0 0.2193 1.1617 0 0 -0.2193zm1.8786 0c-0.3872,0 -0.7745,0 -1.1617,0l0 0.2193 1.1617 0 0 -0.2193zm1.8786 0c-0.3872,0 -0.7745,0 -1.1617,0l0 0.2193 1.1617 0 0 -0.2193z"/><path class="fil1" d="M3.1961 0.5766l0.1059 0c0.0116,0 0.021,0.0094 0.021,0.021 0,0.0298 0,0.0596 0,0.0893 0.0724,0.004 0.1379,0.0155 0.2049,0.0436 0.0147,0.0062 0.0132,0.0081 0.0098,0.0209l-0.037 0.1449c-0.0031,0.0123 -0.0021,0.0113 -0.0141,0.006 -0.0703,-0.0311 -0.1283,-0.0457 -0.2062,-0.0464 -0.054,0.0006 -0.1298,0.0155 -0.1282,0.0845 0,0.0686 0.1283,0.1101 0.1795,0.1299 0.141,0.048 0.2534,0.1206 0.2521,0.2838 0,0.158 -0.1221,0.2507 -0.2672,0.2774l-0.0004 0.1032c0,0.0114 -0.0095,0.021 -0.0209,0.021l-0.1072 0c-0.0116,0 -0.021,-0.0094 -0.021,-0.021l0.0002 -0.0927c-0.0743,-0.0023 -0.1656,-0.0197 -0.2332,-0.0523 -0.0267,-0.013 -0.024,-0.0088 -0.0166,-0.0376l0.0343 -0.1344c0.0049,-0.0197 0.0018,-0.0181 0.0215,-0.0084 0.0733,0.0359 0.1511,0.0569 0.2331,0.0578 0.0598,0 0.1451,-0.0187 0.1451,-0.0937 0.0009,-0.0752 -0.1018,-0.1113 -0.1599,-0.1313 -0.1364,-0.0429 -0.272,-0.1145 -0.2732,-0.276 0,-0.1524 0.1165,-0.2425 0.2567,-0.2686 0,-0.0334 0,-0.0666 0,-0.0999 0,-0.0116 0.0094,-0.021 0.021,-0.021z"/><path class="fil1" d="M1.3975 5.6285c0.0701,0 0.127,0.0569 0.127,0.127 0,0.0701 -0.0569,0.127 -0.127,0.127 -0.0701,0 -0.127,-0.0569 -0.127,-0.127 0,-0.0701 0.0569,-0.127 0.127,-0.127z"/></g></svg>
