<svg xmlns="http://www.w3.org/2000/svg" width="187" height="183">
  <defs>
    <filter id="a" width="187" height="183" x="0" y="0" filterUnits="userSpaceOnUse">
      <feOffset dy="7" in="SourceAlpha"/>
      <feGaussianBlur result="blurOut" stdDeviation="2.65"/>
      <feFlood flood-color="#000" result="floodOut"/>
      <feComposite in="floodOut" in2="blurOut" operator="atop"/>
      <feComponentTransfer>
        <feFuncA slope=".1" type="linear"/>
      </feComponentTransfer>
      <feMerge>
        <feMergeNode/>
        <feMergeNode in="SourceGraphic"/>
      </feMerge>
    </filter>
  </defs>
  <path fill="#FFF" fill-rule="evenodd" d="M21 1h154a10 10 0 0 1 10 10v150a10 10 0 0 1-10 10H21a10 10 0 0 1-10-10V11A10 10 0 0 1 21 1z" filter="url(#a)"/>
  <path fill="#FCBE13" fill-rule="evenodd" d="M98 26a27 27 0 1 1 0 54 27 27 0 0 1 0-54z"/>
  <path fill="#58595B" fill-rule="evenodd" d="M127.14 110.63a7.2 7.2 0 0 1 1.75 2.5c.44 1 .65 2.08.65 3.26a9.36 9.36 0 0 1-2.6 6.55 8.84 8.84 0 0 1-3.16 2.1c-1.28.51-2.68.77-4.22.77a13.32 13.32 0 0 1-9-3.5l-.4-.4 2.65-3.97.3.31a10.69 10.69 0 0 0 2.24 1.56 9.45 9.45 0 0 0 3.9 1c1.48 0 2.7-.4 3.67-1.19.97-.8 1.45-1.8 1.45-3.02 0-1.42-.58-2.51-1.72-3.26a7.83 7.83 0 0 0-4.38-1.13h-1.95l-1.15-2.62 5.2-6.11a27.19 27.19 0 0 1 1.75-1.9l.27-.26v-.08c-.56.08-1.4.12-2.51.12h-8.48v-4.43h17.35v3.24l-6.96 7.99a10.24 10.24 0 0 1 5.34 2.47zM90.5 120.9h6.11v-15.76l.04-1.93h-.08c-.22.45-.63.99-1.24 1.6l-2.27 2.17-3.05-3.2 7.13-6.84h4.55v23.96h6.12v4.44H90.5v-4.44zm-6.98 2.05a8.84 8.84 0 0 1-3.16 2.1c-1.27.51-2.68.77-4.22.77a13.32 13.32 0 0 1-9-3.5l-.39-.4 2.64-3.97.31.31a10.69 10.69 0 0 0 2.24 1.56 9.45 9.45 0 0 0 3.9 1c1.48 0 2.7-.4 3.66-1.19.97-.8 1.45-1.8 1.45-3.02 0-1.42-.57-2.51-1.72-3.26a7.83 7.83 0 0 0-4.37-1.13H72.9l-1.15-2.62 5.2-6.11a27.19 27.19 0 0 1 1.75-1.9l.28-.26v-.08c-.56.08-1.4.12-2.52.12h-8.48v-4.43h17.35v3.24l-6.95 7.99a10.24 10.24 0 0 1 5.34 2.47 7.2 7.2 0 0 1 1.75 2.5c.44 1 .66 2.08.66 3.26a9.36 9.36 0 0 1-2.61 6.55z"/>
  <path fill="#FFF" fill-rule="evenodd" d="M98.39 44c.18 0 .5-.02.64.02h.4v.02h.25v.01h.19v.02h.17v.01h.15v.02h.13c.14.04.32.03.45.07l.28.03v.01h.08v.02h.09v.01h.09c.15.05.34.07.5.12h.06v.02h.06v.01h.07v.02h.06v.01h.06l.23.07h.06v.02c.06 0 .1.02.16.03v.01l.1.02v.01l.1.02v.01l.1.02v.01h.05v.01h.04v.02h.05v.01l.19.05v.01h.04v.02h.04v.01h.05v.02h.04v.01h.05v.02l.08.01v.02l.13.02v.02h.03v.01l.13.03v.02h.03v.01l.09.02v.01h.03v.02l.09.01v.01l.07.02v.02h.07v.02h.03v.02h.04v.01l.08.02v.01h.02v.02h.05v.01l.06.02v.01h.04v.02l.06.01v.02h.04v.01l.06.01v.02h.04v.01l.06.02v.01h.05v.02h.02v.01l.1.03v.02h.03v.01h.03v.02h.03v.01l.09.03v.02h.07v.02l.06.02v.01l.06.02v.01l.06.02v.01h.03v.02h.03v.01h.02v.02h.03v.01l.09.03v.01l.06.02v.01l.06.02v.01h.03v.02h.02v.01h.03v.02h.03v.01l.06.02.02.03h.03v.01h.02v.02h.03v.01h.03v.01h.03v.02l.06.01.01.03h.03v.02h.03v.01h.03v.02h.03l.01.03h.03v.01h.03v.02h.03v.01h.03l.02.03.08.03.02.03h.03v.01h.03v.03l.1.03.01.03.06.02.01.02.06.02.02.03.05.01.02.03.06.02.01.03h.03v.01h.03v.02l.04.01.02.03.06.02.01.02h.03l.01.03h.03l.02.03.06.02.01.03h.03v.01l.04.02.02.02h.03l.01.04h.05v.02l.05.02v.01l.05.02.01.03h.03v.01l.04.02.02.03h.03l.03.04h.03l.01.03.04.01v.02h.03l.02.03h.03l.01.03h.03l.03.04h.03v.02l.04.01.02.03h.02l.03.04h.03l.02.03h.03c0 .02.02.03.03.05h.02l.02.03h.03l.01.03.05.01c0 .02.02.03.03.04h.03v.03h.04l.01.03.05.02.03.04h.03l.02.05h.03l.03.04h.03l.03.04h.03l.04.06h.03l.03.05h.03l.03.04h.03l.04.06h.03l.04.06h.03l.05.06h.03l.03.04h.02l.06.07h.03l.05.06h.02l.05.06h.03l.01.03.04.03v.01h.03l.06.08h.03l.03.04h.01l.02.03h.03l.07.09h.03l.07.09h.03l.09.1h.03l.09.1h.02l.1.12h.03l.12.13h.03l.14.16h.03l.1.12.27.23.16.18c.12.09.2.2.3.3.1.1.2.18.3.3l.08.08c.09.08.17.17.25.27l.14.13.15.18.08.07v.03l.15.14v.03l.13.11v.03l.12.1v.03l.1.1v.02l.1.09v.03l.09.07v.03l.09.07v.03l.04.03c0 .02.02.03.03.05h.01v.03l.09.07v.03l.07.06v.03l.08.05v.03l.07.06v.03l.07.06v.03l.06.04v.03l.07.06v.03l.04.03v.03l.05.03.01.06.03.01v.03h.02l.01.06h.02l.01.07h.01l.02.1h.01l.02.12h.01c.02.07 0 .34-.01.39v.08h-.02v.06h-.01v.05h-.02v.04h-.01l-.02.06v.04h-.02v.03l-.03.02-.02.05-.03.02v.03l-.03.01v.03l-.04.03v.03l-.04.03v.03l-.06.04v.03l-.05.03v.03l-.05.05v.03l-.06.04v.03l-.06.04v.03l-.07.06v.03l-.07.06v.03l-.03.01-.03.05h-.02v.03l-.07.05v.03l-.09.08v.03l-.04.03-.03.04h-.01v.03l-.12.1v.03l-.1.09v.03l-.15.13v.03l-.14.13v.03l-.22.2c-.09.13-.19.21-.3.31l-.12.15-.06.05v.02l-.06.05-.01.03h-.03l-.06.07-.14.13-.27.28h-.03v.02l-.04.03-.16.17h-.03l-.1.12-.04.03v.01h-.03l-.12.13h-.03l-.1.12h-.03l-.1.12h-.03l-.07.09h-.03l-.03.04-.04.03v.02h-.03l-.07.08h-.03l-.02.03-.04.03v.02h-.03l-.06.07h-.03l-.06.07h-.03l-.05.08h-.03l-.05.06h-.03l-.04.05h-.03l-.04.06h-.03l-.04.06h-.03l-.05.06h-.03l-.04.06h-.03l-.01.03-.05.01-.04.06h-.03c0 .02-.02.03-.03.05h-.04l-.02.04H109l-.02.04h-.03l-.03.05h-.03a.67.67 0 0 0-.03.04h-.03l-.03.04h-.03c0 .02-.02.03-.03.05h-.03l-.03.04h-.03l-.02.05h-.03a.4.4 0 0 0-.02.03h-.03a.67.67 0 0 0-.03.04h-.03v.03h-.04l-.03.04h-.03l-.01.03h-.03l-.03.05h-.03l-.01.03h-.03l-.03.04h-.03l-.01.03-.05.01v.02h-.03a.4.4 0 0 0-.01.03h-.03l-.02.03h-.02l-.03.04h-.03l-.02.03-.04.02v.01h-.03l-.01.03h-.03l-.02.03h-.03l-.01.03h-.03l-.02.03h-.02l-.02.03h-.03l-.01.03h-.03l-.02.02-.05.02-.02.03h-.03l-.01.03h-.03l-.02.03h-.02l-.02.03-.06.01-.01.03h-.03l-.02.03-.05.02-.05.02-.01.03h-.03v.02h-.03l-.01.03-.06.01v.02l-.05.01-.01.03-.06.02-.01.02-.06.02-.02.03c-.03 0-.05.02-.08.03l-.02.03-.05.01-.02.03-.06.02-.01.02-.09.03-.01.03h-.03v.02h-.03v.01h-.03v.02h-.03l-.02.03-.08.03-.02.03h-.03v.01h-.03v.02h-.02v.01h-.03v.01h-.03l-.02.03h-.03v.02h-.03v.01H106v.02h-.03v.01h-.03v.02l-.06.01-.01.03-.06.02v.01h-.03v.02h-.03v.01h-.03v.01h-.03v.02l-.06.01v.02l-.06.01v.02l-.08.03v.01l-.06.02v.01l-.06.02v.01h-.03v.02h-.03v.01h-.03v.01h-.02v.02l-.1.03v.01l-.05.02v.01h-.04v.02h-.03v.01H105v.02h-.03v.01l-.09.03v.02h-.04v.01h-.03v.01l-.09.03v.02h-.04v.01l-.06.02v.01h-.04v.02l-.06.01v.02h-.05v.01l-.05.02v.01h-.05v.02h-.06v.02l-.26.1h-.02v.02h-.05v.02h-.03v.01l-.07.02v.01l-.09.02h-.03v.02l-.08.02v.01h-.03V62l-.09.01v.02h-.04v.01h-.03v.02h-.05v.01h-.04v.02h-.04v.01h-.05v.02h-.04v.01h-.03v.02h-.09v.02h-.04v.02h-.04v.01h-.05v.02h-.06v.01h-.04v.02h-.04v.01h-.05v.02h-.04v.01h-.04v.02l-.15.02v.02l-.1.02-.2.05v.02l-.12.01c-.2.07-.44.11-.64.18l-.28.04v.02h-.07c-.11.03-.26.05-.38.09h-.08c-.18.05-.4.05-.59.1h-.11v.01h-.13v.02h-.13v.01h-.15v.02h-.17v.01h-.2v.02l-.44.01h-.2c-.12.03-.31.02-.45.02h-.2v-.02h-.4v-.01h-.25v-.02h-.19v-.01h-.17v-.02h-.15v-.01h-.13v-.02h-.13c-.15-.04-.36-.04-.5-.09l-.2-.01c-.16-.05-.36-.07-.52-.12l-.14-.01v-.02l-.25-.04v-.02h-.06v-.01h-.06v-.02h-.06v-.01h-.05v-.01a62.2 62.2 0 0 1-.18-.03v-.02l-.16-.03v-.01l-.1-.02v-.01h-.04v-.02h-.05v-.01h-.06v-.02h-.04v-.01h-.04v-.02h-.1v-.02h-.05v-.02h-.04v-.01h-.04v-.02h-.05v-.01h-.06v-.02l-.08-.01v-.02h-.03v-.01l-.09-.02v-.01h-.04v-.01h-.05v-.02h-.04v-.02h-.07v-.02a5.03 5.03 0 0 0-.13-.03v-.02h-.03v-.01l-.09-.02V62h-.03v-.02h-.04v-.01h-.03v-.02h-.05v-.01h-.04v-.02h-.03v-.01h-.04v-.01l-.07-.02v-.01h-.03v-.02h-.05v-.01l-.05-.02v-.01h-.05v-.02h-.03v-.01h-.04v-.02l-.06-.01v-.02h-.04v-.01h-.03v-.02l-.06-.01v-.02h-.07v-.02a.98.98 0 0 0-.06-.02v-.01h-.04v-.02h-.03v-.01l-.1-.03v-.02h-.03v-.01a2.96 2.96 0 0 0-.1-.03v-.02h-.02v-.01l-.09-.03v-.01l-.06-.02v-.01h-.04v-.02l-.09-.03v-.01h-.03v-.02h-.03v-.01h-.02v-.02h-.03v-.01h-.03v-.02h-.03v-.01h-.03l-.01-.03-.24-.1v-.02h-.03v-.01h-.03v-.03h-.04v-.02h-.03v-.01h-.03v-.01h-.03V61h-.03v-.03h-.04v-.01h-.03v-.02h-.03v-.01h-.03l-.01-.03h-.03v-.02h-.03v-.01h-.03v-.02h-.03l-.01-.02h-.03v-.02h-.03l-.01-.03-.1-.03v-.03l-.06-.01-.02-.03-.08-.03-.02-.03h-.03v-.02h-.03l-.04-.02a.77.77 0 0 0-.02-.03h-.02v-.02h-.03l-.02-.03-.06-.01v-.02l-.04-.01-.02-.03-.05-.02-.02-.02h-.03l-.01-.03h-.03a.77.77 0 0 0-.02-.03l-.05-.02-.02-.03h-.03l-.01-.03h-.03v-.01l-.04-.02-.02-.02h-.03l-.01-.04h-.05v-.02l-.05-.02-.02-.03h-.03l-.03-.04h-.03v-.03l-.05-.02V60h-.03l-.02-.03h-.03l-.01-.03h-.03a.77.77 0 0 0-.01-.03h-.03l-.03-.04h-.03v-.02l-.05-.01v-.03h-.04c0-.02-.02-.03-.03-.04h-.03a.77.77 0 0 0-.01-.03h-.03l-.03-.05h-.03l-.01-.03h-.03l-.03-.04h-.03l-.01-.03h-.03a.77.77 0 0 0-.02-.03l-.04-.02-.03-.04h-.03l-.03-.04h-.03c0-.02-.02-.03-.03-.05h-.03l-.03-.04h-.02l-.03-.05h-.03l-.03-.04h-.03l-.04-.06h-.03l-.03-.04h-.03l-.03-.05h-.03l-.04-.05H88l-.05-.06h-.02l-.02-.03h-.01l-.02-.03h-.03l-.04-.06h-.03l-.01-.03h-.02l-.01-.03h-.03l-.05-.06h-.02a.4.4 0 0 1-.02-.03.67.67 0 0 1-.04-.03v-.01h-.03l-.06-.07h-.03l-.06-.08h-.03l-.07-.08h-.03l-.07-.1h-.03a3.1 3.1 0 0 0-.07-.08h-.03l-.09-.1h-.03l-.04-.06-.06-.05v-.01h-.03l-.1-.12h-.03l-.06-.07-.14-.12-.13-.15h-.03a30.7 30.7 0 0 0-.25-.26c-.2-.15-.37-.36-.55-.54l-.3-.3v-.02l-.04-.02-.04-.06-.2-.19v-.03l-.2-.19v-.03l-.12-.1v-.02l-.03-.01v-.03l-.15-.13v-.03l-.11-.1v-.03l-.12-.1v-.03l-.1-.1v-.02a7.99 7.99 0 0 0-.1-.09v-.03l-.09-.07v-.03l-.04-.03-.03-.05h-.02v-.02l-.08-.08v-.03l-.08-.06v-.02a3.78 3.78 0 0 0-.07-.06v-.03l-.07-.06v-.03l-.08-.06v-.03l-.07-.06v-.03a1.26 1.26 0 0 0-.06-.04v-.03l-.07-.06v-.03a.67.67 0 0 1-.04-.03v-.03c-.02 0-.03-.02-.05-.03l-.01-.05a.77.77 0 0 1-.03-.02l-.04-.13h-.02v-.03h-.01v-.04h-.02v-.05h-.01v-.06H83v-.07H83v-.13c0-.17 0-.32.04-.44h.02v-.05h.01l.02-.05h.01l.02-.08.02-.01.02-.06.03-.02v-.02l.03-.02v-.03l.03-.01.01-.05c.02 0 .03-.02.05-.03v-.03l.05-.04.02-.04.03-.02v-.03l.03-.01v-.02l.03-.01v-.03l.05-.05v-.02l.06-.05v-.03l.07-.06v-.03l.06-.04v-.03l.09-.07v-.03l.03-.02v-.01l.04-.03v-.03l.05-.03.02-.04h.02v-.03l.09-.08v-.02l.1-.1v-.02l.11-.1v-.03l.13-.12v-.03l.14-.12v-.01l.03-.02v-.03l.2-.19v-.03l.48-.47v-.02l.26-.24c.11-.12.21-.24.35-.34l.13-.14.17-.15.08-.09h.02l.12-.13h.03l.1-.12h.03l.1-.12h.03l.07-.08h.03l.08-.1h.02l.08-.08h.03l.06-.07h.02l.06-.08h.03l.06-.07h.03l.06-.07h.02l.05-.06h.03l.04-.06h.03l.06-.07h.03c0-.02.02-.03.03-.05h.03l.01-.03h.02l.01-.02h.03l.04-.06h.03l.02-.03.04-.02.04-.06h.03l.03-.04.05-.02v-.02H88c0-.02.02-.03.03-.05h.03l.02-.04h.03l.03-.05h.03l.03-.04h.03l.03-.04h.03c0-.02.02-.03.03-.05h.03l.03-.04h.03l.01-.03h.03c0-.02.02-.03.03-.05h.03l.01-.02h.03l.03-.05h.03l.01-.03h.03l.03-.04h.03l.02-.03h.02l.03-.05h.03l.02-.03h.03v-.01l.04-.01.01-.03h.03l.03-.05H89a.4.4 0 0 0 .02-.03l.04-.01v-.02h.03l.01-.02h.03l.02-.04h.02l.02-.02h.03l.01-.03h.03l.02-.03h.03l.01-.03h.03l.01-.03h.03l.02-.03.06-.02.01-.02h.03l.01-.03h.03l.02-.03h.03l.01-.03.06-.02v-.01l.04-.02.02-.03.05-.01v-.02l.05-.01.01-.03.06-.01v-.02l.04-.01.02-.03h.03v-.02h.03l.01-.03.06-.01.02-.03.05-.02.02-.02.06-.02.01-.03.09-.03.01-.03h.03v-.01h.03l.02-.03.08-.03.02-.03h.03v-.01h.02v-.02h.03v-.01h.03l.02-.03.08-.03.02-.03h.03v-.02h.03v-.01h.03v-.02h.03v-.01h.02l.02-.03h.03v-.01h.03v-.02H91v-.01h.02v-.02h.03v-.01h.03v-.02h.03l.02-.03h.03V46h.02v-.02h.03v-.01h.03v-.02l.09-.02v-.02l.06-.01v-.02l.06-.01v-.02h.03v-.01h.03v-.02h.02v-.01h.03v-.02l.09-.03v-.01h.03v-.02h.03v-.01h.03v-.02h.03v-.01h.03v-.01l.05-.02v-.01h.03v-.02h.05v-.01h.03v-.02h.02v-.01h.03v-.02l.09-.03v-.01l.13-.05h.03v-.02h.04v-.02l.06-.01v-.02h.05v-.01l.05-.02v-.01h.05v-.02l.06-.01v-.02h.04v-.01l.06-.02v-.01h.04v-.02h.07v-.02h.03v-.02l.08-.01v-.02h.04v-.01h.03v-.02H93v-.01h.03v-.02h.04v-.01h.03v-.02l.09-.01v-.02h.03v-.01h.04v-.02h.08V45l.13-.03v-.02h.02v-.01h.05v-.02h.04v-.01h.05v-.02h.04v-.01h.04v-.02h.03v-.01l.09-.02v-.01h.04v-.01h.05v-.02h.04v-.01h.06v-.02h.04v-.01h.05v-.02h.04v-.01h.04v-.02h.05v-.01l.14-.03v-.02l.1-.01v-.02l.2-.04v-.01l.12-.02v-.01h.05v-.02h.06v-.01h.05v-.02h.06v-.01l.12-.02v-.01h.05v-.02h.06v-.01h.06v-.02l.13-.01v-.01l.13-.02v-.01l1.17-.2.21-.02v-.02h.13v-.01h.13v-.02h.15v-.01h.17v-.02h.2v-.01h.24v-.02c.1-.02.35.04.4-.01zm.16 2.33c-.04.02-.15.01-.2.01l-.49.01v.02h-.19v.01h-.16v.02h-.13v.01h-.13v.02h-.11c-.18.05-.4.05-.57.1l-.16.02-.35.08H96v.02l-.19.03c-.22.07-.48.12-.7.2h-.05v.02H95v.01h-.04v.02h-.06v.01l-.09.02v.01h-.04V47h-.04V47h-.05v.02h-.09v.02l-.08.02v.01h-.05v.02h-.04v.01h-.04v.02h-.05v.01h-.03v.02l-.13.03v.01h-.03v.02l-.08.01v.02h-.08v.02h-.02v.02l-.1.01v.02h-.02v.01h-.04v.02l-.08.01v.02h-.03v.01h-.04v.02a.98.98 0 0 1-.06.01v.02h-.04v.01h-.03v.01h-.04v.02l-.06.01v.02h-.05v.01h-.03v.02a.98.98 0 0 1-.05.01v.02h-.05v.01h-.02v.02l-.06.01v.02h-.05v.01h-.03v.02l-.08.02v.02h-.05v.01l-.08.03v.02h-.03v.01h-.03v.02h-.03v.01h-.03v.02h-.03v.01h-.03v.02h-.04v.01l-.09.03v.01h-.03v.02h-.03v.01h-.03v.02h-.03v.01h-.02v.02h-.03l-.02.03-.06.01v.02l-.05.01v.02h-.03v.01h-.03v.02h-.03v.01h-.03v.01l-.06.02-.01.03h-.03v.01H92v.02h-.03v.01h-.03v.02a.98.98 0 0 1-.06.01l-.01.03h-.03v.02h-.03v.01h-.03v.02h-.03l-.01.02-.09.03-.02.03-.08.03-.02.03h-.03v.02h-.03v.02l-.1.03-.01.03-.06.02-.01.03-.06.01-.02.03-.05.02-.02.03h-.03v.01h-.03l-.01.03h-.03l-.02.03-.05.01v.02l-.05.01-.01.03-.06.02-.01.03h-.03l-.02.03h-.03l-.01.03h-.03l-.02.03h-.05l-.02.04h-.03l-.01.03h-.03l-.01.03h-.03v.01a.72.72 0 0 1-.05.02l-.01.03h-.03l-.02.02h-.02c0 .02-.01.02-.02.03h-.03v.02l-.04.01-.02.03h-.03l-.02.05h-.03l-.02.03h-.03v.01l-.04.02-.02.02h-.02l-.03.05h-.03l-.02.03h-.03l-.03.04h-.02l-.02.03h-.03a.67.67 0 0 0-.03.05h-.03l-.01.02h-.03l-.01.03-.05.02-.03.04h-.03l-.01.03h-.03a.4.4 0 0 0-.01.03l-.05.02-.03.04h-.02l-.03.04h-.03l-.02.03-.04.02-.05.06h-.02l-.03.04h-.03a.67.67 0 0 0-.03.04h-.03l-.04.06h-.03a1.3 1.3 0 0 1-.05.06h-.03c0 .02-.02.03-.03.05H89l-.05.05h-.03l-.05.08h-.03l-.05.06h-.03l-.04.05h-.03c0 .02-.02.04-.03.05h-.01l-.02.03h-.03l-.07.09h-.03l-.03.04h-.01l-.02.03h-.03l-.07.09h-.03a6.8 6.8 0 0 0-.07.09h-.03l-.09.1h-.03l-.1.12h-.03l-.1.11h-.03l-.11.14h-.02l-.01.02h-.03l-.19.2h-.03l-.29.32-.04.03v.01h-.03l-.1.12-.25.23v.03a25.61 25.61 0 0 0-.35.34l-.01.04-.18.16v.03l-.16.15v.03l-.11.1v.03l-.1.09v.03l-.1.09v.03l-.1.07v.02h.02a6.45 6.45 0 0 0 .1.11v.03h.02c0 .02.02.03.03.05l.05.04v.03l.1.09v.03l.12.1V54l.12.1v.03l.14.13v.03l.15.13c.04.04.06.1.1.13l.13.12v.03l.06.05.11.13.24.22v.03l.14.13.15.16h.03v.02c.02 0 .04.02.05.04l.33.34.04.01.17.2h.03l.13.14.05.01.01.03.06.05.04.05h.03l.09.1h.03l.08.11h.03l.1.1h.02l.03.05h.01l.02.02h.03l.07.1h.03l.01.02.05.03v.02h.03l.05.07h.03l.05.06h.03l.04.06h.03l.06.07h.03l.02.04h.03l.02.03h.01l.02.03h.03l.04.06h.03l.01.03.05.02.04.05h.03l.03.05h.03l.03.04h.03l.02.05h.03l.03.04h.03l.03.04h.03l.03.05.04.01.02.03h.03l.01.03h.03l.03.05h.03l.01.02h.03l.03.05h.03l.02.03h.02l.03.04h.03l.02.03h.03v.02l.04.01.01.03h.03l.03.04h.03l.02.03.04.02v.01h.03l.01.03h.03l.02.03h.03l.01.03h.03l.01.03h.03l.02.03h.03l.01.03h.03l.01.03.06.01.02.03H91l.01.03h.03l.01.03.06.02v.01l.05.02.01.02h.03v.02h.03l.01.03.06.01v.02l.05.01v.03h.04v.02h.03l.01.02.09.04.01.02.06.02.02.03.08.03.02.03.09.03.01.02.09.04.01.02.09.03v.02h.03v.01h.03l.01.03h.03v.02h.03v.01h.03v.02h.03v.01h.03v.02h.03v.01h.02v.01h.03v.02h.03l.02.03h.03v.01h.03v.02h.02v.01h.03v.02h.03v.01h.03v.02h.03v.01l.09.03v.02l.07.01v.01h.03v.02h.03v.01h.03v.02h.03v.01l.08.03v.02h.05v.01H93v.02c.03 0 .06.02.08.03v.01h.05v.01h.03v.02l.06.01v.02h.04v.01l.06.02v.01h.04v.02l.06.01v.02h.04v.01h.03v.02h.04v.01h.03v.02l.08.01v.02h.04v.01h.03v.01h.04v.02h.03v.01h.05v.02h.02v.01l.95.32h.06v.02h.04v.02h.06c.23.08.5.12.74.2l.29.04c.15.05.34.06.5.1h.1v.02h.1v.02h.1v.01h.13v.01h.13v.02h.15v.02h.17l.5.02c.15.04.37.02.53.02.1 0 .22 0 .3-.02h.3v-.01h.22v-.02h.16v-.01h.14v-.02h.26l.83-.14.95-.22v-.02l.16-.02v-.02l.1-.02h.04v-.02h.04v-.02l.2-.04v-.02h.05v-.01h.04v-.02h.05v-.01h.04V60h.05V60h.04v-.02h.04v-.01h.05v-.01l.13-.03v-.02h.02v-.01l.1-.02v-.01l.08-.02v-.01h.03v-.02h.04v-.01h.05v-.02h.03v-.01l.08-.02v-.01l.08-.01v-.02h.02v-.01h.05v-.02h.03v-.01h.04v-.02l.07-.01v-.02h.03v-.01h.05v-.02l.05-.01v-.02h.05v-.01l.06-.02v-.01h.04v-.01l.06-.02v-.01h.04v-.02l.06-.01v-.02h.04v-.01h.03v-.02l.09-.03v-.01h.04v-.02h.03v-.01h.03v-.02h.03v-.01l.09-.03v-.01h.04v-.02l.06-.01v-.02c.03 0 .06-.02.08-.03v-.01l.06-.02v-.01l.06-.02v-.01h.03v-.02h.06v-.02h.03v-.02l.23-.1.02-.03h.02v-.02h.03v-.01h.03v-.02h.06v-.02l.06-.02.01-.03.06-.01v-.02h.03v-.01h.03l.01-.03h.03v-.02h.03v-.01h.03v-.02h.03l.01-.02.1-.03v-.03l.1-.03v-.03h.04v-.02h.03l.01-.03.09-.02.01-.03.06-.02.02-.03.05-.01.02-.03h.03v-.02h.03l.01-.03h.03l.01-.03.06-.01v-.02l.05-.01.01-.03.06-.01.01-.03h.03l.02-.03h.02l.02-.03.06-.02.01-.03h.03l.02-.02h.02l.02-.03h.03v-.02l.04-.01.02-.03h.03l.01-.03h.03l.01-.03h.03l.02-.03h.03l.01-.03h.03l.02-.03h.02l.02-.03h.03v-.01l.04-.02.02-.03h.02l.03-.04h.03v-.02l.05-.01.01-.03h.03c0-.02.02-.03.03-.04h.03l.01-.03h.03l.03-.05h.03l.01-.03h.03a.67.67 0 0 0 .03-.04h.03l.02-.03h.03l.02-.04h.03l.03-.05h.03l.03-.04h.03c0-.02.02-.03.03-.05h.03l.03-.04h.03l.02-.04h.03l.03-.05h.03l.03-.04h.03l.04-.06h.03l.03-.05h.03l.04-.05h.03l.05-.06h.03l.04-.06h.03l.01-.03h.02l.01-.03h.03l.04-.06h.03l.06-.07h.03l.02-.03h.01l.02-.03h.02l.06-.07h.03l.07-.1h.03l.06-.06h.03l.09-.1h.03l.07-.1h.03l.1-.11h.03l.1-.12h.03l.13-.15h.03l.13-.14.04-.03v-.02h.03l.08-.09c.07-.07.15-.15.24-.21l.16-.18.35-.34v-.03c.02 0 .03-.02.04-.03l.08-.08c.13-.14.27-.26.38-.41l.13-.12v-.03l.13-.12v-.03l.1-.09v-.02l.09-.08v-.03h.01c.03-.03.06-.05.07-.1h-.01c-.02-.05-.05-.07-.07-.1h-.02v-.03h-.01l-.03-.05c-.02 0-.03-.02-.05-.03v-.02l-.1-.1v-.02l-.11-.1v-.03l-.13-.12v-.03l-.14-.12v-.03l-.14-.13-.02-.04-.03-.02-.05-.07-.13-.12v-.03a33.21 33.21 0 0 1-.12-.12l-.22-.2v-.03l-.17-.16c-.11-.11-.2-.23-.34-.32l-.14-.16-.13-.12-.05-.06-.04-.02-.16-.17h-.03l-.14-.16h-.03l-.1-.12-.05-.02-.08-.1h-.03a9.39 9.39 0 0 0-.1-.1h-.02l-.07-.09h-.03l-.08-.09h-.02l-.02-.02-.04-.03v-.02h-.03l-.06-.07h-.03l-.06-.08h-.03l-.01-.03h-.02v-.02h-.04l-.06-.08h-.03l-.04-.06h-.03l-.04-.05h-.03l-.03-.05h-.03l-.04-.06h-.03l-.03-.04h-.03l-.04-.06h-.03l-.03-.04h-.03a.67.67 0 0 0-.03-.05h-.03a.67.67 0 0 0-.03-.04h-.03a.67.67 0 0 0-.03-.05h-.02l-.03-.04h-.03l-.03-.04-.05-.02-.01-.03h-.03l-.01-.03h-.03l-.03-.04h-.03l-.02-.03h-.03l-.02-.05h-.03l-.02-.02h-.03c0-.02-.02-.03-.03-.05h-.02l-.02-.03-.04-.01v-.02h-.03l-.02-.03h-.02l-.02-.02h-.03a.67.67 0 0 0-.03-.05h-.03l-.01-.03-.05-.01v-.02h-.02a.77.77 0 0 0-.02-.03h-.03l-.01-.03h-.03l-.02-.03h-.03v-.03l-.07-.01-.01-.03h-.03l-.02-.03h-.03v-.03h-.04a.77.77 0 0 0-.01-.03l-.06-.01v-.02l-.04-.01-.02-.03-.06-.02v-.01l-.04-.02-.02-.02-.05-.02-.02-.03-.06-.01-.01-.03-.06-.02-.01-.03-.06-.01-.02-.03-.08-.03-.02-.03h-.03v-.01h-.03l-.01-.03h-.03v-.02h-.03v-.01h-.03v-.02h-.03l-.01-.03h-.03v-.01h-.03v-.02h-.03v-.01h-.03l-.01-.03h-.03v-.01h-.03V48h-.03V48h-.03v-.02h-.03l-.01-.03a2.96 2.96 0 0 0-.09-.03v-.01l-.06-.02v-.01l-.05-.02v-.01h-.03v-.01h-.03v-.02h-.03v-.01h-.03v-.02h-.03v-.01l-.09-.03v-.02l-.06-.01v-.02h-.03v-.01h-.02v-.02h-.03v-.01h-.03v-.01h-.03v-.02l-.06-.01v-.02h-.03v-.01h-.04v-.02h-.03v-.01l-.09-.03v-.02h-.04v-.01h-.03v-.02l-.06-.01v-.02h-.04v-.01h-.03v-.02h-.03v-.01h-.03v-.01h-.04v-.02h-.03v-.01h-.05v-.02l-.05-.01v-.02h-.05v-.01h-.03v-.02h-.04v-.01h-.03v-.02l-.07-.01v-.02h-.05v-.01h-.02v-.02h-.05-.03v-.02l-.08-.02v-.01h-.03v-.02c-.05 0-.09-.02-.13-.03v-.01h-.03v-.02l-.3-.09c-.27-.1-.56-.16-.84-.26h-.05v-.01h-.06v-.02h-.06v-.01h-.06v-.02h-.06v-.01h-.07c-.14-.05-.33-.07-.48-.12a23.3 23.3 0 0 0-.26-.03c-.15-.04-.34-.04-.5-.09h-.13v-.01h-.13v-.02h-.16v-.01h-.19v-.02h-.23c-.09-.02-.23 0-.35-.01l-.4-.01zm-.41 1.78c.16 0 .47-.02.6.02.24.07.46.18.6.36l.06.06v.03l.05.03.01.06.03.02.02.05h.01l.02.06h.01v.05h.01v.03h.02v.04h.01v.06a1 1 0 0 1 0 .57v.06c-.05.16-.14.3-.23.42a.74.74 0 0 1-.03.02l-.09.1h-.02l-.05.06h-.03l-.01.03-.06.02-.01.02h-.03v.02l-.1.03v.01l-.12.03v.02l-.13.01v.02l-.61.02c-.07.03-.17.04-.23.06h-.08v.02l-.1.01v.02h-.04v.01l-.15.03v.02h-.03v.01l-.08.02v.01l-.06.02v.01h-.05v.02l-.08.02v.02h-.03v.01h-.03v.02h-.03v.01h-.03v.02h-.03v.01H97l-.01.03-.06.02-.02.02-.05.02v.01l-.05.02-.01.03h-.03l-.03.04h-.03l-.01.03h-.03l-.05.06h-.03c0 .02-.02.04-.04.06h-.03l-.1.12h-.03l-.08.1-.03.01v.03l-.03.02v.01l-.09.08v.02l-.06.05v.03l-.04.03-.02.04-.03.02v.02l-.03.02v.03l-.04.03-.01.06-.03.01-.02.05h-.01l-.03.08-.03.02-.01.06h-.02v.03h-.01l-.03.09h-.02v.04h-.01v.03h-.02l-.01.06h-.01l-.12.35-.02.12c-.1.34-.12.97-.01 1.33l.03.19h.01v.04h.02v.05h.01v.04h.02v.05h.01l.02.08h.01v.03h.02v.05h.01v.03h.02v.04l.04.09h.01v.03h.02v.03h.01v.03h.02v.03h.01v.02h.02v.04h.01v.02l.03.02.01.06.03.01v.03l.03.02v.02l.03.02v.03h.02l.01.04.03.02v.03l.04.03v.03l.06.04v.03l.09.07v.03l.09.07.16.18h.02l.08.09h.02l.03.04h.03l.03.05h.03l.03.04h.03l.01.03h.03l.02.03.04.01v.02l.06.01.01.03.06.02.02.03h.03v.01h.02v.02h.03v.01h.03v.02h.03v.01l.09.03v.01l.07.02v.01h.03v.02h.05v.01h.02v.02h.05v.01h.04v.02h.04v.01h.05v.02h.04v.01l.51.1h.16v.02c.07.02.33 0 .38-.02h.16v-.01l.2-.02.52-.14c.52-.23.98-.53 1.3-.97l.06-.04v-.03l.04-.03v-.03a.67.67 0 0 1 .04-.03v-.03l.03-.02.02-.04h.01l.02-.06.02-.01.02-.06.03-.02v-.02h.01v-.03h.02v-.03h.01v-.03h.02v-.03l.03-.02v-.04h.01v-.03h.01l.03-.09h.02v-.04h.01v-.03h.02v-.05h.01v-.03h.02v-.04h.01v-.04h.02v-.05l.13-.52.01-.5h.02v-.12-.06h.02v-.06h.02l.01-.09h.02v-.02h.01V53h.02v-.03h.01v-.03l.03-.01.02-.06.02-.02v-.02c.02-.02.03-.03.05-.03v-.03l.07-.06.12-.13h.02l.02-.03.04-.02v-.01h.03l.02-.03.06-.02v-.01l.08-.03v-.02l.13-.02v-.02l.16-.01v-.02c.07-.02.26 0 .3.02h.1c.17.05.33.12.46.22l.04.05h.03l.02.03.06.05v.03l.05.04v.03l.05.03v.03l.03.01.01.06h.02v.03h.01l.03.09h.01v.04h.02v.05h.01v.06h.02v.05h.01v.1h.02v.43s-.02 0-.02.03v.18h-.01v.13h-.02v.12h-.01v.1h-.02v.09h-.01v.07h-.02v.07h-.01v.08h-.02v.13h-.02v.06h-.02v.04h-.01v.06h-.02v.06h-.01v.04h-.02v.05h-.01v.04h-.02v.05h-.01v.04h-.02v.04l-.04.13h-.01v.04h-.02v.04h-.01v.03h-.02v.04h-.01l-.02.06h-.01v.05h-.02v.02l-.02.08h-.02c0 .03-.02.06-.03.08h-.01v.03h-.02v.03h-.01v.03h-.02v.03h-.01V56h-.01v.03h-.02v.03l-.03.02v.02h-.01v.03h-.02v.03h-.01v.03l-.03.02-.02.06-.02.01v.03h-.02v.03h-.01l-.02.04-.03.02-.01.06h-.02l-.01.04-.03.02v.02l-.04.03v.03l-.03.02v.03c-.02 0-.03.02-.05.03v.02l-.02.02v.03l-.06.04v.03l-.05.03v.03l-.07.06v.03l-.07.06v.03l-.09.07-.04.06h-.02v.03l-.13.12-.07.08h-.03l-.07.1c-.02 0-.04.02-.06.04v.01h-.03l-.07.09h-.03l-.05.06h-.02l-.05.06h-.03a.67.67 0 0 0-.02.04h-.03l-.03.04h-.03l-.03.05h-.03l-.01.03h-.03l-.02.03h-.03l-.01.03h-.03l-.02.02h-.03l-.01.03h-.03l-.01.03-.06.02-.02.03-.05.01-.02.03h-.03v.02h-.03l-.01.03h-.03v.01h-.03v.02h-.03v.01H101v.01h-.03l-.01.03-.06.02v.01l-.09.03v.02h-.04v.01h-.03v.02l-.09.03v.01h-.04v.02h-.06v.02h-.04v.02h-.03v.01h-.04v.02h-.03v.01l-.09.02v.01h-.03v.02l-.09.01v.02h-.04v.01h-.04v.02h-.05v.01l-.1.02-.1.02v.02h-.06v.01h-.06v.02h-.07v.01h-.06v.02h-.07v.01h-.07v.02h-.09v.01h-.09v.02h-.1v.01h-.12v.02h-.16v.01h-.26v.02c-.07.02-.28 0-.33-.02-.08-.02-.2 0-.28-.02h-.27v-.02h-.1v-.02h-.1v-.01h-.08l-.38-.1-.11-.02v-.02h-.05v-.01h-.04v-.02c-.06 0-.13-.02-.19-.04v-.01h-.03v-.02l-.13-.03v-.01h-.03v-.02h-.04v-.01h-.03v-.02h-.04v-.01l-.06-.01v-.02h-.05v-.02l-.08-.02v-.02h-.03v-.01h-.03v-.02h-.03v-.01l-.06-.02v-.01h-.03v-.02h-.03v-.01H96v-.02h-.03v-.01h-.02v-.02l-.06-.01-.02-.03c-.03 0-.06-.02-.08-.03l-.02-.03-.06-.01-.01-.03-.06-.02-.01-.03h-.03l-.02-.02h-.03a.77.77 0 0 0-.01-.03h-.03l-.01-.03h-.03l-.02-.03h-.03c0-.02-.02-.03-.03-.05h-.03l-.01-.03h-.03l-.01-.03-.05-.01a.67.67 0 0 0-.03-.04h-.03v-.03h-.02l-.02-.03h-.03l-.06-.08h-.02l-.08-.08h-.03l-.01-.03h-.02c-.03-.05-.07-.1-.11-.13h-.03a.67.67 0 0 0-.03-.05l-.1-.09v-.03l-.18-.16v-.03l-.07-.06v-.02l-.07-.06v-.03l-.06-.05v-.03l-.04-.03v-.02l-.05-.04v-.02l-.04-.03v-.03l-.03-.02-.01-.04h-.02v-.03l-.03-.02v-.02a.77.77 0 0 1-.03-.02v-.03l-.03-.01v-.03a.77.77 0 0 1-.02-.02l-.02-.06-.03-.01v-.03l-.03-.01-.03-.1a.77.77 0 0 1-.02 0v-.04h-.02v-.03h-.01v-.02h-.02v-.03h-.01v-.03l-.03-.02-.02-.06h-.01v-.03h-.02l-.02-.08h-.02v-.05h-.01v-.03h-.02l-.03-.09h-.01v-.04h-.02v-.03h-.01v-.04h-.02v-.03h-.01v-.05h-.02v-.02-.05h-.02v-.03h-.02l-.01-.09h-.02v-.04h-.01v-.05h-.02v-.04h-.01v-.04h-.02v-.05h-.01v-.05h-.02v-.05-.06h-.02v-.06h-.02v-.06h-.01v-.05h-.02l-.01-.14h-.02v-.07h-.01l-.02-.18h-.01v-.1h-.02v-.12l-.02-.36h-.02v-.15c0-.12-.01-.27.02-.37v-.21h.01v-.15h.02v-.12h.01v-.1h.02v-.09c.03-.13.06-.29.1-.4v-.07h.01l.02-.1h.01v-.05h.01v-.04h.02l.04-.19h.02v-.03h.01l.02-.09h.01v-.03h.02l.01-.08h.01l.02-.06h.01v-.05h.02l.01-.05h.02v-.05h.01v-.03h.02l.01-.06h.02v-.03-.03h.02v-.03h.02v-.02h.01v-.03h.02v-.03h.01v-.03h.02v-.03h.01v-.03h.02v-.03l.03-.02.02-.08.03-.02v-.03h.02v-.03l.03-.01.01-.06.03-.01v-.03l.03-.02v-.03l.03-.01v-.03l.03-.02v-.02l.03-.02v-.03l.02-.01v-.03l.05-.03v-.03l.03-.02v-.03l.04-.02v-.03l.06-.05v-.03l.06-.04v-.03l.07-.06v-.03l.1-.09v-.03l.23-.22.14-.14h.03l.1-.12h.03l.05-.07h.03l.05-.06h.02l.03-.05h.03l.03-.04h.03l.03-.04h.03l.01-.03h.03l.03-.05h.03l.02-.03.04-.01v-.02h.03l.01-.02.06-.02v-.02h.05v-.04l.07-.01.01-.03.06-.02v-.01h.03l.01-.03h.03v-.02h.03v-.01h.03v-.02H96v-.01h.03l.01-.03.06-.01v-.02l.09-.03v-.01h.04v-.02h.03v-.01l.09-.03v-.02h.04v-.01l.06-.02v-.01l.64-.22h.06v-.02h.11v-.02l.14-.02v-.01h.07v-.02h.08v-.01h.1v-.02h.08v-.01h.11v-.02h.14v-.01c.05-.02.13.02.17-.02z"/>
  <path fill="#D9E0E3" fill-rule="evenodd" d="M65 138h66v6H65v-6z"/>
</svg>
