<!--?xml version="1.0" encoding="utf-8"?-->
<!-- Generator: Adobe Illustrator 17.0.0, SVG Export Plug-In . SVG Version: 6.00 Build 0)  -->

<svg version="1.1" id="Isolation_Mode" xmlns="http://www.w3.org/2000/svg" xmlns:xlink="http://www.w3.org/1999/xlink" x="0px" y="0px" width="280px" height="429px" viewBox="0 0 280 429" enable-background="new 0 0 280 429" xml:space="preserve" class="" style="">
<g>
	<path fill="#CDD5D7" d="M13.028,77.059L13.028,77.059L7.367,77.059L7.367,77.059L7.367,58.501L7.367,58.501L13.028,58.501L
		13.028,58.501Z" class="lioCVExk_0"></path>
	<path fill="#CDD5D7" d="M13.028,125.747L13.028,125.747L7.367,125.747L7.367,125.747L7.367,94.447L7.367,94.447L
		13.028,94.447L13.028,94.447Z" class="lioCVExk_1"></path>
	<path fill="#CDD5D7" d="M13.028,162.854L13.028,162.854L7.367,162.854L7.367,162.854L7.367,132.995L7.367,132.995L
		13.028,132.995L13.028,132.995Z" class="lioCVExk_2"></path>
	<path fill="#CDD5D7" d="M214.78,397.414c0,16.586-13.565,30.141-30.179,30.141H39.664c-16.577,0-30.141-13.555-30.141-30.141
		V33.654c0-16.577,13.565-30.141,30.141-30.141h144.938c16.614,0,30.179,13.565,30.179,30.141V397.414z" class="lioCVExk_3"></path>
	<path fill="#E5E8EC" d="M39.664,423.31c-14.277,0-25.888-11.619-25.888-25.896V33.654c0-14.268,11.611-25.888,25.888-25.888
		h144.938c14.296,0,25.907,11.621,25.907,25.888v363.76c0,14.277-11.611,25.896-25.907,25.896H39.664z" class="lioCVExk_4"></path>
	<path fill="#FFFFFF" width="178.603" height="318.338" d="M22.831 57.041 L201.434 57.041 L201.434 375.379 L22.831 375.379 Z" class="lioCVExk_5"></path>
	<g>
		<path fill="#596273" d="M83.624,31.343c0,2.238-1.806,4.053-4.051,4.053c-2.228,0-4.072-1.815-4.072-4.053
			c0-2.245,1.843-4.07,4.072-4.07C81.818,27.273,83.624,29.098,83.624,31.343z" class="lioCVExk_6"></path>
		<path fill="#596273" d="M114.461,17.223c0,1.451-1.168,2.619-2.612,2.619c-1.441,0-2.61-1.168-2.61-2.619
			c0-1.434,1.168-2.602,2.61-2.602C113.293,14.621,114.461,15.789,114.461,17.223z" class="lioCVExk_7"></path>
		<path fill="#596273" d="M127.878,30.96c0,1.051-0.839,1.918-1.916,1.918H98.139c-1.077,0-1.954-0.867-1.954-1.918l0,0
			c0-1.086,0.877-1.935,1.954-1.935h27.823C127.039,29.025,127.878,29.874,127.878,30.96L127.878,30.96z" class="lioCVExk_8"></path>
	</g>
	<path fill="#CDD5D7" d="M128.372,401.667c0,1.927-1.552,3.479-3.487,3.479H99.38c-1.916,0-3.487-1.552-3.487-3.479v-6.973
		c0-1.918,1.57-3.47,3.487-3.47h25.505c1.935,0,3.487,1.552,3.487,3.47V401.667z" class="lioCVExk_9"></path>
</g>
<g>
	<g>
		<path fill="#F3F3F3" width="153.3" height="29.603" d="M35.209 141.139 L188.50900000000001 141.139 L188.50900000000001 170.74200000000002 L35.209 170.74200000000002 Z" class="lioCVExk_10"></path>
		<path fill="#D9E1E4" width="30.214" height="29.603" d="M35.209 141.139 L65.423 141.139 L65.423 170.74200000000002 L35.209 170.74200000000002 Z" class="lioCVExk_11"></path>
		<path fill="none" stroke="#D9E1E4" stroke-width="3" d="M76.689,152.421L148.472,152.421" class="lioCVExk_12"></path>
		<path fill="none" stroke="#D9E1E4" stroke-width="3" d="M76.689,160.308L128.299,160.308" class="lioCVExk_13"></path>
		<path fill="none" stroke="#D9E1E4" stroke-width="3" d="M163.57,155.872L179.763,155.872" class="lioCVExk_14"></path>
	</g>
	<g>
		<path fill="#FFFFFF" width="153.3" height="29.603" d="M35.209 172.183 L188.50900000000001 172.183 L188.50900000000001 201.786 L35.209 201.786 Z" class="lioCVExk_15"></path>
		<path fill="#F3F3F3" width="30.214" height="29.603" d="M35.209 172.183 L65.423 172.183 L65.423 201.786 L35.209 201.786 Z" class="lioCVExk_16"></path>
		<path fill="none" stroke="#D9E1E4" stroke-width="3" d="M76.689,183.465L148.472,183.465" class="lioCVExk_17"></path>
		<path fill="none" stroke="#D9E1E4" stroke-width="3" d="M76.689,191.352L128.299,191.352" class="lioCVExk_18"></path>
		<path fill="none" stroke="#D9E1E4" stroke-width="3" d="M163.57,186.916L179.763,186.916" class="lioCVExk_19"></path>
	</g>
	<g>
		<path fill="#F3F3F3" width="153.3" height="29.612" d="M35.209 203.22 L188.50900000000001 203.22 L188.50900000000001 232.832 L35.209 232.832 Z" class="lioCVExk_20"></path>
		<path fill="#D9E1E4" width="30.214" height="29.612" d="M35.209 203.22 L65.423 203.22 L65.423 232.832 L35.209 232.832 Z" class="lioCVExk_21"></path>
		<path fill="none" stroke="#D9E1E4" stroke-width="3" d="M76.689,214.502L148.472,214.502" class="lioCVExk_22"></path>
		<path fill="none" stroke="#D9E1E4" stroke-width="3" d="M76.689,222.389L128.299,222.389" class="lioCVExk_23"></path>
		<path fill="none" stroke="#D9E1E4" stroke-width="3" d="M163.57,217.953L179.763,217.953" class="lioCVExk_24"></path>
	</g>
	<g>
		<path fill="#FFFFFF" width="153.3" height="29.612" d="M35.209 234.264 L188.50900000000001 234.264 L188.50900000000001 263.87600000000003 L35.209 263.87600000000003 Z" class="lioCVExk_25"></path>
		<path fill="#F3F3F3" width="30.214" height="29.612" d="M35.209 234.264 L65.423 234.264 L65.423 263.87600000000003 L35.209 263.87600000000003 Z" class="lioCVExk_26"></path>
		<path fill="none" stroke="#D9E1E4" stroke-width="3" d="M76.689,245.546L148.472,245.546" class="lioCVExk_27"></path>
		<path fill="none" stroke="#D9E1E4" stroke-width="3" d="M76.689,253.433L128.299,253.433" class="lioCVExk_28"></path>
		<path fill="none" stroke="#D9E1E4" stroke-width="3" d="M163.57,248.997L179.763,248.997" class="lioCVExk_29"></path>
	</g>
	<g>
		<path fill="#FCBE13" width="153.264" height="29.622" d="M60.129 265.31 L213.393 265.31 L213.393 294.932 L60.129 294.932 Z" class="lioCVExk_30"></path>
		<path fill="#FECE40" width="30.179" height="29.622" d="M60.129 265.31 L90.30799999999999 265.31 L90.30799999999999 294.932 L60.129 294.932 Z" class="lioCVExk_31"></path>
		<path fill="none" stroke="#FFFFFF" stroke-width="3" d="M101.59,276.592L173.392,276.592" class="lioCVExk_32"></path>
		<path fill="none" stroke="#FFFFFF" stroke-width="3" d="M101.59,284.48L153.219,284.48" class="lioCVExk_33"></path>
		<path fill="none" stroke="#FFFFFF" stroke-width="3" d="M188.454,280.043L204.666,280.043" class="lioCVExk_34"></path>
	</g>
	<g>
		<path fill="#FFFFFF" width="153.3" height="29.622" d="M35.209 296.354 L188.50900000000001 296.354 L188.50900000000001 325.976 L35.209 325.976 Z" class="lioCVExk_35"></path>
		<path fill="#F3F3F3" width="30.214" height="29.622" d="M35.209 296.354 L65.423 296.354 L65.423 325.976 L35.209 325.976 Z" class="lioCVExk_36"></path>
		<path fill="none" stroke="#D9E1E4" stroke-width="3" d="M76.689,307.646L148.472,307.646" class="lioCVExk_37"></path>
		<path fill="none" stroke="#D9E1E4" stroke-width="3" d="M76.689,315.524L128.299,315.524" class="lioCVExk_38"></path>
		<path fill="none" stroke="#D9E1E4" stroke-width="3" d="M163.57,311.097L179.763,311.097" class="lioCVExk_39"></path>
	</g>
	<g>
		<path fill="#F3F3F3" width="153.3" height="29.612" d="M35.209 327.401 L188.50900000000001 327.401 L188.50900000000001 357.01300000000003 L35.209 357.01300000000003 Z" class="lioCVExk_40"></path>
		<path fill="#D9E1E4" width="30.214" height="29.612" d="M35.209 327.401 L65.423 327.401 L65.423 357.01300000000003 L35.209 357.01300000000003 Z" class="lioCVExk_41"></path>
		<path fill="none" stroke="#D9E1E4" stroke-width="3" d="M76.689,338.692L148.472,338.692" class="lioCVExk_42"></path>
		<path fill="none" stroke="#D9E1E4" stroke-width="3" d="M76.689,346.57L128.299,346.57" class="lioCVExk_43"></path>
		<path fill="none" stroke="#D9E1E4" stroke-width="3" d="M163.57,342.141L179.763,342.141" class="lioCVExk_44"></path>
	</g>
</g>
<g>
	<g>
		<path fill="#4778F4" d="M34.74,98.832c0,16.569,13.431,30,30,30h180c16.569,0,30-13.431,30-30s-13.431-30-30-30h-180
			C48.171,68.832,34.74,82.263,34.74,98.832C34.74,98.832,34.74,82.263,34.74,98.832z" class="lioCVExk_45"></path>
	</g>
	<path fill="none" stroke="#FFFFFF" stroke-width="5.5" d="M61.615,99.214L180.335,99.214" class="lioCVExk_46"></path>
	<g>
		<path fill="none" stroke="#FFFFFF" stroke-width="5.5" d="M251.956,96.146c0,6.782-5.513,12.279-12.305,12.279
			c-6.754,0-12.269-5.496-12.269-12.279s5.515-12.277,12.269-12.277C246.443,83.869,251.956,89.363,251.956,96.146z" class="lioCVExk_47"></path>
		<path fill="none" stroke="#FFFFFF" stroke-width="5.5" d="M245.822,105.357L255.04,114.568" class="lioCVExk_48"></path>
	</g>
</g>
<style data-made-with="vivus-instant">.lioCVExk_0{stroke-dasharray:49 51;stroke-dashoffset:50;}.start .lioCVExk_0{animation:lioCVExk_draw 1000ms ease-in-out 0ms forwards;}.lioCVExk_1{stroke-dasharray:74 76;stroke-dashoffset:75;}.start .lioCVExk_1{animation:lioCVExk_draw 1000ms ease-in-out 0ms forwards;}.lioCVExk_2{stroke-dasharray:72 74;stroke-dashoffset:73;}.start .lioCVExk_2{animation:lioCVExk_draw 1000ms ease-in-out 0ms forwards;}.lioCVExk_3{stroke-dasharray:1207 1209;stroke-dashoffset:1208;}.start .lioCVExk_3{animation:lioCVExk_draw 1000ms ease-in-out 0ms forwards;}.lioCVExk_4{stroke-dasharray:1181 1183;stroke-dashoffset:1182;}.start .lioCVExk_4{animation:lioCVExk_draw 1000ms ease-in-out 0ms forwards;}.lioCVExk_5{stroke-dasharray:994 996;stroke-dashoffset:995;}.start .lioCVExk_5{animation:lioCVExk_draw 1000ms ease-in-out 0ms forwards;}.lioCVExk_6{stroke-dasharray:26 28;stroke-dashoffset:27;}.start .lioCVExk_6{animation:lioCVExk_draw 1000ms ease-in-out 0ms forwards;}.lioCVExk_7{stroke-dasharray:17 19;stroke-dashoffset:18;}.start .lioCVExk_7{animation:lioCVExk_draw 1000ms ease-in-out 0ms forwards;}.lioCVExk_8{stroke-dasharray:68 70;stroke-dashoffset:69;}.start .lioCVExk_8{animation:lioCVExk_draw 1000ms ease-in-out 0ms forwards;}.lioCVExk_9{stroke-dasharray:87 89;stroke-dashoffset:88;}.start .lioCVExk_9{animation:lioCVExk_draw 1000ms ease-in-out 0ms forwards;}.lioCVExk_10{stroke-dasharray:366 368;stroke-dashoffset:367;}.start .lioCVExk_10{animation:lioCVExk_draw 1000ms ease-in-out 0ms forwards;}.lioCVExk_11{stroke-dasharray:120 122;stroke-dashoffset:121;}.start .lioCVExk_11{animation:lioCVExk_draw 1000ms ease-in-out 0ms forwards;}.lioCVExk_12{stroke-dasharray:72 74;stroke-dashoffset:73;}.start .lioCVExk_12{animation:lioCVExk_draw 1000ms ease-in-out 0ms forwards;}.lioCVExk_13{stroke-dasharray:52 54;stroke-dashoffset:53;}.start .lioCVExk_13{animation:lioCVExk_draw 1000ms ease-in-out 0ms forwards;}.lioCVExk_14{stroke-dasharray:17 19;stroke-dashoffset:18;}.start .lioCVExk_14{animation:lioCVExk_draw 1000ms ease-in-out 0ms forwards;}.lioCVExk_15{stroke-dasharray:366 368;stroke-dashoffset:367;}.start .lioCVExk_15{animation:lioCVExk_draw 1000ms ease-in-out 0ms forwards;}.lioCVExk_16{stroke-dasharray:120 122;stroke-dashoffset:121;}.start .lioCVExk_16{animation:lioCVExk_draw 1000ms ease-in-out 0ms forwards;}.lioCVExk_17{stroke-dasharray:72 74;stroke-dashoffset:73;}.start .lioCVExk_17{animation:lioCVExk_draw 1000ms ease-in-out 0ms forwards;}.lioCVExk_18{stroke-dasharray:52 54;stroke-dashoffset:53;}.start .lioCVExk_18{animation:lioCVExk_draw 1000ms ease-in-out 0ms forwards;}.lioCVExk_19{stroke-dasharray:17 19;stroke-dashoffset:18;}.start .lioCVExk_19{animation:lioCVExk_draw 1000ms ease-in-out 0ms forwards;}.lioCVExk_20{stroke-dasharray:366 368;stroke-dashoffset:367;}.start .lioCVExk_20{animation:lioCVExk_draw 1000ms ease-in-out 0ms forwards;}.lioCVExk_21{stroke-dasharray:120 122;stroke-dashoffset:121;}.start .lioCVExk_21{animation:lioCVExk_draw 1000ms ease-in-out 0ms forwards;}.lioCVExk_22{stroke-dasharray:72 74;stroke-dashoffset:73;}.start .lioCVExk_22{animation:lioCVExk_draw 1000ms ease-in-out 0ms forwards;}.lioCVExk_23{stroke-dasharray:52 54;stroke-dashoffset:53;}.start .lioCVExk_23{animation:lioCVExk_draw 1000ms ease-in-out 0ms forwards;}.lioCVExk_24{stroke-dasharray:17 19;stroke-dashoffset:18;}.start .lioCVExk_24{animation:lioCVExk_draw 1000ms ease-in-out 0ms forwards;}.lioCVExk_25{stroke-dasharray:366 368;stroke-dashoffset:367;}.start .lioCVExk_25{animation:lioCVExk_draw 1000ms ease-in-out 0ms forwards;}.lioCVExk_26{stroke-dasharray:120 122;stroke-dashoffset:121;}.start .lioCVExk_26{animation:lioCVExk_draw 1000ms ease-in-out 0ms forwards;}.lioCVExk_27{stroke-dasharray:72 74;stroke-dashoffset:73;}.start .lioCVExk_27{animation:lioCVExk_draw 1000ms ease-in-out 0ms forwards;}.lioCVExk_28{stroke-dasharray:52 54;stroke-dashoffset:53;}.start .lioCVExk_28{animation:lioCVExk_draw 1000ms ease-in-out 0ms forwards;}.lioCVExk_29{stroke-dasharray:17 19;stroke-dashoffset:18;}.start .lioCVExk_29{animation:lioCVExk_draw 1000ms ease-in-out 0ms forwards;}.lioCVExk_30{stroke-dasharray:366 368;stroke-dashoffset:367;}.start .lioCVExk_30{animation:lioCVExk_draw 1000ms ease-in-out 0ms forwards;}.lioCVExk_31{stroke-dasharray:120 122;stroke-dashoffset:121;}.start .lioCVExk_31{animation:lioCVExk_draw 1000ms ease-in-out 0ms forwards;}.lioCVExk_32{stroke-dasharray:72 74;stroke-dashoffset:73;}.start .lioCVExk_32{animation:lioCVExk_draw 1000ms ease-in-out 0ms forwards;}.lioCVExk_33{stroke-dasharray:52 54;stroke-dashoffset:53;}.start .lioCVExk_33{animation:lioCVExk_draw 1000ms ease-in-out 0ms forwards;}.lioCVExk_34{stroke-dasharray:17 19;stroke-dashoffset:18;}.start .lioCVExk_34{animation:lioCVExk_draw 1000ms ease-in-out 0ms forwards;}.lioCVExk_35{stroke-dasharray:366 368;stroke-dashoffset:367;}.start .lioCVExk_35{animation:lioCVExk_draw 1000ms ease-in-out 0ms forwards;}.lioCVExk_36{stroke-dasharray:120 122;stroke-dashoffset:121;}.start .lioCVExk_36{animation:lioCVExk_draw 1000ms ease-in-out 0ms forwards;}.lioCVExk_37{stroke-dasharray:72 74;stroke-dashoffset:73;}.start .lioCVExk_37{animation:lioCVExk_draw 1000ms ease-in-out 0ms forwards;}.lioCVExk_38{stroke-dasharray:52 54;stroke-dashoffset:53;}.start .lioCVExk_38{animation:lioCVExk_draw 1000ms ease-in-out 0ms forwards;}.lioCVExk_39{stroke-dasharray:17 19;stroke-dashoffset:18;}.start .lioCVExk_39{animation:lioCVExk_draw 1000ms ease-in-out 0ms forwards;}.lioCVExk_40{stroke-dasharray:366 368;stroke-dashoffset:367;}.start .lioCVExk_40{animation:lioCVExk_draw 1000ms ease-in-out 0ms forwards;}.lioCVExk_41{stroke-dasharray:120 122;stroke-dashoffset:121;}.start .lioCVExk_41{animation:lioCVExk_draw 1000ms ease-in-out 0ms forwards;}.lioCVExk_42{stroke-dasharray:72 74;stroke-dashoffset:73;}.start .lioCVExk_42{animation:lioCVExk_draw 1000ms ease-in-out 0ms forwards;}.lioCVExk_43{stroke-dasharray:52 54;stroke-dashoffset:53;}.start .lioCVExk_43{animation:lioCVExk_draw 1000ms ease-in-out 0ms forwards;}.lioCVExk_44{stroke-dasharray:17 19;stroke-dashoffset:18;}.start .lioCVExk_44{animation:lioCVExk_draw 1000ms ease-in-out 0ms forwards;}.lioCVExk_45{stroke-dasharray:564 566;stroke-dashoffset:565;}.start .lioCVExk_45{animation:lioCVExk_draw 1000ms ease-in-out 0ms forwards;}.lioCVExk_46{stroke-dasharray:119 121;stroke-dashoffset:120;}.start .lioCVExk_46{animation:lioCVExk_draw 1000ms ease-in-out 0ms forwards;}.lioCVExk_47{stroke-dasharray:78 80;stroke-dashoffset:79;}.start .lioCVExk_47{animation:lioCVExk_draw 1000ms ease-in-out 0ms forwards;}.lioCVExk_48{stroke-dasharray:14 16;stroke-dashoffset:15;}.start .lioCVExk_48{animation:lioCVExk_draw 1000ms ease-in-out 0ms forwards;}@keyframes lioCVExk_draw{100%{stroke-dashoffset:0;}}@keyframes lioCVExk_fade{0%{stroke-opacity:1;}92.3076923076923%{stroke-opacity:1;}100%{stroke-opacity:0;}}</style></svg>
