<svg 
 xmlns="http://www.w3.org/2000/svg"
 xmlns:xlink="http://www.w3.org/1999/xlink"
 width="322px" height="288px">
<path fill-rule="evenodd"  fill="rgb(239, 239, 239)"
 d="M0.187,16.000 L322.000,16.000 L322.000,61.000 L0.187,61.000 L0.187,16.000 Z"/>
<path fill-rule="evenodd"  fill="rgb(235, 235, 235)"
 d="M0.187,61.000 L322.000,61.000 L322.000,230.000 L0.187,230.000 L0.187,61.000 Z"/>
<path fill-rule="evenodd"  fill="rgb(0, 217, 199)"
 d="M44.656,165.000 L109.625,165.000 C117.081,165.000 123.125,171.044 123.125,178.500 C123.125,185.956 117.081,192.000 109.625,192.000 L44.656,192.000 C37.200,192.000 31.156,185.956 31.156,178.500 C31.156,171.044 37.200,165.000 44.656,165.000 Z"/>
<path fill-rule="evenodd"  fill="rgb(215, 215, 215)"
 d="M40.156,105.000 L147.094,105.000 C152.064,105.000 156.094,109.029 156.094,114.000 C156.094,118.971 152.064,123.000 147.094,123.000 L40.156,123.000 C35.186,123.000 31.156,118.971 31.156,114.000 C31.156,109.029 35.186,105.000 40.156,105.000 Z"/>
<path fill-rule="evenodd"  fill="rgb(215, 215, 215)"
 d="M38.656,31.000 L62.656,31.000 C66.798,31.000 70.156,34.358 70.156,38.500 C70.156,42.642 66.798,46.000 62.656,46.000 L38.656,46.000 C34.514,46.000 31.156,42.642 31.156,38.500 C31.156,34.358 34.514,31.000 38.656,31.000 Z"/>
<path fill-rule="evenodd"  fill="rgb(215, 215, 215)"
 d="M33.556,135.000 L132.694,135.000 C134.019,135.000 135.094,136.075 135.094,137.400 L135.094,137.413 C135.094,138.738 134.019,139.813 132.694,139.813 L33.556,139.813 C32.231,139.813 31.156,138.738 31.156,137.413 L31.156,137.400 C31.156,136.075 32.231,135.000 33.556,135.000 Z"/>
<path fill-rule="evenodd"  fill="rgb(215, 215, 215)"
 d="M211.063,251.000 L282.031,251.000 C285.345,251.000 288.031,253.686 288.031,257.000 C288.031,260.314 285.345,263.000 282.031,263.000 L211.063,263.000 C207.749,263.000 205.063,260.314 205.063,257.000 C205.063,253.686 207.749,251.000 211.063,251.000 Z"/>
<path fill-rule="evenodd"  fill="rgb(215, 215, 215)"
 d="M241.462,273.000 L284.631,273.000 C285.957,273.000 287.031,274.075 287.031,275.400 L287.031,275.600 C287.031,276.925 285.957,278.000 284.631,278.000 L241.462,278.000 C240.137,278.000 239.063,276.925 239.063,275.600 L239.063,275.400 C239.063,274.075 240.137,273.000 241.462,273.000 Z"/>
<path fill-rule="evenodd"  fill="rgb(215, 215, 215)"
 d="M204.463,283.000 L284.631,283.000 C285.957,283.000 287.031,284.075 287.031,285.400 L287.031,285.600 C287.031,286.925 285.957,288.000 284.631,288.000 L204.463,288.000 C203.137,288.000 202.063,286.925 202.063,285.600 L202.063,285.400 C202.063,284.075 203.137,283.000 204.463,283.000 Z"/>
<path fill-rule="evenodd"  fill="rgb(215, 215, 215)"
 d="M33.556,283.000 L113.725,283.000 C115.050,283.000 116.125,284.075 116.125,285.400 L116.125,285.600 C116.125,286.925 115.050,288.000 113.725,288.000 L33.556,288.000 C32.231,288.000 31.156,286.925 31.156,285.600 L31.156,285.400 C31.156,284.075 32.231,283.000 33.556,283.000 Z"/>
<path fill-rule="evenodd"  fill="rgb(215, 215, 215)"
 d="M33.556,144.000 L101.725,144.000 C103.050,144.000 104.125,145.075 104.125,146.400 L104.125,146.600 C104.125,147.925 103.050,149.000 101.725,149.000 L33.556,149.000 C32.231,149.000 31.156,147.925 31.156,146.600 L31.156,146.400 C31.156,145.075 32.231,144.000 33.556,144.000 Z"/>
<path fill-rule="evenodd"  fill="rgb(215, 215, 215)"
 d="M111.525,144.000 L132.694,144.000 C134.019,144.000 135.094,145.075 135.094,146.400 L135.094,146.600 C135.094,147.925 134.019,149.000 132.694,149.000 L111.525,149.000 C110.200,149.000 109.125,147.925 109.125,146.600 L109.125,146.400 C109.125,145.075 110.200,144.000 111.525,144.000 Z"/>
<path fill-rule="evenodd"  fill="rgb(215, 215, 215)"
 d="M202.463,36.000 L223.662,36.000 C224.988,36.000 226.062,37.075 226.062,38.400 L226.062,38.600 C226.062,39.925 224.988,41.000 223.662,41.000 L202.463,41.000 C201.137,41.000 200.063,39.925 200.063,38.600 L200.063,38.400 C200.063,37.075 201.137,36.000 202.463,36.000 Z"/>
<path fill-rule="evenodd"  fill="rgb(215, 215, 215)"
 d="M172.494,36.000 L193.663,36.000 C194.988,36.000 196.062,37.075 196.062,38.400 L196.062,38.600 C196.062,39.925 194.988,41.000 193.663,41.000 L172.494,41.000 C171.168,41.000 170.094,39.925 170.094,38.600 L170.094,38.400 C170.094,37.075 171.168,36.000 172.494,36.000 Z"/>
<path fill-rule="evenodd"  fill="rgb(237, 28, 36)"
 d="M16.687,-0.000 C19.173,-0.000 21.188,2.015 21.188,4.500 C21.188,6.985 19.173,9.000 16.687,9.000 C14.202,9.000 12.187,6.985 12.187,4.500 C12.187,2.015 14.202,-0.000 16.687,-0.000 Z"/>
<path fill-rule="evenodd"  fill="rgb(252, 190, 19)"
 d="M30.672,-0.000 C33.149,-0.000 35.156,2.015 35.156,4.500 C35.156,6.985 33.149,9.000 30.672,9.000 C28.195,9.000 26.188,6.985 26.188,4.500 C26.188,2.015 28.195,-0.000 30.672,-0.000 Z"/>
<path fill-rule="evenodd"  fill="rgb(141, 198, 63)"
 d="M44.656,-0.000 C47.142,-0.000 49.156,2.015 49.156,4.500 C49.156,6.985 47.142,9.000 44.656,9.000 C42.171,9.000 40.156,6.985 40.156,4.500 C40.156,2.015 42.171,-0.000 44.656,-0.000 Z"/>
<path fill-rule="evenodd"  fill="rgb(215, 215, 215)"
 d="M233.462,36.000 L254.631,36.000 C255.957,36.000 257.031,37.075 257.031,38.400 L257.031,38.600 C257.031,39.925 255.957,41.000 254.631,41.000 L233.462,41.000 C232.137,41.000 231.063,39.925 231.063,38.600 L231.063,38.400 C231.063,37.075 232.137,36.000 233.462,36.000 Z"/>
<path fill-rule="evenodd"  fill="rgb(215, 215, 215)"
 d="M263.431,36.000 L284.631,36.000 C285.957,36.000 287.031,37.075 287.031,38.400 L287.031,38.600 C287.031,39.925 285.957,41.000 284.631,41.000 L263.431,41.000 C262.106,41.000 261.031,39.925 261.031,38.600 L261.031,38.400 C261.031,37.075 262.106,36.000 263.431,36.000 Z"/>
</svg>